Cantique-Normal.ufo
<glyph name="exclam" format="2">
	<advance width="556"/>
	<unicode hex="0021"/>
	<note>
		exclam
  </note>
	<outline>
		<contour>
			<point x="243" y="176" type="line"/>
			<point x="312" y="174" type="line"/>
			<point x="312" y="532" type="line" smooth="yes"/>
			<point x="312" y="663"/>
			<point x="313" y="736"/>
			<point x="424" y="753" type="curve"/>
			<point x="424" y="765" type="line"/>
			<point x="421" y="765"/>
			<point x="312" y="747"/>
			<point x="275" y="747" type="curve"/>
			<point x="233" y="747"/>
			<point x="211" y="747"/>
			<point x="132" y="765" type="curve"/>
			<point x="132" y="753" type="line"/>
			<point x="243" y="736"/>
			<point x="244" y="665"/>
			<point x="244" y="534" type="curve"/>
		</contour>
		<contour>
			<point x="278" y="-1" type="curve"/>
			<point x="278" y="-1" type="line"/>
			<point x="306" y="-1"/>
			<point x="329" y="22"/>
			<point x="329" y="50" type="curve"/>
			<point x="329" y="78"/>
			<point x="306" y="100"/>
			<point x="278" y="100" type="curve"/>
			<point x="250" y="100"/>
			<point x="228" y="78"/>
			<point x="228" y="50" type="curve"/>
			<point x="228" y="22"/>
			<point x="250" y="-1"/>
		</contour>
	</outline>
</glyph>
<glyph name="quotedbl" format="2">
	<advance width="532"/>
	<unicode hex="0022"/>
	<note>
		quotedbl
  </note>
	<outline>
		<contour>
			<point x="380" y="764" type="line"/>
			<point x="256" y="586" type="line"/>
			<point x="328" y="586" type="line"/>
			<point x="385" y="751" type="line"/>
		</contour>
		<contour>
			<point x="240" y="764" type="line"/>
			<point x="116" y="586" type="line"/>
			<point x="188" y="586" type="line"/>
			<point x="245" y="751" type="line"/>
		</contour>
	</outline>
</glyph>
<glyph name="quotesingle" format="2">
	<advance width="213"/>
	<unicode hex="0027"/>
	<note>
		quotesingle
  </note>
	<outline>
		<contour>
			<point x="166" y="764" type="line"/>
			<point x="42" y="586" type="line"/>
			<point x="114" y="586" type="line"/>
			<point x="171" y="751" type="line"/>
		</contour>
	</outline>
</glyph>
<glyph name="parenleft" format="2">
	<advance width="464"/>
	<unicode hex="0028"/>
	<note>
		parenleft
  </note>
	<outline>
		<contour>
			<point x="411" y="-172" type="curve"/>
			<point x="411" y="-172" type="line"/>
			<point x="413" y="-174"/>
			<point x="410" y="-152"/>
			<point x="410" y="-152" type="curve"/>
			<point x="298" y="-152"/>
			<point x="207" y="1"/>
			<point x="207" y="214" type="curve"/>
			<point x="207" y="427"/>
			<point x="298" y="590"/>
			<point x="410" y="590" type="curve"/>
			<point x="411" y="610" type="line"/>
			<point x="257" y="610"/>
			<point x="132" y="427"/>
			<point x="132" y="214" type="curve"/>
			<point x="132" y="1"/>
			<point x="257" y="-172"/>
		</contour>
	</outline>
</glyph>
<glyph name="parenright" format="2">
	<advance width="464"/>
	<unicode hex="0029"/>
	<note>
		parenright
  </note>
	<outline>
		<contour>
			<point x="53" y="-172" type="curve"/>
			<point x="53" y="-172" type="line"/>
			<point x="207" y="-172"/>
			<point x="332" y="1"/>
			<point x="332" y="214" type="curve"/>
			<point x="332" y="427"/>
			<point x="207" y="610"/>
			<point x="53" y="610" type="curve"/>
			<point x="54" y="590" type="line"/>
			<point x="166" y="590"/>
			<point x="257" y="427"/>
			<point x="257" y="214" type="curve"/>
			<point x="257" y="1"/>
			<point x="166" y="-152"/>
			<point x="54" y="-152" type="curve"/>
			<point x="54" y="-152"/>
			<point x="52" y="-164"/>
			<point x="52" y="-170" type="curve"/>
			<point x="52" y="-172"/>
			<point x="53" y="-173"/>
		</contour>
	</outline>
</glyph>
<glyph name="hyphen" format="2">
	<advance width="473"/>
	<unicode hex="002D"/>
	<note>
		hyphen
  </note>
	<outline>
		<contour>
			<point x="75" y="218" type="line"/>
			<point x="75" y="204" type="line"/>
			<point x="398" y="204" type="line"/>
			<point x="398" y="218" type="line"/>
		</contour>
	</outline>
</glyph>
<glyph name="zero" format="2">
	<advance width="606"/>
	<unicode hex="0030"/>
	<note>
		zero
  </note>
	<outline>
		<contour>
			<point x="307" y="-7" type="curve"/>
			<point x="307" y="-7" type="line"/>
			<point x="431" y="-7"/>
			<point x="534" y="142"/>
			<point x="534" y="379" type="curve"/>
			<point x="534" y="620"/>
			<point x="434" y="759"/>
			<point x="303" y="759" type="curve"/>
			<point x="174" y="759"/>
			<point x="72" y="616"/>
			<point x="72" y="382" type="curve"/>
			<point x="72" y="144"/>
			<point x="184" y="-9"/>
		</contour>
		<contour>
			<point x="350" y="34" type="curve"/>
			<point x="350" y="34" type="line"/>
			<point x="228" y="34"/>
			<point x="129" y="276"/>
			<point x="129" y="433" type="curve"/>
			<point x="129" y="590"/>
			<point x="161" y="723"/>
			<point x="248" y="723" type="curve"/>
			<point x="371" y="723"/>
			<point x="469" y="509"/>
			<point x="469" y="346" type="curve"/>
			<point x="469" y="183"/>
			<point x="433" y="34"/>
		</contour>
	</outline>
</glyph>
<glyph name="seven" format="2">
	<advance width="599"/>
	<unicode hex="0037"/>
	<note>
		seven
  </note>
	<outline>
		<contour>
			<point x="86" y="15" type="curve"/>
			<point x="86" y="3" type="line"/>
			<point x="165" y="21"/>
			<point x="187" y="21"/>
			<point x="229" y="21" type="curve"/>
			<point x="266" y="21"/>
			<point x="375" y="3"/>
			<point x="378" y="3" type="curve"/>
			<point x="378" y="15" type="line"/>
			<point x="334" y="22"/>
			<point x="318" y="51"/>
			<point x="318" y="91" type="curve"/>
			<point x="318" y="151"/>
			<point x="354" y="237"/>
			<point x="384" y="311" type="curve"/>
			<point x="435" y="439"/>
			<point x="511" y="624"/>
			<point x="552" y="726" type="curve"/>
			<point x="128" y="723" type="line"/>
			<point x="128" y="666"/>
			<point x="104" y="637"/>
			<point x="57" y="571" type="curve"/>
			<point x="68" y="567" type="line"/>
			<point x="126" y="663"/>
			<point x="349" y="689"/>
			<point x="479" y="688" type="curve"/>
			<point x="320" y="334" type="line" smooth="yes"/>
			<point x="266" y="214"/>
			<point x="197" y="32"/>
		</contour>
	</outline>
</glyph>
<glyph name="nine" format="2">
	<advance width="601"/>
	<unicode hex="0039"/>
	<note>
		nine
  </note>
	<outline>
		<contour>
			<point x="109" y="12" type="curve"/>
			<point x="135" y="-28" type="line"/>
			<point x="375" y="-28"/>
			<point x="536" y="237"/>
			<point x="536" y="442" type="curve"/>
			<point x="536" y="596"/>
			<point x="466" y="760"/>
			<point x="293" y="760" type="curve"/>
			<point x="164" y="760"/>
			<point x="62" y="650"/>
			<point x="62" y="521" type="curve"/>
			<point x="62" y="393"/>
			<point x="173" y="294"/>
			<point x="296" y="294" type="curve"/>
			<point x="341" y="294"/>
			<point x="387" y="308"/>
			<point x="427" y="336" type="curve"/>
			<point x="408" y="356" type="line"/>
			<point x="389" y="342"/>
			<point x="366" y="335"/>
			<point x="343" y="335" type="curve"/>
			<point x="220" y="335"/>
			<point x="119" y="455"/>
			<point x="119" y="569" type="curve"/>
			<point x="119" y="645"/>
			<point x="149" y="724"/>
			<point x="230" y="724" type="curve"/>
			<point x="414" y="724"/>
			<point x="470" y="531"/>
			<point x="470" y="380" type="curve"/>
			<point x="470" y="199"/>
			<point x="331" y="-3"/>
			<point x="150" y="0" type="curve"/>
			<point x="131" y="0"/>
			<point x="116" y="5"/>
		</contour>
	</outline>
</glyph>
<glyph name="semicolon" format="2">
	<advance width="229"/>
	<unicode hex="003B"/>
	<note>
		semicolon
  </note>
	<outline>
		<contour>
			<point x="37" y="-86" type="curve"/>
			<point x="42" y="-99" type="line"/>
			<point x="98" y="-99"/>
			<point x="177" y="-47"/>
			<point x="177" y="38" type="curve"/>
			<point x="177" y="52"/>
			<point x="176" y="67"/>
			<point x="166" y="79" type="curve"/>
			<point x="156" y="90"/>
			<point x="142" y="96"/>
			<point x="128" y="96" type="curve"/>
			<point x="116" y="96"/>
			<point x="104" y="92"/>
			<point x="94" y="84" type="curve"/>
			<point x="85" y="76"/>
			<point x="76" y="65"/>
			<point x="76" y="45" type="curve"/>
			<point x="76" y="11"/>
			<point x="109" y="11"/>
			<point x="109" y="-24" type="curve"/>
			<point x="109" y="-51"/>
			<point x="64" y="-86"/>
		</contour>
		<contour>
			<point x="126" y="263" type="curve"/>
			<point x="126" y="263" type="line"/>
			<point x="154" y="263"/>
			<point x="177" y="286"/>
			<point x="177" y="314" type="curve"/>
			<point x="177" y="342"/>
			<point x="154" y="364"/>
			<point x="126" y="364" type="curve"/>
			<point x="98" y="364"/>
			<point x="76" y="342"/>
			<point x="76" y="314" type="curve"/>
			<point x="76" y="286"/>
			<point x="98" y="263"/>
		</contour>
	</outline>
</glyph>
<glyph name="less" format="2">
	<advance width="389"/>
	<unicode hex="003C"/>
	<note>
		less
  </note>
	<outline>
		<contour>
			<point x="117" y="227" type="line"/>
			<point x="241" y="29" type="line"/>
			<point x="253" y="40" type="line"/>
			<point x="178" y="229" type="line"/>
			<point x="253" y="413" type="line"/>
			<point x="241" y="424" type="line"/>
		</contour>
	</outline>
</glyph>
<glyph name="equal" format="2">
	<advance width="523"/>
	<unicode hex="003D"/>
	<note>
		equal
  </note>
	<outline>
		<contour>
			<point x="100" y="328" type="line"/>
			<point x="100" y="314" type="line"/>
			<point x="423" y="314" type="line"/>
			<point x="423" y="328" type="line"/>
		</contour>
		<contour>
			<point x="100" y="176" type="line"/>
			<point x="100" y="162" type="line"/>
			<point x="423" y="162" type="line"/>
			<point x="423" y="176" type="line"/>
		</contour>
	</outline>
</glyph>
<glyph name="greater" format="2">
	<advance width="386"/>
	<unicode hex="003E"/>
	<note>
		greater
  </note>
	<outline>
		<contour>
			<point x="117" y="40" type="line"/>
			<point x="129" y="29" type="line"/>
			<point x="253" y="227" type="line"/>
			<point x="129" y="424" type="line"/>
			<point x="117" y="413" type="line"/>
			<point x="192" y="229" type="line"/>
		</contour>
	</outline>
</glyph>
<glyph name="at" format="2">
	<advance width="957"/>
	<unicode hex="0040"/>
	<note>
		at
  </note>
	<outline>
		<contour>
			<point x="477" y="-172" type="curve"/>
			<point x="477" y="-172" type="line"/>
			<point x="478" y="-170"/>
			<point x="477" y="-152"/>
			<point x="477" y="-152" type="curve"/>
			<point x="280" y="-152"/>
			<point x="120" y="8"/>
			<point x="120" y="205" type="curve"/>
			<point x="120" y="404"/>
			<point x="280" y="564"/>
			<point x="477" y="564" type="curve"/>
			<point x="676" y="564"/>
			<point x="836" y="404"/>
			<point x="836" y="205" type="curve"/>
			<point x="836" y="136"/>
			<point x="768" y="54"/>
			<point x="721" y="54" type="curve"/>
			<point x="682" y="54"/>
			<point x="659" y="137"/>
			<point x="659" y="225" type="curve"/>
			<point x="660" y="288" type="line" smooth="yes"/>
			<point x="660" y="344"/>
			<point x="707" y="346"/>
			<point x="708" y="344" type="curve"/>
			<point x="708" y="353" type="line"/>
			<point x="618" y="336" type="line"/>
			<point x="617" y="336"/>
			<point x="537" y="429"/>
			<point x="430" y="429" type="curve"/>
			<point x="395" y="429"/>
			<point x="356" y="419"/>
			<point x="317" y="392" type="curve"/>
			<point x="258" y="351"/>
			<point x="225" y="283"/>
			<point x="225" y="214" type="curve"/>
			<point x="225" y="171"/>
			<point x="238" y="127"/>
			<point x="265" y="90" type="curve"/>
			<point x="305" y="32"/>
			<point x="374" y="-1"/>
			<point x="444" y="-1" type="curve"/>
			<point x="487" y="-1"/>
			<point x="530" y="11"/>
			<point x="568" y="38" type="curve"/>
			<point x="579" y="46"/>
			<point x="589" y="55"/>
			<point x="598" y="65" type="curve"/>
			<point x="604" y="31"/>
			<point x="611" y="4"/>
			<point x="631" y="0" type="curve"/>
			<point x="669" y="0"/>
			<point x="857" y="37"/>
			<point x="857" y="205" type="curve"/>
			<point x="857" y="415"/>
			<point x="687" y="585"/>
			<point x="477" y="585" type="curve"/>
			<point x="269" y="585"/>
			<point x="100" y="415"/>
			<point x="100" y="205" type="curve"/>
			<point x="100" y="-3"/>
			<point x="269" y="-172"/>
		</contour>
		<contour>
			<point x="486" y="37" type="curve"/>
			<point x="486" y="37" type="line"/>
			<point x="424" y="37"/>
			<point x="356" y="80"/>
			<point x="320" y="133" type="curve"/>
			<point x="294" y="170"/>
			<point x="278" y="220"/>
			<point x="278" y="268" type="curve"/>
			<point x="278" y="312"/>
			<point x="292" y="353"/>
			<point x="326" y="378" type="curve"/>
			<point x="344" y="392"/>
			<point x="366" y="398"/>
			<point x="389" y="398" type="curve"/>
			<point x="450" y="398"/>
			<point x="520" y="355"/>
			<point x="556" y="303" type="curve"/>
			<point x="583" y="263"/>
			<point x="598" y="216"/>
			<point x="598" y="169" type="curve"/>
			<point x="598" y="158"/>
			<point x="597" y="147"/>
			<point x="595" y="136" type="curve"/>
			<point x="590" y="104"/>
			<point x="576" y="75"/>
			<point x="550" y="57" type="curve"/>
			<point x="531" y="43"/>
			<point x="509" y="37"/>
		</contour>
	</outline>
</glyph>
<glyph name="F" format="2">
	<advance width="916"/>
	<unicode hex="0046"/>
	<anchor x="458" y="675" name="top"/>
	<anchor x="458" y="0" name="bottom"/>
	<note>
		F
  </note>
	<outline>
		<contour>
			<point x="-18" y="-800" type="curve"/>
			<point x="-18" y="-812" type="line"/>
			<point x="61" y="-794"/>
			<point x="93" y="-752"/>
			<point x="101" y="-695" type="curve"/>
			<point x="107" y="-655"/>
			<point x="162" y="169"/>
			<point x="162" y="299" type="curve"/>
			<point x="162" y="404" type="line"/>
			<point x="944" y="404" type="line"/>
			<point x="944" y="418" type="line"/>
			<point x="162" y="418" type="line"/>
			<point x="161" y="539"/>
			<point x="163" y="641"/>
			<point x="272" y="719" type="curve"/>
			<point x="322" y="754"/>
			<point x="379" y="770"/>
			<point x="439" y="770" type="curve"/>
			<point x="603" y="770"/>
			<point x="778" y="649"/>
			<point x="827" y="488" type="curve"/>
			<point x="839" y="488" type="line"/>
			<point x="839" y="491"/>
			<point x="821" y="600"/>
			<point x="821" y="637" type="curve"/>
			<point x="821" y="679"/>
			<point x="821" y="701"/>
			<point x="839" y="780" type="curve"/>
			<point x="827" y="780" type="line"/>
			<point x="820" y="737"/>
			<point x="806" y="705"/>
			<point x="782" y="683" type="curve"/>
			<point x="706" y="762"/>
			<point x="600" y="805"/>
			<point x="491" y="805" type="curve"/>
			<point x="413" y="805"/>
			<point x="333" y="782"/>
			<point x="263" y="733" type="curve"/>
			<point x="150" y="654"/>
			<point x="94" y="517"/>
			<point x="94" y="383" type="curve"/>
			<point x="94" y="-581" type="line" smooth="yes"/>
			<point x="94" y="-712"/>
			<point x="93" y="-783"/>
		</contour>
	</outline>
</glyph>
<glyph name="H" format="2">
	<advance width="1016"/>
	<unicode hex="0048"/>
	<anchor x="508" y="338" name="center"/>
	<anchor x="508" y="675" name="top"/>
	<anchor x="20" y="675" name="topleft"/>
	<anchor x="508" y="0" name="bottom"/>
	<note>
		H
  </note>
	<outline>
		<contour>
			<point x="52" y="15" type="curve"/>
			<point x="52" y="3" type="line"/>
			<point x="131" y="21"/>
			<point x="153" y="21"/>
			<point x="195" y="21" type="curve"/>
			<point x="232" y="21"/>
			<point x="331" y="3"/>
			<point x="334" y="3" type="curve"/>
			<point x="334" y="15" type="line"/>
			<point x="238" y="30"/>
			<point x="232" y="86"/>
			<point x="232" y="185" type="curve"/>
			<point x="232" y="201"/>
			<point x="232" y="218"/>
			<point x="232" y="236" type="curve"/>
			<point x="232" y="404" type="line"/>
			<point x="784" y="404" type="line"/>
			<point x="784" y="234" type="line" smooth="yes"/>
			<point x="784" y="216"/>
			<point x="784" y="199"/>
			<point x="784" y="183" type="curve"/>
			<point x="784" y="84"/>
			<point x="778" y="30"/>
			<point x="682" y="15" type="curve"/>
			<point x="682" y="3" type="line"/>
			<point x="761" y="21"/>
			<point x="773" y="21"/>
			<point x="815" y="21" type="curve"/>
			<point x="852" y="21"/>
			<point x="961" y="3"/>
			<point x="964" y="3" type="curve"/>
			<point x="964" y="15" type="line"/>
			<point x="853" y="32"/>
			<point x="852" y="105"/>
			<point x="852" y="236" type="curve"/>
			<point x="852" y="532" type="line" smooth="yes"/>
			<point x="852" y="663"/>
			<point x="853" y="736"/>
			<point x="964" y="753" type="curve"/>
			<point x="964" y="765" type="line"/>
			<point x="961" y="765"/>
			<point x="852" y="747"/>
			<point x="815" y="747" type="curve"/>
			<point x="773" y="747"/>
			<point x="761" y="747"/>
			<point x="682" y="765" type="curve"/>
			<point x="682" y="753" type="line"/>
			<point x="778" y="738"/>
			<point x="784" y="684"/>
			<point x="784" y="585" type="curve"/>
			<point x="784" y="569"/>
			<point x="784" y="552"/>
			<point x="784" y="534" type="curve"/>
			<point x="784" y="418" type="line"/>
			<point x="232" y="418" type="line"/>
			<point x="232" y="532" type="line" smooth="yes"/>
			<point x="232" y="550"/>
			<point x="232" y="567"/>
			<point x="232" y="583" type="curve"/>
			<point x="232" y="682"/>
			<point x="238" y="738"/>
			<point x="334" y="753" type="curve"/>
			<point x="334" y="765" type="line"/>
			<point x="331" y="765"/>
			<point x="232" y="747"/>
			<point x="195" y="747" type="curve"/>
			<point x="153" y="747"/>
			<point x="131" y="747"/>
			<point x="52" y="765" type="curve"/>
			<point x="52" y="753" type="line"/>
			<point x="163" y="736"/>
			<point x="164" y="665"/>
			<point x="164" y="534" type="curve"/>
			<point x="164" y="234" type="line" smooth="yes"/>
			<point x="164" y="103"/>
			<point x="163" y="32"/>
		</contour>
	</outline>
</glyph>
<glyph name="I" format="2">
	<advance width="396"/>
	<unicode hex="0049"/>
	<anchor x="356" y="10" name="ogonek"/>
	<anchor x="198" y="750" name="top"/>
	<anchor x="20" y="675" name="topleft"/>
	<anchor x="198" y="0" name="bottom"/>
	<note>
		I
  </note>
	<outline>
		<contour>
			<point x="52" y="12" type="curve"/>
			<point x="52" y="0" type="line"/>
			<point x="131" y="18"/>
			<point x="153" y="18"/>
			<point x="195" y="18" type="curve"/>
			<point x="232" y="18"/>
			<point x="341" y="0"/>
			<point x="344" y="0" type="curve"/>
			<point x="344" y="12" type="line"/>
			<point x="233" y="29"/>
			<point x="232" y="102"/>
			<point x="232" y="233" type="curve"/>
			<point x="232" y="529" type="line" smooth="yes"/>
			<point x="232" y="660"/>
			<point x="233" y="733"/>
			<point x="344" y="750" type="curve"/>
			<point x="344" y="762" type="line"/>
			<point x="341" y="762"/>
			<point x="232" y="744"/>
			<point x="195" y="744" type="curve"/>
			<point x="153" y="744"/>
			<point x="131" y="744"/>
			<point x="52" y="762" type="curve"/>
			<point x="52" y="750" type="line"/>
			<point x="163" y="733"/>
			<point x="164" y="662"/>
			<point x="164" y="531" type="curve"/>
			<point x="164" y="231" type="line" smooth="yes"/>
			<point x="164" y="100"/>
			<point x="163" y="29"/>
		</contour>
	</outline>
</glyph>
<glyph name="M" format="2">
	<advance width="1336"/>
	<unicode hex="004D"/>
	<anchor x="668" y="675" name="top"/>
	<anchor x="668" y="0" name="bottom"/>
	<note>
		M
  </note>
	<outline>
		<contour>
			<point x="482" y="807" type="line"/>
			<point x="77" y="0" type="line"/>
			<point x="1259" y="0" type="line"/>
			<point x="802" y="807" type="line"/>
			<point x="651" y="507" type="line"/>
		</contour>
		<contour>
			<point x="611" y="426" type="line"/>
			<point x="408" y="22" type="line"/>
			<point x="107" y="23" type="line"/>
			<point x="453" y="708" type="line"/>
		</contour>
		<contour>
			<point x="621" y="408" type="line"/>
			<point x="838" y="22" type="line"/>
			<point x="427" y="23" type="line"/>
		</contour>
		<contour>
			<point x="1158" y="22" type="line"/>
			<point x="926" y="22" type="line"/>
			<point x="662" y="488" type="line"/>
			<point x="773" y="708" type="line"/>
		</contour>
	</outline>
</glyph>
<glyph name="P" format="2">
	<advance width="971"/>
	<unicode hex="0050"/>
	<anchor x="486" y="675" name="top"/>
	<anchor x="486" y="0" name="bottom"/>
	<note>
		P
  </note>
	<outline>
		<contour>
			<point x="52" y="-804" type="curve"/>
			<point x="52" y="-816" type="line"/>
			<point x="131" y="-798"/>
			<point x="153" y="-798"/>
			<point x="195" y="-798" type="curve"/>
			<point x="232" y="-798"/>
			<point x="341" y="-816"/>
			<point x="344" y="-816" type="curve"/>
			<point x="344" y="-804" type="line"/>
			<point x="233" y="-787"/>
			<point x="232" y="-714"/>
			<point x="232" y="-583" type="curve"/>
			<point x="232" y="532" type="line" smooth="yes"/>
			<point x="232" y="621"/>
			<point x="232" y="683"/>
			<point x="268" y="719" type="curve"/>
			<point x="313" y="749"/>
			<point x="367" y="762"/>
			<point x="423" y="762" type="curve"/>
			<point x="554" y="762"/>
			<point x="696" y="692"/>
			<point x="762" y="600" type="curve"/>
			<point x="809" y="534"/>
			<point x="833" y="449"/>
			<point x="833" y="365" type="curve"/>
			<point x="833" y="259"/>
			<point x="794" y="156"/>
			<point x="710" y="96" type="curve"/>
			<point x="646" y="50"/>
			<point x="547" y="28"/>
			<point x="451" y="31" type="curve"/>
			<point x="486" y="-1" type="line"/>
			<point x="572" y="7"/>
			<point x="657" y="35"/>
			<point x="721" y="80" type="curve"/>
			<point x="828" y="156"/>
			<point x="889" y="281"/>
			<point x="889" y="409" type="curve"/>
			<point x="889" y="488"/>
			<point x="866" y="568"/>
			<point x="816" y="638" type="curve"/>
			<point x="740" y="745"/>
			<point x="614" y="805"/>
			<point x="486" y="805" type="curve"/>
			<point x="342" y="805"/>
			<point x="291" y="747"/>
			<point x="195" y="747" type="curve"/>
			<point x="153" y="747"/>
			<point x="131" y="747"/>
			<point x="52" y="765" type="curve"/>
			<point x="52" y="753" type="line"/>
			<point x="163" y="736"/>
			<point x="164" y="665"/>
			<point x="164" y="534" type="curve"/>
			<point x="164" y="-585" type="line" smooth="yes"/>
			<point x="164" y="-716"/>
			<point x="163" y="-787"/>
		</contour>
	</outline>
</glyph>
<glyph name="U" format="2">
	<advance width="1149"/>
	<unicode hex="0055"/>
	<anchor x="1034" y="10" name="ogonek"/>
	<anchor x="575" y="750" name="top"/>
	<anchor x="1009" y="675" name="topright"/>
	<anchor x="575" y="0" name="bottom"/>
	<note>
		U
  </note>
	<outline>
		<contour>
			<point x="562" y="-12" type="curve"/>
			<point x="562" y="-12" type="line"/>
			<point x="796" y="-12"/>
			<point x="949" y="123"/>
			<point x="949" y="400" type="curve"/>
			<point x="949" y="536" type="line" smooth="yes"/>
			<point x="949" y="667"/>
			<point x="961" y="736"/>
			<point x="1072" y="753" type="curve"/>
			<point x="1072" y="765" type="line"/>
			<point x="1069" y="765"/>
			<point x="977" y="747"/>
			<point x="940" y="747" type="curve"/>
			<point x="898" y="747"/>
			<point x="896" y="747"/>
			<point x="817" y="765" type="curve"/>
			<point x="817" y="753" type="line"/>
			<point x="928" y="736"/>
			<point x="936" y="666"/>
			<point x="935" y="535" type="curve"/>
			<point x="935" y="400" type="line" smooth="yes"/>
			<point x="935" y="157"/>
			<point x="813" y="0"/>
			<point x="561" y="0" type="curve"/>
			<point x="379" y="0"/>
			<point x="257" y="127"/>
			<point x="257" y="396" type="curve"/>
			<point x="257" y="532" type="line" smooth="yes"/>
			<point x="257" y="663"/>
			<point x="258" y="736"/>
			<point x="369" y="753" type="curve"/>
			<point x="369" y="765" type="line"/>
			<point x="366" y="765"/>
			<point x="257" y="747"/>
			<point x="220" y="747" type="curve"/>
			<point x="178" y="747"/>
			<point x="156" y="747"/>
			<point x="77" y="765" type="curve"/>
			<point x="77" y="753" type="line"/>
			<point x="188" y="736"/>
			<point x="190" y="665"/>
			<point x="189" y="534" type="curve"/>
			<point x="188" y="395" type="line" smooth="yes"/>
			<point x="188" y="103"/>
			<point x="351" y="-12"/>
		</contour>
	</outline>
</glyph>
<glyph name="V" format="2">
	<advance width="1011"/>
	<unicode hex="0056"/>
	<anchor x="511" y="675" name="top"/>
	<anchor x="511" y="0" name="bottom"/>
	<note>
		V
  </note>
	<outline>
		<contour>
			<point x="77" y="767" type="line"/>
			<point x="534" y="-40" type="line"/>
			<point x="939" y="767" type="line"/>
		</contour>
		<contour>
			<point x="909" y="744" type="line"/>
			<point x="563" y="59" type="line"/>
			<point x="178" y="745" type="line"/>
		</contour>
	</outline>
</glyph>
<glyph name="W" format="2">
	<advance width="1331"/>
	<unicode hex="0057"/>
	<anchor x="666" y="765" name="top"/>
	<anchor x="666" y="0" name="bottom"/>
	<note>
		W
  </note>
	<outline>
		<contour>
			<point x="685" y="258" type="line"/>
			<point x="854" y="-42" type="line"/>
			<point x="1259" y="765" type="line"/>
			<point x="77" y="765" type="line"/>
			<point x="534" y="-42" type="line"/>
		</contour>
		<contour>
			<point x="1229" y="742" type="line"/>
			<point x="883" y="57" type="line"/>
			<point x="725" y="339" type="line"/>
			<point x="928" y="743" type="line"/>
		</contour>
		<contour>
			<point x="909" y="742" type="line"/>
			<point x="715" y="357" type="line"/>
			<point x="498" y="743" type="line"/>
		</contour>
		<contour>
			<point x="674" y="277" type="line"/>
			<point x="563" y="57" type="line"/>
			<point x="178" y="743" type="line"/>
			<point x="410" y="743" type="line"/>
		</contour>
	</outline>
</glyph>
<glyph name="Y" format="2">
	<advance width="1009"/>
	<unicode hex="0059"/>
	<anchor x="505" y="770" name="top"/>
	<anchor x="505" y="0" name="bottom"/>
	<anchor x="20" y="675" name="topleft"/>
	<note>
		Y
  </note>
	<outline>
		<contour>
			<point x="-158" y="-805" type="curve"/>
			<point x="-158" y="-817" type="line"/>
			<point x="-79" y="-799"/>
			<point x="-57" y="-799"/>
			<point x="-15" y="-799" type="curve"/>
			<point x="22" y="-799"/>
			<point x="131" y="-817"/>
			<point x="134" y="-817" type="curve"/>
			<point x="134" y="-805" type="line"/>
			<point x="85" y="-797"/>
			<point x="66" y="-776"/>
			<point x="66" y="-745" type="curve"/>
			<point x="66" y="-705"/>
			<point x="95" y="-651"/>
			<point x="131" y="-589" type="curve"/>
			<point x="932" y="770" type="line"/>
			<point x="70" y="770" type="line"/>
			<point x="442" y="64" type="line"/>
			<point x="445" y="64"/>
			<point x="217" y="-330"/>
			<point x="68" y="-586" type="curve"/>
			<point x="-3" y="-698"/>
			<point x="-47" y="-788"/>
		</contour>
		<contour>
			<point x="852" y="748" type="line"/>
			<point x="455" y="82" type="line"/>
			<point x="100" y="747" type="line"/>
		</contour>
	</outline>
</glyph>
<glyph name="asciicircum" format="2">
	<advance width="633"/>
	<unicode hex="005E"/>
	<note>
		asciicircum
  </note>
	<outline>
		<contour>
			<point x="112" y="570" type="line"/>
			<point x="123" y="558" type="line"/>
			<point x="312" y="633" type="line"/>
			<point x="496" y="558" type="line"/>
			<point x="507" y="570" type="line"/>
			<point x="310" y="694" type="line"/>
		</contour>
	</outline>
</glyph>
<glyph name="c" format="2">
	<advance width="536"/>
	<unicode hex="0063"/>
	<anchor x="268" y="500" name="top"/>
	<anchor x="268" y="0" name="bottom"/>
	<note>
		c
  </note>
	<outline>
		<contour>
			<point x="296" y="-7" type="curve"/>
			<point x="296" y="-7" type="line"/>
			<point x="342" y="-7"/>
			<point x="388" y="6"/>
			<point x="428" y="35" type="curve"/>
			<point x="464" y="65"/>
			<point x="468" y="72"/>
			<point x="477" y="90" type="curve"/>
			<point x="456" y="103" type="line"/>
			<point x="445" y="87"/>
			<point x="437" y="73"/>
			<point x="409" y="55" type="curve"/>
			<point x="389" y="41"/>
			<point x="366" y="35"/>
			<point x="341" y="35" type="curve"/>
			<point x="276" y="35"/>
			<point x="203" y="80"/>
			<point x="165" y="136" type="curve"/>
			<point x="137" y="175"/>
			<point x="119" y="229"/>
			<point x="119" y="280" type="curve"/>
			<point x="119" y="326"/>
			<point x="134" y="370"/>
			<point x="170" y="397" type="curve"/>
			<point x="190" y="412"/>
			<point x="214" y="418"/>
			<point x="238" y="418" type="curve"/>
			<point x="304" y="418"/>
			<point x="377" y="372"/>
			<point x="416" y="316" type="curve"/>
			<point x="475" y="355" type="line"/>
			<point x="439" y="428"/>
			<point x="373" y="459"/>
			<point x="305" y="459" type="curve"/>
			<point x="255" y="459"/>
			<point x="203" y="442"/>
			<point x="161" y="412" type="curve"/>
			<point x="99" y="368"/>
			<point x="63" y="296"/>
			<point x="63" y="222" type="curve"/>
			<point x="63" y="176"/>
			<point x="77" y="130"/>
			<point x="106" y="90" type="curve"/>
			<point x="149" y="28"/>
			<point x="222" y="-7"/>
		</contour>
	</outline>
</glyph>
<glyph name="d" format="2">
	<advance width="663"/>
	<unicode hex="0064"/>
	<anchor x="332" y="250" name="center"/>
	<anchor x="332" y="750" name="top"/>
	<anchor x="643" y="500" name="topright"/>
	<anchor x="332" y="0" name="bottom"/>
	<note>
		d
  </note>
	<outline>
		<contour>
			<point x="289" y="-7" type="curve"/>
			<point x="289" y="-7" type="line"/>
			<point x="335" y="-7"/>
			<point x="381" y="6"/>
			<point x="421" y="35" type="curve"/>
			<point x="433" y="44"/>
			<point x="445" y="54"/>
			<point x="455" y="65" type="curve"/>
			<point x="455" y="55" type="line" smooth="yes"/>
			<point x="455" y="49"/>
			<point x="455" y="-7"/>
			<point x="512" y="-7" type="curve"/>
			<point x="585" y="-7"/>
			<point x="649" y="65"/>
			<point x="652" y="65" type="curve"/>
			<point x="636" y="83" type="line"/>
			<point x="628" y="74"/>
			<point x="581" y="50"/>
			<point x="562" y="49" type="curve"/>
			<point x="521" y="49"/>
			<point x="522" y="232"/>
			<point x="522" y="232" type="curve"/>
			<point x="522" y="613" type="line" smooth="yes"/>
			<point x="522" y="630"/>
			<point x="522" y="712"/>
			<point x="532" y="750" type="curve"/>
			<point x="503" y="750" type="line"/>
			<point x="463" y="714"/>
			<point x="433" y="698"/>
			<point x="403" y="698" type="curve"/>
			<point x="403" y="686" type="line"/>
			<point x="454" y="668"/>
			<point x="454" y="655"/>
			<point x="454" y="529" type="curve"/>
			<point x="454" y="388" type="line"/>
			<point x="410" y="434"/>
			<point x="349" y="459"/>
			<point x="286" y="459" type="curve"/>
			<point x="241" y="459"/>
			<point x="194" y="446"/>
			<point x="154" y="417" type="curve"/>
			<point x="92" y="373"/>
			<point x="56" y="299"/>
			<point x="56" y="224" type="curve"/>
			<point x="56" y="177"/>
			<point x="70" y="130"/>
			<point x="99" y="90" type="curve"/>
			<point x="142" y="28"/>
			<point x="215" y="-7"/>
		</contour>
		<contour>
			<point x="335" y="34" type="curve"/>
			<point x="335" y="34" type="line"/>
			<point x="269" y="34"/>
			<point x="196" y="80"/>
			<point x="158" y="136" type="curve"/>
			<point x="130" y="175"/>
			<point x="112" y="231"/>
			<point x="112" y="282" type="curve"/>
			<point x="112" y="330"/>
			<point x="127" y="375"/>
			<point x="163" y="402" type="curve"/>
			<point x="183" y="417"/>
			<point x="207" y="423"/>
			<point x="231" y="423" type="curve"/>
			<point x="297" y="423"/>
			<point x="370" y="377"/>
			<point x="409" y="321" type="curve"/>
			<point x="435" y="281"/>
			<point x="453" y="223"/>
			<point x="453" y="175" type="curve"/>
			<point x="453" y="115"/>
			<point x="434" y="79"/>
			<point x="402" y="55" type="curve"/>
			<point x="382" y="40"/>
			<point x="359" y="34"/>
		</contour>
	</outline>
</glyph>
<glyph name="o" format="2">
	<advance width="574"/>
	<unicode hex="006F"/>
	<anchor x="287" y="250" name="center"/>
	<anchor x="517" y="10" name="ogonek"/>
	<anchor x="287" y="500" name="top"/>
	<anchor x="424" y="389" name="topright"/>
	<anchor x="287" y="0" name="bottom"/>
	<note>
		o
  </note>
	<outline>
		<contour>
			<point x="289" y="-7" type="curve"/>
			<point x="289" y="-7" type="line"/>
			<point x="335" y="-7"/>
			<point x="381" y="6"/>
			<point x="421" y="35" type="curve"/>
			<point x="483" y="79"/>
			<point x="518" y="153"/>
			<point x="518" y="229" type="curve"/>
			<point x="518" y="275"/>
			<point x="505" y="322"/>
			<point x="476" y="362" type="curve"/>
			<point x="432" y="424"/>
			<point x="360" y="459"/>
			<point x="287" y="459" type="curve"/>
			<point x="241" y="459"/>
			<point x="195" y="446"/>
			<point x="154" y="417" type="curve"/>
			<point x="92" y="373"/>
			<point x="56" y="299"/>
			<point x="56" y="224" type="curve"/>
			<point x="56" y="177"/>
			<point x="70" y="130"/>
			<point x="99" y="90" type="curve"/>
			<point x="142" y="28"/>
			<point x="215" y="-7"/>
		</contour>
		<contour>
			<point x="335" y="34" type="curve"/>
			<point x="335" y="34" type="line"/>
			<point x="269" y="34"/>
			<point x="196" y="80"/>
			<point x="158" y="136" type="curve"/>
			<point x="130" y="175"/>
			<point x="112" y="231"/>
			<point x="112" y="282" type="curve"/>
			<point x="112" y="330"/>
			<point x="127" y="375"/>
			<point x="163" y="402" type="curve"/>
			<point x="183" y="417"/>
			<point x="207" y="423"/>
			<point x="231" y="423" type="curve"/>
			<point x="297" y="423"/>
			<point x="370" y="377"/>
			<point x="409" y="321" type="curve"/>
			<point x="436" y="280"/>
			<point x="454" y="225"/>
			<point x="454" y="174" type="curve"/>
			<point x="454" y="126"/>
			<point x="439" y="82"/>
			<point x="402" y="55" type="curve"/>
			<point x="382" y="40"/>
			<point x="359" y="34"/>
		</contour>
	</outline>
</glyph>
<glyph name="p" format="2">
	<advance width="681"/>
	<unicode hex="0070"/>
	<anchor x="341" y="499" name="top"/>
	<anchor x="341" y="0" name="bottom"/>
	<note>
		p
  </note>
	<outline>
		<contour>
			<point x="49" y="-803" type="curve"/>
			<point x="49" y="-815" type="line"/>
			<point x="128" y="-797"/>
			<point x="150" y="-797"/>
			<point x="192" y="-797" type="curve"/>
			<point x="229" y="-797"/>
			<point x="338" y="-815"/>
			<point x="341" y="-815" type="curve"/>
			<point x="341" y="-803" type="line"/>
			<point x="233" y="-787"/>
			<point x="228" y="-726"/>
			<point x="228" y="-586" type="curve"/>
			<point x="227" y="59" type="line"/>
			<point x="271" y="13"/>
			<point x="332" y="-12"/>
			<point x="395" y="-12" type="curve"/>
			<point x="440" y="-12"/>
			<point x="487" y="1"/>
			<point x="527" y="30" type="curve"/>
			<point x="589" y="74"/>
			<point x="625" y="150"/>
			<point x="625" y="227" type="curve"/>
			<point x="625" y="274"/>
			<point x="611" y="322"/>
			<point x="582" y="362" type="curve"/>
			<point x="539" y="424"/>
			<point x="466" y="459"/>
			<point x="392" y="459" type="curve"/>
			<point x="346" y="459"/>
			<point x="300" y="446"/>
			<point x="260" y="417" type="curve"/>
			<point x="248" y="408"/>
			<point x="236" y="388"/>
			<point x="226" y="377" type="curve"/>
			<point x="214" y="441" type="line"/>
			<point x="198" y="441" type="line"/>
			<point x="144" y="411"/>
			<point x="49" y="399"/>
			<point x="46" y="399" type="curve"/>
			<point x="46" y="387" type="line"/>
			<point x="77" y="378"/>
			<point x="159" y="383"/>
			<point x="159" y="210" type="curve"/>
			<point x="160" y="-589" type="line" smooth="yes"/>
			<point x="160" y="-720"/>
			<point x="160" y="-786"/>
		</contour>
		<contour>
			<point x="450" y="24" type="curve"/>
			<point x="450" y="24" type="line"/>
			<point x="384" y="24"/>
			<point x="311" y="70"/>
			<point x="272" y="126" type="curve"/>
			<point x="246" y="166"/>
			<point x="229" y="218"/>
			<point x="228" y="267" type="curve"/>
			<point x="228" y="328"/>
			<point x="247" y="373"/>
			<point x="279" y="397" type="curve"/>
			<point x="299" y="412"/>
			<point x="322" y="418"/>
			<point x="346" y="418" type="curve"/>
			<point x="412" y="418"/>
			<point x="485" y="372"/>
			<point x="523" y="316" type="curve"/>
			<point x="551" y="277"/>
			<point x="569" y="220"/>
			<point x="569" y="167" type="curve"/>
			<point x="569" y="118"/>
			<point x="554" y="72"/>
			<point x="518" y="45" type="curve"/>
			<point x="498" y="30"/>
			<point x="474" y="24"/>
		</contour>
	</outline>
</glyph>
<glyph name="t" format="2">
	<advance width="394"/>
	<unicode hex="0074"/>
	<anchor x="197" y="250" name="center"/>
	<anchor x="197" y="500" name="top"/>
	<anchor x="374" y="499" name="topright"/>
	<anchor x="197" y="0" name="bottom"/>
	<note>
		t
  </note>
	<outline>
		<contour>
			<point x="252" y="-2" type="curve"/>
			<point x="252" y="-2" type="line"/>
			<point x="316" y="-2"/>
			<point x="348" y="65"/>
			<point x="348" y="109" type="curve"/>
			<point x="338" y="109" type="line"/>
			<point x="338" y="53"/>
			<point x="295" y="27"/>
			<point x="253" y="27" type="curve"/>
			<point x="183" y="27"/>
			<point x="185" y="108"/>
			<point x="185" y="147" type="curve"/>
			<point x="185" y="425" type="line"/>
			<point x="323" y="425" type="line"/>
			<point x="323" y="459" type="line"/>
			<point x="185" y="459" type="line"/>
			<point x="185" y="488"/>
			<point x="186" y="548"/>
			<point x="195" y="580" type="curve"/>
			<point x="166" y="580" type="line"/>
			<point x="166" y="465"/>
			<point x="73" y="437"/>
			<point x="6" y="437" type="curve"/>
			<point x="6" y="425" type="line"/>
			<point x="117" y="425" type="line"/>
			<point x="117" y="144" type="line" smooth="yes"/>
			<point x="117" y="50"/>
			<point x="157" y="-2"/>
		</contour>
	</outline>
</glyph>
<glyph name="v" format="2">
	<advance width="608"/>
	<unicode hex="0076"/>
	<anchor x="304" y="500" name="top"/>
	<anchor x="304" y="0" name="bottom"/>
	<note>
		v
  </note>
	<outline>
		<contour>
			<point x="55" y="441" type="line"/>
			<point x="316" y="-40" type="line"/>
			<point x="548" y="441" type="line"/>
		</contour>
		<contour>
			<point x="520" y="427" type="line"/>
			<point x="345" y="59" type="line"/>
			<point x="146" y="428" type="line"/>
		</contour>
	</outline>
</glyph>
<glyph name="w" format="2">
	<advance width="873"/>
	<unicode hex="0077"/>
	<anchor x="437" y="500" name="top"/>
	<anchor x="437" y="0" name="bottom"/>
	<note>
		w
  </note>
	<outline>
		<contour>
			<point x="60" y="441" type="line"/>
			<point x="321" y="-40" type="line"/>
			<point x="443" y="214" type="line"/>
			<point x="581" y="-40" type="line"/>
			<point x="813" y="441" type="line"/>
		</contour>
		<contour>
			<point x="433" y="233" type="line"/>
			<point x="350" y="59" type="line"/>
			<point x="151" y="428" type="line"/>
			<point x="327" y="427" type="line"/>
		</contour>
		<contour>
			<point x="525" y="427" type="line"/>
			<point x="472" y="315" type="line"/>
			<point x="411" y="427" type="line"/>
		</contour>
		<contour>
			<point x="785" y="427" type="line"/>
			<point x="610" y="59" type="line"/>
			<point x="483" y="295" type="line"/>
			<point x="546" y="427" type="line"/>
		</contour>
	</outline>
</glyph>
<glyph name="y" format="2">
	<advance width="576"/>
	<unicode hex="0079"/>
	<anchor x="288" y="500" name="top"/>
	<anchor x="288" y="0" name="bottom"/>
	<note>
		y
  </note>
	<outline>
		<contour>
			<point x="-254" y="-802" type="curve"/>
			<point x="-254" y="-814" type="line"/>
			<point x="-175" y="-796"/>
			<point x="-131" y="-784"/>
			<point x="61" y="-442" type="curve"/>
			<point x="515" y="441" type="line"/>
			<point x="22" y="441" type="line"/>
			<point x="272" y="23" type="line"/>
			<point x="25" y="-450" type="line"/>
			<point x="-33" y="-575"/>
			<point x="-143" y="-785"/>
		</contour>
		<contour>
			<point x="487" y="427" type="line"/>
			<point x="312" y="99" type="line"/>
			<point x="113" y="428" type="line"/>
		</contour>
	</outline>
</glyph>
<glyph name="bar" format="2">
	<advance width="134"/>
	<unicode hex="007C"/>
	<note>
		bar
  </note>
	<outline>
		<contour>
			<point x="60" y="746" type="line"/>
			<point x="60" y="3" type="line"/>
			<point x="74" y="3" type="line"/>
			<point x="74" y="746" type="line"/>
		</contour>
	</outline>
</glyph>
<glyph name="asciitilde" format="2">
	<advance width="567"/>
	<unicode hex="007E"/>
	<note>
		asciitilde
  </note>
	<outline>
		<contour>
			<point x="75" y="164" type="curve"/>
			<point x="92" y="162" type="line"/>
			<point x="92" y="189"/>
			<point x="146" y="244"/>
			<point x="196" y="244" type="curve"/>
			<point x="247" y="244"/>
			<point x="288" y="162"/>
			<point x="365" y="162" type="curve"/>
			<point x="433" y="162"/>
			<point x="492" y="274"/>
			<point x="492" y="274" type="curve"/>
			<point x="481" y="288" type="line"/>
			<point x="481" y="288"/>
			<point x="417" y="203"/>
			<point x="362" y="203" type="curve"/>
			<point x="306" y="203"/>
			<point x="279" y="292"/>
			<point x="197" y="292" type="curve"/>
			<point x="99" y="292"/>
			<point x="75" y="164"/>
		</contour>
	</outline>
</glyph>
<glyph name="cent" format="2">
	<advance width="536"/>
	<unicode hex="00A2"/>
	<note>
		cent
  </note>
	<outline>
		<contour>
			<point x="288" y="-7" type="curve"/>
			<point x="288" y="-77" type="line"/>
			<point x="302" y="-77" type="line"/>
			<point x="302" y="-7" type="line"/>
			<point x="346" y="-6"/>
			<point x="389" y="7"/>
			<point x="428" y="35" type="curve"/>
			<point x="464" y="65"/>
			<point x="468" y="72"/>
			<point x="477" y="90" type="curve"/>
			<point x="456" y="103" type="line"/>
			<point x="445" y="87"/>
			<point x="437" y="73"/>
			<point x="409" y="55" type="curve"/>
			<point x="389" y="41"/>
			<point x="365" y="35"/>
			<point x="341" y="35" type="curve"/>
			<point x="328" y="35"/>
			<point x="315" y="37"/>
			<point x="302" y="40" type="curve"/>
			<point x="302" y="405" type="line"/>
			<point x="347" y="387"/>
			<point x="389" y="354"/>
			<point x="416" y="316" type="curve"/>
			<point x="475" y="355" type="line"/>
			<point x="438" y="428"/>
			<point x="371" y="460"/>
			<point x="302" y="459" type="curve"/>
			<point x="302" y="508" type="line"/>
			<point x="288" y="508" type="line"/>
			<point x="288" y="458" type="line"/>
			<point x="243" y="455"/>
			<point x="198" y="438"/>
			<point x="161" y="412" type="curve"/>
			<point x="99" y="368"/>
			<point x="63" y="296"/>
			<point x="63" y="222" type="curve"/>
			<point x="63" y="176"/>
			<point x="77" y="130"/>
			<point x="106" y="90" type="curve"/>
			<point x="147" y="30"/>
			<point x="217" y="-4"/>
		</contour>
		<contour>
			<point x="288" y="410" type="curve"/>
			<point x="288" y="44" type="line"/>
			<point x="239" y="59"/>
			<point x="193" y="94"/>
			<point x="165" y="136" type="curve"/>
			<point x="137" y="175"/>
			<point x="119" y="229"/>
			<point x="119" y="280" type="curve"/>
			<point x="119" y="326"/>
			<point x="134" y="370"/>
			<point x="170" y="397" type="curve"/>
			<point x="190" y="411"/>
			<point x="213" y="418"/>
			<point x="238" y="418" type="curve"/>
			<point x="255" y="418"/>
			<point x="271" y="415"/>
		</contour>
	</outline>
</glyph>
<glyph name="yen" format="2">
	<advance width="1009"/>
	<unicode hex="00A5"/>
	<note>
		yen
  </note>
	<outline>
		<contour>
			<point x="-158" y="-805" type="curve"/>
			<point x="-158" y="-817" type="line"/>
			<point x="-79" y="-799"/>
			<point x="-57" y="-799"/>
			<point x="-15" y="-799" type="curve"/>
			<point x="22" y="-799"/>
			<point x="131" y="-817"/>
			<point x="134" y="-817" type="curve"/>
			<point x="134" y="-805" type="line"/>
			<point x="85" y="-797"/>
			<point x="66" y="-776"/>
			<point x="66" y="-745" type="curve"/>
			<point x="66" y="-705"/>
			<point x="95" y="-651"/>
			<point x="131" y="-589" type="curve"/>
			<point x="638" y="272" type="line"/>
			<point x="877" y="272" type="line"/>
			<point x="877" y="286" type="line"/>
			<point x="647" y="286" type="line"/>
			<point x="728" y="424" type="line"/>
			<point x="877" y="424" type="line"/>
			<point x="877" y="438" type="line"/>
			<point x="736" y="438" type="line"/>
			<point x="932" y="770" type="line"/>
			<point x="70" y="770" type="line"/>
			<point x="245" y="438" type="line"/>
			<point x="104" y="438" type="line"/>
			<point x="104" y="424" type="line"/>
			<point x="252" y="424" type="line"/>
			<point x="325" y="286" type="line"/>
			<point x="104" y="286" type="line"/>
			<point x="104" y="272" type="line"/>
			<point x="332" y="272" type="line"/>
			<point x="442" y="64" type="line"/>
			<point x="445" y="64"/>
			<point x="217" y="-330"/>
			<point x="68" y="-586" type="curve"/>
			<point x="-3" y="-698"/>
			<point x="-47" y="-788"/>
		</contour>
		<contour>
			<point x="568" y="272" type="line"/>
			<point x="455" y="82" type="line"/>
			<point x="353" y="272" type="line"/>
		</contour>
		<contour>
			<point x="577" y="286" type="line"/>
			<point x="346" y="286" type="line"/>
			<point x="272" y="424" type="line"/>
			<point x="659" y="424" type="line"/>
		</contour>
		<contour>
			<point x="667" y="438" type="line"/>
			<point x="265" y="438" type="line"/>
			<point x="100" y="747" type="line"/>
			<point x="852" y="748" type="line"/>
		</contour>
	</outline>
</glyph>
<glyph name="copyright" format="2">
	<advance width="690"/>
	<unicode hex="00A9"/>
	<note>
		copyright
  </note>
	<outline>
		<contour>
			<point x="341" y="86" type="curve"/>
			<point x="341" y="86" type="line"/>
			<point x="490" y="86"/>
			<point x="615" y="204"/>
			<point x="615" y="352" type="curve"/>
			<point x="615" y="500"/>
			<point x="490" y="626"/>
			<point x="341" y="626" type="curve"/>
			<point x="193" y="626"/>
			<point x="75" y="500"/>
			<point x="75" y="352" type="curve"/>
			<point x="75" y="204"/>
			<point x="193" y="86"/>
		</contour>
		<contour>
			<point x="345" y="205" type="curve"/>
			<point x="345" y="205" type="line"/>
			<point x="374" y="205"/>
			<point x="402" y="213"/>
			<point x="427" y="231" type="curve"/>
			<point x="450" y="250"/>
			<point x="452" y="254"/>
			<point x="458" y="266" type="curve"/>
			<point x="445" y="274" type="line"/>
			<point x="438" y="264"/>
			<point x="433" y="255"/>
			<point x="415" y="244" type="curve"/>
			<point x="402" y="235"/>
			<point x="388" y="232"/>
			<point x="372" y="232" type="curve"/>
			<point x="331" y="232"/>
			<point x="285" y="259"/>
			<point x="261" y="295" type="curve"/>
			<point x="244" y="321"/>
			<point x="232" y="355"/>
			<point x="232" y="387" type="curve"/>
			<point x="232" y="416"/>
			<point x="242" y="442"/>
			<point x="264" y="459" type="curve"/>
			<point x="277" y="469"/>
			<point x="292" y="473"/>
			<point x="308" y="473" type="curve"/>
			<point x="349" y="473"/>
			<point x="395" y="444"/>
			<point x="419" y="408" type="curve"/>
			<point x="457" y="433" type="line"/>
			<point x="434" y="479"/>
			<point x="392" y="499"/>
			<point x="349" y="499" type="curve"/>
			<point x="317" y="499"/>
			<point x="285" y="488"/>
			<point x="258" y="469" type="curve"/>
			<point x="219" y="441"/>
			<point x="196" y="396"/>
			<point x="196" y="350" type="curve"/>
			<point x="196" y="321"/>
			<point x="205" y="291"/>
			<point x="224" y="266" type="curve"/>
			<point x="253" y="227"/>
			<point x="299" y="205"/>
		</contour>
		<contour>
			<point x="340" y="105" type="curve"/>
			<point x="340" y="105" type="line"/>
			<point x="203" y="105"/>
			<point x="94" y="214"/>
			<point x="94" y="351" type="curve"/>
			<point x="94" y="490"/>
			<point x="203" y="603"/>
			<point x="340" y="603" type="curve"/>
			<point x="479" y="603"/>
			<point x="592" y="490"/>
			<point x="592" y="351" type="curve"/>
			<point x="592" y="214"/>
			<point x="479" y="105"/>
		</contour>
	</outline>
</glyph>
<glyph name="asuperior" format="2">
	<advance width="629"/>
	<unicode hex="00AA"/>
	<note>
		ordfeminine
  </note>
	<outline>
		<contour>
			<point x="350" y="331" type="curve"/>
			<point x="350" y="331" type="line"/>
			<point x="387" y="331"/>
			<point x="454" y="379"/>
			<point x="458" y="388" type="curve"/>
			<point x="458" y="374"/>
			<point x="458" y="336"/>
			<point x="494" y="336" type="curve"/>
			<point x="554" y="336"/>
			<point x="582" y="378"/>
			<point x="584" y="378" type="curve"/>
			<point x="574" y="389" type="line"/>
			<point x="569" y="384"/>
			<point x="539" y="368"/>
			<point x="526" y="368" type="curve"/>
			<point x="510" y="367"/>
			<point x="499" y="381"/>
			<point x="499" y="449" type="curve"/>
			<point x="499" y="545" type="line" smooth="yes"/>
			<point x="499" y="612"/>
			<point x="455" y="632"/>
			<point x="404" y="632" type="curve"/>
			<point x="335" y="632"/>
			<point x="281" y="600"/>
			<point x="281" y="562" type="curve"/>
			<point x="324" y="533" type="line"/>
			<point x="324" y="588"/>
			<point x="355" y="620"/>
			<point x="384" y="620" type="curve"/>
			<point x="422" y="620"/>
			<point x="458" y="587"/>
			<point x="458" y="528" type="curve"/>
			<point x="401" y="512" type="line" smooth="yes"/>
			<point x="306" y="485"/>
			<point x="279" y="454"/>
			<point x="279" y="403" type="curve"/>
			<point x="279" y="351"/>
			<point x="311" y="331"/>
		</contour>
		<contour>
			<point x="386" y="368" type="curve"/>
			<point x="386" y="368" type="line"/>
			<point x="347" y="366"/>
			<point x="317" y="381"/>
			<point x="317" y="431" type="curve"/>
			<point x="317" y="469"/>
			<point x="353" y="486"/>
			<point x="393" y="497" type="curve"/>
			<point x="458" y="515" type="line"/>
			<point x="457" y="515"/>
			<point x="458" y="410"/>
			<point x="458" y="410" type="curve"/>
			<point x="458" y="398"/>
			<point x="409" y="368"/>
		</contour>
	</outline>
</glyph>
<glyph name="plusminus" format="2">
	<advance width="527"/>
	<unicode hex="00B1"/>
	<note>
		plusminus
  </note>
	<outline>
		<contour>
			<point x="258" y="268" type="line"/>
			<point x="258" y="110" type="line"/>
			<point x="272" y="110" type="line"/>
			<point x="272" y="268" type="line"/>
			<point x="423" y="268" type="line"/>
			<point x="423" y="282" type="line"/>
			<point x="272" y="282" type="line"/>
			<point x="272" y="433" type="line"/>
			<point x="258" y="433" type="line"/>
			<point x="258" y="282" type="line"/>
			<point x="100" y="282" type="line"/>
			<point x="100" y="268" type="line"/>
		</contour>
		<contour>
			<point x="104" y="17" type="line"/>
			<point x="104" y="3" type="line"/>
			<point x="427" y="3" type="line"/>
			<point x="427" y="17" type="line"/>
		</contour>
	</outline>
</glyph>
<glyph name="uni00B3" format="2">
	<advance width="429"/>
	<unicode hex="00B3"/>
	<note>
		uni00B3
  </note>
	<outline>
		<contour>
			<point x="204" y="296" type="curve"/>
			<point x="204" y="296" type="line"/>
			<point x="231" y="296"/>
			<point x="259" y="304"/>
			<point x="283" y="321" type="curve"/>
			<point x="320" y="348"/>
			<point x="341" y="391"/>
			<point x="341" y="435" type="curve"/>
			<point x="341" y="462"/>
			<point x="333" y="490"/>
			<point x="316" y="514" type="curve"/>
			<point x="289" y="552"/>
			<point x="244" y="576"/>
			<point x="199" y="576" type="curve"/>
			<point x="186" y="576"/>
			<point x="174" y="574"/>
			<point x="161" y="570" type="curve"/>
			<point x="354" y="749" type="line"/>
			<point x="118" y="748" type="line"/>
			<point x="118" y="714"/>
			<point x="103" y="696"/>
			<point x="75" y="657" type="curve"/>
			<point x="82" y="654" type="line"/>
			<point x="116" y="712"/>
			<point x="232" y="727"/>
			<point x="310" y="727" type="curve"/>
			<point x="122" y="551" type="line"/>
			<point x="128" y="542" type="line"/>
			<point x="140" y="550"/>
			<point x="153" y="554"/>
			<point x="167" y="554" type="curve"/>
			<point x="207" y="554"/>
			<point x="252" y="524"/>
			<point x="276" y="489" type="curve"/>
			<point x="292" y="465"/>
			<point x="303" y="433"/>
			<point x="303" y="403" type="curve"/>
			<point x="303" y="375"/>
			<point x="294" y="349"/>
			<point x="272" y="333" type="curve"/>
			<point x="260" y="324"/>
			<point x="246" y="320"/>
			<point x="231" y="320" type="curve"/>
			<point x="192" y="320"/>
			<point x="148" y="348"/>
			<point x="125" y="382" type="curve"/>
			<point x="90" y="354" type="line"/>
			<point x="116" y="317"/>
			<point x="160" y="296"/>
		</contour>
	</outline>
</glyph>
<glyph name="uni00B5" format="2">
	<advance width="696"/>
	<unicode hex="00B5"/>
	<note>
		uni00B5
  </note>
	<outline>
		<contour>
			<point x="133" y="232" type="curve"/>
			<point x="132" y="-123" type="line"/>
			<point x="203" y="-92" type="line"/>
			<point x="203" y="16" type="line"/>
			<point x="225" y="6"/>
			<point x="251" y="3"/>
			<point x="276" y="3" type="curve"/>
			<point x="389" y="3"/>
			<point x="441" y="83"/>
			<point x="464" y="153" type="curve"/>
			<point x="464" y="-3" type="line"/>
			<point x="483" y="-3" type="line"/>
			<point x="528" y="31"/>
			<point x="576" y="49"/>
			<point x="643" y="49" type="curve"/>
			<point x="643" y="61" type="line"/>
			<point x="534" y="78"/>
			<point x="531" y="77"/>
			<point x="531" y="203" type="curve"/>
			<point x="531" y="454" type="line"/>
			<point x="391" y="414" type="line"/>
			<point x="391" y="402" type="line"/>
			<point x="462" y="388"/>
			<point x="463" y="376"/>
			<point x="463" y="247" type="curve"/>
			<point x="463" y="214"/>
			<point x="456" y="31"/>
			<point x="280" y="31" type="curve"/>
			<point x="251" y="31"/>
			<point x="203" y="69"/>
			<point x="203" y="134" type="curve"/>
			<point x="201" y="454" type="line"/>
			<point x="133" y="436"/>
			<point x="54" y="424"/>
			<point x="51" y="424" type="curve"/>
			<point x="51" y="412" type="line"/>
			<point x="133" y="399"/>
			<point x="133" y="356"/>
		</contour>
	</outline>
</glyph>
<glyph name="paragraph" format="2">
	<advance width="759"/>
	<unicode hex="00B6"/>
	<note>
		paragraph
  </note>
	<outline>
		<contour>
			<point x="312" y="279" type="curve"/>
			<point x="312" y="3" type="line"/>
			<point x="326" y="3" type="line"/>
			<point x="326" y="732" type="line"/>
			<point x="462" y="732" type="line"/>
			<point x="462" y="3" type="line"/>
			<point x="476" y="3" type="line"/>
			<point x="476" y="732" type="line"/>
			<point x="599" y="732" type="line"/>
			<point x="599" y="746" type="line"/>
			<point x="312" y="745" type="line" smooth="yes"/>
			<point x="265" y="745"/>
			<point x="218" y="732"/>
			<point x="178" y="703" type="curve"/>
			<point x="116" y="659"/>
			<point x="80" y="585"/>
			<point x="80" y="510" type="curve"/>
			<point x="80" y="463"/>
			<point x="94" y="416"/>
			<point x="123" y="376" type="curve"/>
			<point x="166" y="314"/>
			<point x="238" y="279"/>
		</contour>
	</outline>
</glyph>
<glyph name="periodcentered" format="2">
	<advance width="301"/>
	<unicode hex="00B7"/>
	<note>
		periodcentered
  </note>
	<outline>
		<contour>
			<point x="150" y="199" type="curve"/>
			<point x="150" y="199" type="line"/>
			<point x="178" y="199"/>
			<point x="201" y="222"/>
			<point x="201" y="250" type="curve"/>
			<point x="201" y="278"/>
			<point x="178" y="300"/>
			<point x="150" y="300" type="curve"/>
			<point x="122" y="300"/>
			<point x="100" y="278"/>
			<point x="100" y="250" type="curve"/>
			<point x="100" y="222"/>
			<point x="122" y="199"/>
		</contour>
	</outline>
</glyph>
<glyph name="cedilla" format="2">
	<advance width="435"/>
	<unicode hex="00B8"/>
	<note>
		cedilla
  </note>
	<outline>
		<contour>
			<point x="118" y="-266" type="curve"/>
			<point x="118" y="-266" type="line"/>
			<point x="146" y="-266" type="line" smooth="yes"/>
			<point x="232" y="-266"/>
			<point x="335" y="-157"/>
			<point x="335" y="-78" type="curve"/>
			<point x="335" y="-62"/>
			<point x="310" y="-49"/>
			<point x="276" y="-49" type="curve"/>
			<point x="185" y="-49"/>
			<point x="175" y="-61"/>
			<point x="175" y="-61" type="curve"/>
			<point x="222" y="0" type="line"/>
			<point x="149" y="0" type="line"/>
			<point x="100" y="-90" type="line"/>
			<point x="130" y="-79"/>
			<point x="185" y="-68"/>
			<point x="221" y="-68" type="curve"/>
			<point x="243" y="-68"/>
			<point x="259" y="-72"/>
			<point x="259" y="-83" type="curve"/>
			<point x="259" y="-193"/>
			<point x="156" y="-266"/>
		</contour>
	</outline>
</glyph>
<glyph name="uni00B9" format="2">
	<advance width="338"/>
	<unicode hex="00B9"/>
	<note>
		uni00B9
  </note>
	<outline>
		<contour>
			<point x="56" y="338" type="curve"/>
			<point x="56" y="333" type="line"/>
			<point x="87" y="340"/>
			<point x="96" y="340"/>
			<point x="112" y="340" type="curve"/>
			<point x="127" y="340"/>
			<point x="170" y="333"/>
			<point x="172" y="333" type="curve"/>
			<point x="172" y="338" type="line"/>
			<point x="127" y="345"/>
			<point x="127" y="374"/>
			<point x="127" y="426" type="curve"/>
			<point x="127" y="628" type="line"/>
			<point x="104" y="628" type="line" smooth="yes"/>
			<point x="102" y="628"/>
			<point x="94" y="618"/>
			<point x="44" y="604" type="curve"/>
			<point x="44" y="599" type="line"/>
			<point x="100" y="609" type="line"/>
			<point x="100" y="425" type="line" smooth="yes"/>
			<point x="100" y="373"/>
			<point x="100" y="345"/>
		</contour>
	</outline>
</glyph>
<glyph name="osuperior" format="2">
	<advance width="448"/>
	<unicode hex="00BA"/>
	<note>
		ordmasculine
  </note>
	<outline>
		<contour>
			<point x="225" y="337" type="curve"/>
			<point x="225" y="337" type="line"/>
			<point x="255" y="337"/>
			<point x="284" y="345"/>
			<point x="310" y="364" type="curve"/>
			<point x="350" y="392"/>
			<point x="373" y="440"/>
			<point x="373" y="489" type="curve"/>
			<point x="373" y="519"/>
			<point x="364" y="549"/>
			<point x="346" y="575" type="curve"/>
			<point x="318" y="615"/>
			<point x="271" y="637"/>
			<point x="224" y="637" type="curve"/>
			<point x="194" y="637"/>
			<point x="164" y="628"/>
			<point x="138" y="610" type="curve"/>
			<point x="98" y="581"/>
			<point x="75" y="533"/>
			<point x="75" y="485" type="curve"/>
			<point x="75" y="455"/>
			<point x="83" y="425"/>
			<point x="102" y="399" type="curve"/>
			<point x="130" y="359"/>
			<point x="178" y="337"/>
		</contour>
		<contour>
			<point x="255" y="363" type="curve"/>
			<point x="255" y="363" type="line"/>
			<point x="213" y="363"/>
			<point x="165" y="392"/>
			<point x="141" y="429" type="curve"/>
			<point x="123" y="455"/>
			<point x="111" y="490"/>
			<point x="111" y="523" type="curve"/>
			<point x="111" y="554"/>
			<point x="121" y="583"/>
			<point x="144" y="600" type="curve"/>
			<point x="157" y="610"/>
			<point x="172" y="614"/>
			<point x="188" y="614" type="curve"/>
			<point x="231" y="614"/>
			<point x="278" y="584"/>
			<point x="303" y="548" type="curve"/>
			<point x="320" y="522"/>
			<point x="331" y="487"/>
			<point x="331" y="454" type="curve"/>
			<point x="331" y="423"/>
			<point x="322" y="394"/>
			<point x="298" y="376" type="curve"/>
			<point x="285" y="367"/>
			<point x="271" y="363"/>
		</contour>
	</outline>
</glyph>
<glyph name="guillemotright" format="2">
	<advance width="521"/>
	<unicode hex="00BB"/>
	<note>
		guillemotright
  </note>
	<outline>
		<contour>
			<point x="270" y="40" type="line"/>
			<point x="282" y="29" type="line"/>
			<point x="406" y="227" type="line"/>
			<point x="282" y="424" type="line"/>
			<point x="270" y="413" type="line"/>
			<point x="345" y="229" type="line"/>
		</contour>
		<contour>
			<point x="140" y="40" type="line"/>
			<point x="152" y="29" type="line"/>
			<point x="276" y="227" type="line"/>
			<point x="152" y="424" type="line"/>
			<point x="140" y="413" type="line"/>
			<point x="215" y="229" type="line"/>
		</contour>
	</outline>
</glyph>
<glyph name="onehalf" format="2">
	<advance width="672"/>
	<unicode hex="00BD"/>
	<note>
		onehalf
  </note>
	<outline>
		<contour>
			<point x="119" y="8" type="line"/>
			<point x="131" y="1" type="line"/>
			<point x="597" y="752" type="line"/>
			<point x="584" y="759" type="line"/>
		</contour>
		<contour>
			<point x="348" y="24" type="line"/>
			<point x="348" y="0" type="line"/>
			<point x="564" y="0" type="line"/>
			<point x="564" y="17"/>
			<point x="585" y="90"/>
			<point x="585" y="91" type="curve"/>
			<point x="580" y="91" type="line"/>
			<point x="576" y="35"/>
			<point x="520" y="24"/>
			<point x="485" y="24" type="curve"/>
			<point x="367" y="24" type="line"/>
			<point x="412" y="62"/>
			<point x="524" y="154"/>
			<point x="525" y="155" type="curve"/>
			<point x="551" y="177"/>
			<point x="569" y="213"/>
			<point x="569" y="249" type="curve"/>
			<point x="569" y="268"/>
			<point x="564" y="288"/>
			<point x="551" y="305" type="curve"/>
			<point x="532" y="333"/>
			<point x="501" y="350"/>
			<point x="469" y="350" type="curve"/>
			<point x="436" y="350"/>
			<point x="406" y="337"/>
			<point x="378" y="317" type="curve"/>
			<point x="370" y="326"/>
			<point x="365" y="335"/>
			<point x="362" y="355" type="curve"/>
			<point x="356" y="355" type="line"/>
			<point x="363" y="332"/>
			<point x="365" y="313"/>
			<point x="365" y="294" type="curve"/>
			<point x="365" y="270"/>
			<point x="361" y="247"/>
			<point x="356" y="221" type="curve"/>
			<point x="362" y="221" type="line"/>
			<point x="363" y="227"/>
			<point x="380" y="332"/>
			<point x="439" y="334" type="curve"/>
			<point x="465" y="334"/>
			<point x="495" y="322"/>
			<point x="520" y="287" type="curve"/>
			<point x="532" y="269"/>
			<point x="539" y="245"/>
			<point x="539" y="222" type="curve"/>
			<point x="539" y="199"/>
			<point x="532" y="177"/>
			<point x="517" y="164" type="curve"/>
		</contour>
		<contour>
			<point x="89" y="417" type="curve"/>
			<point x="89" y="411" type="line"/>
			<point x="125" y="420"/>
			<point x="135" y="420"/>
			<point x="154" y="420" type="curve"/>
			<point x="171" y="420"/>
			<point x="220" y="411"/>
			<point x="222" y="411" type="curve"/>
			<point x="222" y="417" type="line"/>
			<point x="171" y="425"/>
			<point x="171" y="458"/>
			<point x="171" y="518" type="curve"/>
			<point x="171" y="750" type="line"/>
			<point x="145" y="750" type="line" smooth="yes"/>
			<point x="141" y="750"/>
			<point x="132" y="739"/>
			<point x="75" y="723" type="curve"/>
			<point x="75" y="717" type="line"/>
			<point x="139" y="728" type="line"/>
			<point x="140" y="517" type="line" smooth="yes"/>
			<point x="140" y="457"/>
			<point x="139" y="425"/>
		</contour>
	</outline>
</glyph>
<glyph name="Ccedilla" format="2">
	<advance width="908"/>
	<unicode hex="00C7"/>
	<note>
		Ccedilla
  </note>
	<outline>
		<contour>
			<point x="367" y="-266" type="curve"/>
			<point x="367" y="-266" type="line"/>
			<point x="392" y="-266" type="line" smooth="yes"/>
			<point x="478" y="-266"/>
			<point x="581" y="-157"/>
			<point x="581" y="-78" type="curve"/>
			<point x="581" y="-62"/>
			<point x="556" y="-49"/>
			<point x="522" y="-49" type="curve"/>
			<point x="430" y="-49"/>
			<point x="421" y="-61"/>
			<point x="421" y="-61" type="curve"/>
			<point x="459" y="-6" type="line"/>
			<point x="546" y="-11"/>
			<point x="635" y="11"/>
			<point x="712" y="65" type="curve"/>
			<point x="701" y="81" type="line"/>
			<point x="653" y="47"/>
			<point x="595" y="32"/>
			<point x="536" y="32" type="curve"/>
			<point x="412" y="32"/>
			<point x="281" y="98"/>
			<point x="209" y="199" type="curve"/>
			<point x="162" y="265"/>
			<point x="137" y="355"/>
			<point x="137" y="443" type="curve"/>
			<point x="137" y="552"/>
			<point x="175" y="659"/>
			<point x="259" y="719" type="curve"/>
			<point x="309" y="754"/>
			<point x="366" y="770"/>
			<point x="426" y="770" type="curve"/>
			<point x="590" y="770"/>
			<point x="765" y="649"/>
			<point x="814" y="488" type="curve"/>
			<point x="826" y="488" type="line"/>
			<point x="826" y="491"/>
			<point x="808" y="600"/>
			<point x="808" y="637" type="curve"/>
			<point x="808" y="679"/>
			<point x="808" y="701"/>
			<point x="826" y="780" type="curve"/>
			<point x="814" y="780" type="line"/>
			<point x="807" y="737"/>
			<point x="793" y="705"/>
			<point x="769" y="683" type="curve"/>
			<point x="693" y="762"/>
			<point x="587" y="805"/>
			<point x="478" y="805" type="curve"/>
			<point x="400" y="805"/>
			<point x="320" y="782"/>
			<point x="250" y="733" type="curve"/>
			<point x="143" y="658"/>
			<point x="82" y="526"/>
			<point x="82" y="394" type="curve"/>
			<point x="82" y="312"/>
			<point x="105" y="230"/>
			<point x="155" y="160" type="curve"/>
			<point x="212" y="78"/>
			<point x="300" y="23"/>
			<point x="395" y="2" type="curve"/>
			<point x="346" y="-90" type="line"/>
			<point x="376" y="-79"/>
			<point x="431" y="-68"/>
			<point x="467" y="-68" type="curve"/>
			<point x="489" y="-68"/>
			<point x="505" y="-72"/>
			<point x="505" y="-83" type="curve"/>
			<point x="505" y="-190"/>
			<point x="407" y="-262"/>
		</contour>
	</outline>
</glyph>
<glyph name="Edieresis" format="2">
	<advance width="898"/>
	<unicode hex="00CB"/>
	<note>
		Edieresis
  </note>
	<outline>
		<contour>
			<point x="479" y="-6" type="curve"/>
			<point x="479" y="-6" type="line"/>
			<point x="558" y="-6"/>
			<point x="638" y="17"/>
			<point x="707" y="66" type="curve"/>
			<point x="696" y="82" type="line"/>
			<point x="648" y="48"/>
			<point x="590" y="33"/>
			<point x="531" y="33" type="curve"/>
			<point x="407" y="33"/>
			<point x="276" y="99"/>
			<point x="204" y="200" type="curve"/>
			<point x="165" y="254"/>
			<point x="141" y="335"/>
			<point x="134" y="404" type="curve"/>
			<point x="926" y="404" type="line"/>
			<point x="926" y="418" type="line"/>
			<point x="133" y="418" type="line"/>
			<point x="132" y="429"/>
			<point x="132" y="440"/>
			<point x="132" y="452" type="curve"/>
			<point x="132" y="556"/>
			<point x="170" y="658"/>
			<point x="254" y="719" type="curve"/>
			<point x="304" y="754"/>
			<point x="361" y="770"/>
			<point x="421" y="770" type="curve"/>
			<point x="585" y="770"/>
			<point x="760" y="649"/>
			<point x="809" y="488" type="curve"/>
			<point x="821" y="488" type="line"/>
			<point x="821" y="491"/>
			<point x="803" y="600"/>
			<point x="803" y="637" type="curve"/>
			<point x="803" y="679"/>
			<point x="803" y="701"/>
			<point x="821" y="780" type="curve"/>
			<point x="809" y="780" type="line"/>
			<point x="802" y="737"/>
			<point x="788" y="705"/>
			<point x="764" y="683" type="curve"/>
			<point x="688" y="762"/>
			<point x="582" y="805"/>
			<point x="473" y="805" type="curve"/>
			<point x="395" y="805"/>
			<point x="315" y="782"/>
			<point x="245" y="733" type="curve"/>
			<point x="138" y="658"/>
			<point x="77" y="527"/>
			<point x="77" y="394" type="curve"/>
			<point x="77" y="313"/>
			<point x="100" y="231"/>
			<point x="150" y="161" type="curve"/>
			<point x="225" y="54"/>
			<point x="351" y="-6"/>
		</contour>
		<contour>
			<point x="372" y="843" type="curve"/>
			<point x="372" y="843" type="line"/>
			<point x="400" y="843"/>
			<point x="423" y="865"/>
			<point x="423" y="893" type="curve"/>
			<point x="423" y="921"/>
			<point x="400" y="944"/>
			<point x="372" y="944" type="curve"/>
			<point x="344" y="944"/>
			<point x="322" y="921"/>
			<point x="322" y="893" type="curve"/>
			<point x="322" y="865"/>
			<point x="344" y="843"/>
		</contour>
		<contour>
			<point x="572" y="843" type="curve"/>
			<point x="572" y="843" type="line"/>
			<point x="600" y="843"/>
			<point x="623" y="865"/>
			<point x="623" y="893" type="curve"/>
			<point x="623" y="921"/>
			<point x="600" y="944"/>
			<point x="572" y="944" type="curve"/>
			<point x="544" y="944"/>
			<point x="522" y="921"/>
			<point x="522" y="893" type="curve"/>
			<point x="522" y="865"/>
			<point x="544" y="843"/>
		</contour>
	</outline>
</glyph>
<glyph name="Igrave" format="2">
	<advance width="396"/>
	<unicode hex="00CC"/>
	<note>
		Igrave
  </note>
	<outline>
		<contour>
			<point x="52" y="15" type="curve"/>
			<point x="52" y="3" type="line"/>
			<point x="131" y="21"/>
			<point x="153" y="21"/>
			<point x="195" y="21" type="curve"/>
			<point x="232" y="21"/>
			<point x="341" y="3"/>
			<point x="344" y="3" type="curve"/>
			<point x="344" y="15" type="line"/>
			<point x="233" y="32"/>
			<point x="232" y="105"/>
			<point x="232" y="236" type="curve"/>
			<point x="232" y="532" type="line" smooth="yes"/>
			<point x="232" y="663"/>
			<point x="233" y="736"/>
			<point x="344" y="753" type="curve"/>
			<point x="344" y="765" type="line"/>
			<point x="341" y="765"/>
			<point x="232" y="747"/>
			<point x="195" y="747" type="curve"/>
			<point x="153" y="747"/>
			<point x="131" y="747"/>
			<point x="52" y="765" type="curve"/>
			<point x="52" y="753" type="line"/>
			<point x="163" y="736"/>
			<point x="164" y="665"/>
			<point x="164" y="534" type="curve"/>
			<point x="164" y="234" type="line" smooth="yes"/>
			<point x="164" y="103"/>
			<point x="163" y="32"/>
		</contour>
		<contour>
			<point x="122" y="917" type="curve"/>
			<point x="306" y="842" type="line"/>
			<point x="317" y="854" type="line"/>
			<point x="138" y="965" type="line"/>
			<point x="139" y="964"/>
			<point x="127" y="973"/>
			<point x="115" y="973" type="curve"/>
			<point x="108" y="973"/>
			<point x="100" y="969"/>
			<point x="95" y="958" type="curve"/>
			<point x="93" y="954"/>
			<point x="92" y="950"/>
			<point x="92" y="946" type="curve"/>
			<point x="92" y="924"/>
			<point x="122" y="917"/>
		</contour>
	</outline>
</glyph>
<glyph name="Icircumflex" format="2">
	<advance width="469"/>
	<unicode hex="00CE"/>
	<note>
		Icircumflex
  </note>
	<outline>
		<contour>
			<point x="86" y="15" type="curve"/>
			<point x="86" y="3" type="line"/>
			<point x="165" y="21"/>
			<point x="187" y="21"/>
			<point x="229" y="21" type="curve"/>
			<point x="266" y="21"/>
			<point x="375" y="3"/>
			<point x="378" y="3" type="curve"/>
			<point x="378" y="15" type="line"/>
			<point x="267" y="32"/>
			<point x="266" y="105"/>
			<point x="266" y="236" type="curve"/>
			<point x="266" y="532" type="line" smooth="yes"/>
			<point x="266" y="663"/>
			<point x="267" y="736"/>
			<point x="378" y="753" type="curve"/>
			<point x="378" y="765" type="line"/>
			<point x="375" y="765"/>
			<point x="266" y="747"/>
			<point x="229" y="747" type="curve"/>
			<point x="187" y="747"/>
			<point x="165" y="747"/>
			<point x="86" y="765" type="curve"/>
			<point x="86" y="753" type="line"/>
			<point x="197" y="736"/>
			<point x="198" y="665"/>
			<point x="198" y="534" type="curve"/>
			<point x="198" y="234" type="line" smooth="yes"/>
			<point x="198" y="103"/>
			<point x="197" y="32"/>
		</contour>
		<contour>
			<point x="37" y="854" type="line"/>
			<point x="48" y="842" type="line"/>
			<point x="237" y="917" type="line"/>
			<point x="421" y="842" type="line"/>
			<point x="432" y="854" type="line"/>
			<point x="235" y="978" type="line"/>
		</contour>
	</outline>
</glyph>
<glyph name="Idieresis" format="2">
	<advance width="405"/>
	<unicode hex="00CF"/>
	<note>
		Idieresis
  </note>
	<outline>
		<contour>
			<point x="55" y="15" type="curve"/>
			<point x="55" y="3" type="line"/>
			<point x="134" y="21"/>
			<point x="156" y="21"/>
			<point x="198" y="21" type="curve"/>
			<point x="235" y="21"/>
			<point x="344" y="3"/>
			<point x="347" y="3" type="curve"/>
			<point x="347" y="15" type="line"/>
			<point x="236" y="32"/>
			<point x="235" y="105"/>
			<point x="235" y="236" type="curve"/>
			<point x="235" y="532" type="line" smooth="yes"/>
			<point x="235" y="663"/>
			<point x="236" y="736"/>
			<point x="347" y="753" type="curve"/>
			<point x="347" y="765" type="line"/>
			<point x="344" y="765"/>
			<point x="235" y="747"/>
			<point x="198" y="747" type="curve"/>
			<point x="156" y="747"/>
			<point x="134" y="747"/>
			<point x="55" y="765" type="curve"/>
			<point x="55" y="753" type="line"/>
			<point x="166" y="736"/>
			<point x="167" y="665"/>
			<point x="167" y="534" type="curve"/>
			<point x="167" y="234" type="line" smooth="yes"/>
			<point x="167" y="103"/>
			<point x="166" y="32"/>
		</contour>
		<contour>
			<point x="102" y="843" type="curve"/>
			<point x="102" y="843" type="line"/>
			<point x="130" y="843"/>
			<point x="153" y="865"/>
			<point x="153" y="893" type="curve"/>
			<point x="153" y="921"/>
			<point x="130" y="944"/>
			<point x="102" y="944" type="curve"/>
			<point x="74" y="944"/>
			<point x="52" y="921"/>
			<point x="52" y="893" type="curve"/>
			<point x="52" y="865"/>
			<point x="74" y="843"/>
		</contour>
		<contour>
			<point x="302" y="843" type="curve"/>
			<point x="302" y="843" type="line"/>
			<point x="330" y="843"/>
			<point x="353" y="865"/>
			<point x="353" y="893" type="curve"/>
			<point x="353" y="921"/>
			<point x="330" y="944"/>
			<point x="302" y="944" type="curve"/>
			<point x="274" y="944"/>
			<point x="252" y="921"/>
			<point x="252" y="893" type="curve"/>
			<point x="252" y="865"/>
			<point x="274" y="843"/>
		</contour>
	</outline>
</glyph>
<glyph name="Ntilde" format="2">
	<advance width="1595"/>
	<unicode hex="00D1"/>
	<note>
		Ntilde
  </note>
	<outline>
		<contour>
			<point x="72" y="12" type="curve"/>
			<point x="72" y="0" type="line"/>
			<point x="75" y="0"/>
			<point x="154" y="18"/>
			<point x="191" y="18" type="curve"/>
			<point x="233" y="18"/>
			<point x="225" y="18"/>
			<point x="304" y="0" type="curve"/>
			<point x="304" y="12" type="line"/>
			<point x="255" y="19"/>
			<point x="237" y="34"/>
			<point x="237" y="57" type="curve"/>
			<point x="237" y="87"/>
			<point x="267" y="131"/>
			<point x="299" y="191" type="curve"/>
			<point x="566" y="724" type="line"/>
			<point x="972" y="0" type="line"/>
			<point x="1022" y="0" type="line"/>
			<point x="1315" y="554" type="line" smooth="yes"/>
			<point x="1369" y="652"/>
			<point x="1412" y="738"/>
			<point x="1523" y="755" type="curve"/>
			<point x="1523" y="767" type="line"/>
			<point x="1520" y="767"/>
			<point x="1441" y="749"/>
			<point x="1404" y="749" type="curve"/>
			<point x="1362" y="749"/>
			<point x="1370" y="749"/>
			<point x="1291" y="767" type="curve"/>
			<point x="1291" y="755" type="line"/>
			<point x="1340" y="748"/>
			<point x="1358" y="730"/>
			<point x="1358" y="703" type="curve"/>
			<point x="1358" y="669"/>
			<point x="1328" y="620"/>
			<point x="1296" y="560" type="curve"/>
			<point x="1017" y="31" type="line"/>
			<point x="586" y="806" type="line"/>
			<point x="280" y="197" type="line"/>
			<point x="226" y="99"/>
			<point x="183" y="29"/>
		</contour>
		<contour>
			<point x="779" y="815" type="curve"/>
			<point x="796" y="813" type="line"/>
			<point x="796" y="840"/>
			<point x="850" y="895"/>
			<point x="900" y="895" type="curve"/>
			<point x="951" y="895"/>
			<point x="992" y="813"/>
			<point x="1069" y="813" type="curve"/>
			<point x="1137" y="813"/>
			<point x="1196" y="925"/>
			<point x="1196" y="925" type="curve"/>
			<point x="1185" y="939" type="line"/>
			<point x="1185" y="939"/>
			<point x="1121" y="854"/>
			<point x="1066" y="854" type="curve"/>
			<point x="1010" y="854"/>
			<point x="983" y="943"/>
			<point x="901" y="943" type="curve"/>
			<point x="803" y="943"/>
			<point x="779" y="815"/>
		</contour>
	</outline>
</glyph>
<glyph name="Oslash" format="2">
	<advance width="962"/>
	<unicode hex="00D8"/>
	<note>
		Oslash
  </note>
	<outline>
		<contour>
			<point x="236" y="8" type="line"/>
			<point x="248" y="1" type="line"/>
			<point x="285" y="59" type="line"/>
			<point x="345" y="26"/>
			<point x="414" y="8"/>
			<point x="483" y="8" type="curve"/>
			<point x="562" y="8"/>
			<point x="642" y="31"/>
			<point x="712" y="80" type="curve"/>
			<point x="819" y="156"/>
			<point x="880" y="281"/>
			<point x="880" y="409" type="curve"/>
			<point x="880" y="488"/>
			<point x="857" y="568"/>
			<point x="807" y="638" type="curve"/>
			<point x="782" y="674"/>
			<point x="751" y="704"/>
			<point x="716" y="729" type="curve"/>
			<point x="764" y="802" type="line"/>
			<point x="751" y="809" type="line"/>
			<point x="705" y="737" type="line"/>
			<point x="638" y="781"/>
			<point x="559" y="805"/>
			<point x="479" y="805" type="curve"/>
			<point x="400" y="805"/>
			<point x="320" y="782"/>
			<point x="250" y="733" type="curve"/>
			<point x="143" y="658"/>
			<point x="82" y="532"/>
			<point x="82" y="404" type="curve"/>
			<point x="82" y="325"/>
			<point x="105" y="245"/>
			<point x="155" y="175" type="curve"/>
			<point x="186" y="130"/>
			<point x="227" y="93"/>
			<point x="273" y="66" type="curve"/>
		</contour>
		<contour>
			<point x="670" y="683" type="curve"/>
			<point x="307" y="119" type="line"/>
			<point x="269" y="145"/>
			<point x="235" y="177"/>
			<point x="209" y="214" type="curve"/>
			<point x="162" y="280"/>
			<point x="137" y="366"/>
			<point x="137" y="451" type="curve"/>
			<point x="137" y="557"/>
			<point x="176" y="660"/>
			<point x="259" y="719" type="curve"/>
			<point x="307" y="753"/>
			<point x="365" y="768"/>
			<point x="424" y="768" type="curve"/>
			<point x="510" y="768"/>
			<point x="600" y="736"/>
		</contour>
		<contour>
			<point x="536" y="47" type="curve"/>
			<point x="536" y="47" type="line"/>
			<point x="462" y="47"/>
			<point x="385" y="71"/>
			<point x="319" y="112" type="curve"/>
			<point x="682" y="675" type="line"/>
			<point x="709" y="653"/>
			<point x="733" y="627"/>
			<point x="753" y="600" type="curve"/>
			<point x="800" y="534"/>
			<point x="824" y="449"/>
			<point x="824" y="365" type="curve"/>
			<point x="824" y="259"/>
			<point x="785" y="156"/>
			<point x="701" y="96" type="curve"/>
			<point x="653" y="62"/>
			<point x="595" y="47"/>
		</contour>
	</outline>
</glyph>
<glyph name="Ugrave" format="2">
	<advance width="1149"/>
	<unicode hex="00D9"/>
	<note>
		Ugrave
  </note>
	<outline>
		<contour>
			<point x="562" y="-12" type="curve"/>
			<point x="562" y="-12" type="line"/>
			<point x="796" y="-12"/>
			<point x="949" y="123"/>
			<point x="949" y="400" type="curve"/>
			<point x="949" y="536" type="line" smooth="yes"/>
			<point x="949" y="667"/>
			<point x="961" y="736"/>
			<point x="1072" y="753" type="curve"/>
			<point x="1072" y="765" type="line"/>
			<point x="1069" y="765"/>
			<point x="977" y="747"/>
			<point x="940" y="747" type="curve"/>
			<point x="898" y="747"/>
			<point x="896" y="747"/>
			<point x="817" y="765" type="curve"/>
			<point x="817" y="753" type="line"/>
			<point x="928" y="736"/>
			<point x="936" y="666"/>
			<point x="935" y="535" type="curve"/>
			<point x="935" y="400" type="line" smooth="yes"/>
			<point x="935" y="157"/>
			<point x="813" y="0"/>
			<point x="561" y="0" type="curve"/>
			<point x="379" y="0"/>
			<point x="257" y="127"/>
			<point x="257" y="396" type="curve"/>
			<point x="257" y="532" type="line" smooth="yes"/>
			<point x="257" y="663"/>
			<point x="258" y="736"/>
			<point x="369" y="753" type="curve"/>
			<point x="369" y="765" type="line"/>
			<point x="366" y="765"/>
			<point x="257" y="747"/>
			<point x="220" y="747" type="curve"/>
			<point x="178" y="747"/>
			<point x="156" y="747"/>
			<point x="77" y="765" type="curve"/>
			<point x="77" y="753" type="line"/>
			<point x="188" y="736"/>
			<point x="190" y="665"/>
			<point x="189" y="534" type="curve"/>
			<point x="188" y="395" type="line" smooth="yes"/>
			<point x="188" y="103"/>
			<point x="351" y="-12"/>
		</contour>
		<contour>
			<point x="512" y="917" type="curve"/>
			<point x="696" y="842" type="line"/>
			<point x="707" y="854" type="line"/>
			<point x="528" y="965" type="line"/>
			<point x="529" y="964"/>
			<point x="517" y="973"/>
			<point x="505" y="973" type="curve"/>
			<point x="498" y="973"/>
			<point x="490" y="969"/>
			<point x="485" y="958" type="curve"/>
			<point x="483" y="954"/>
			<point x="482" y="950"/>
			<point x="482" y="946" type="curve"/>
			<point x="482" y="924"/>
			<point x="512" y="917"/>
		</contour>
	</outline>
</glyph>
<glyph name="Ucircumflex" format="2">
	<advance width="1149"/>
	<unicode hex="00DB"/>
	<note>
		Ucircumflex
  </note>
	<outline>
		<contour>
			<point x="562" y="-12" type="curve"/>
			<point x="562" y="-12" type="line"/>
			<point x="796" y="-12"/>
			<point x="949" y="123"/>
			<point x="949" y="400" type="curve"/>
			<point x="949" y="536" type="line" smooth="yes"/>
			<point x="949" y="667"/>
			<point x="961" y="736"/>
			<point x="1072" y="753" type="curve"/>
			<point x="1072" y="765" type="line"/>
			<point x="1069" y="765"/>
			<point x="977" y="747"/>
			<point x="940" y="747" type="curve"/>
			<point x="898" y="747"/>
			<point x="896" y="747"/>
			<point x="817" y="765" type="curve"/>
			<point x="817" y="753" type="line"/>
			<point x="928" y="736"/>
			<point x="936" y="666"/>
			<point x="935" y="535" type="curve"/>
			<point x="935" y="400" type="line" smooth="yes"/>
			<point x="935" y="157"/>
			<point x="813" y="0"/>
			<point x="561" y="0" type="curve"/>
			<point x="379" y="0"/>
			<point x="257" y="127"/>
			<point x="257" y="396" type="curve"/>
			<point x="257" y="532" type="line" smooth="yes"/>
			<point x="257" y="663"/>
			<point x="258" y="736"/>
			<point x="369" y="753" type="curve"/>
			<point x="369" y="765" type="line"/>
			<point x="366" y="765"/>
			<point x="257" y="747"/>
			<point x="220" y="747" type="curve"/>
			<point x="178" y="747"/>
			<point x="156" y="747"/>
			<point x="77" y="765" type="curve"/>
			<point x="77" y="753" type="line"/>
			<point x="188" y="736"/>
			<point x="190" y="665"/>
			<point x="189" y="534" type="curve"/>
			<point x="188" y="395" type="line" smooth="yes"/>
			<point x="188" y="103"/>
			<point x="351" y="-12"/>
		</contour>
		<contour>
			<point x="398" y="854" type="line"/>
			<point x="409" y="842" type="line"/>
			<point x="598" y="917" type="line"/>
			<point x="782" y="842" type="line"/>
			<point x="793" y="854" type="line"/>
			<point x="596" y="978" type="line"/>
		</contour>
	</outline>
</glyph>
<glyph name="Udieresis" format="2">
	<advance width="1149"/>
	<unicode hex="00DC"/>
	<note>
		Udieresis
  </note>
	<outline>
		<contour>
			<point x="562" y="-12" type="curve"/>
			<point x="562" y="-12" type="line"/>
			<point x="796" y="-12"/>
			<point x="949" y="123"/>
			<point x="949" y="400" type="curve"/>
			<point x="949" y="536" type="line" smooth="yes"/>
			<point x="949" y="667"/>
			<point x="961" y="736"/>
			<point x="1072" y="753" type="curve"/>
			<point x="1072" y="765" type="line"/>
			<point x="1069" y="765"/>
			<point x="977" y="747"/>
			<point x="940" y="747" type="curve"/>
			<point x="898" y="747"/>
			<point x="896" y="747"/>
			<point x="817" y="765" type="curve"/>
			<point x="817" y="753" type="line"/>
			<point x="928" y="736"/>
			<point x="936" y="666"/>
			<point x="935" y="535" type="curve"/>
			<point x="935" y="400" type="line" smooth="yes"/>
			<point x="935" y="157"/>
			<point x="813" y="0"/>
			<point x="561" y="0" type="curve"/>
			<point x="379" y="0"/>
			<point x="257" y="127"/>
			<point x="257" y="396" type="curve"/>
			<point x="257" y="532" type="line" smooth="yes"/>
			<point x="257" y="663"/>
			<point x="258" y="736"/>
			<point x="369" y="753" type="curve"/>
			<point x="369" y="765" type="line"/>
			<point x="366" y="765"/>
			<point x="257" y="747"/>
			<point x="220" y="747" type="curve"/>
			<point x="178" y="747"/>
			<point x="156" y="747"/>
			<point x="77" y="765" type="curve"/>
			<point x="77" y="753" type="line"/>
			<point x="188" y="736"/>
			<point x="190" y="665"/>
			<point x="189" y="534" type="curve"/>
			<point x="188" y="395" type="line" smooth="yes"/>
			<point x="188" y="103"/>
			<point x="351" y="-12"/>
		</contour>
		<contour>
			<point x="485" y="843" type="curve"/>
			<point x="485" y="843" type="line"/>
			<point x="513" y="843"/>
			<point x="536" y="865"/>
			<point x="536" y="893" type="curve"/>
			<point x="536" y="921"/>
			<point x="513" y="944"/>
			<point x="485" y="944" type="curve"/>
			<point x="457" y="944"/>
			<point x="435" y="921"/>
			<point x="435" y="893" type="curve"/>
			<point x="435" y="865"/>
			<point x="457" y="843"/>
		</contour>
		<contour>
			<point x="685" y="843" type="curve"/>
			<point x="685" y="843" type="line"/>
			<point x="713" y="843"/>
			<point x="736" y="865"/>
			<point x="736" y="893" type="curve"/>
			<point x="736" y="921"/>
			<point x="713" y="944"/>
			<point x="685" y="944" type="curve"/>
			<point x="657" y="944"/>
			<point x="635" y="921"/>
			<point x="635" y="893" type="curve"/>
			<point x="635" y="865"/>
			<point x="657" y="843"/>
		</contour>
	</outline>
</glyph>
<glyph name="Yacute" format="2">
	<advance width="1009"/>
	<unicode hex="00DD"/>
	<note>
		Yacute
  </note>
	<outline>
		<contour>
			<point x="-158" y="-805" type="curve"/>
			<point x="-158" y="-817" type="line"/>
			<point x="-79" y="-799"/>
			<point x="-57" y="-799"/>
			<point x="-15" y="-799" type="curve"/>
			<point x="22" y="-799"/>
			<point x="131" y="-817"/>
			<point x="134" y="-817" type="curve"/>
			<point x="134" y="-805" type="line"/>
			<point x="85" y="-797"/>
			<point x="66" y="-776"/>
			<point x="66" y="-745" type="curve"/>
			<point x="66" y="-705"/>
			<point x="95" y="-651"/>
			<point x="131" y="-589" type="curve"/>
			<point x="932" y="770" type="line"/>
			<point x="70" y="770" type="line"/>
			<point x="442" y="64" type="line"/>
			<point x="445" y="64"/>
			<point x="217" y="-330"/>
			<point x="68" y="-586" type="curve"/>
			<point x="-3" y="-698"/>
			<point x="-47" y="-788"/>
		</contour>
		<contour>
			<point x="852" y="748" type="line"/>
			<point x="455" y="82" type="line"/>
			<point x="100" y="747" type="line"/>
		</contour>
		<contour>
			<point x="402" y="857" type="line"/>
			<point x="413" y="845" type="line"/>
			<point x="597" y="920" type="line"/>
			<point x="597" y="920"/>
			<point x="627" y="927"/>
			<point x="627" y="949" type="curve"/>
			<point x="627" y="953"/>
			<point x="626" y="957"/>
			<point x="624" y="961" type="curve"/>
			<point x="619" y="972"/>
			<point x="611" y="976"/>
			<point x="604" y="976" type="curve"/>
			<point x="592" y="976"/>
			<point x="580" y="967"/>
			<point x="581" y="968" type="curve"/>
		</contour>
	</outline>
</glyph>
<glyph name="Thorn" format="2">
	<advance width="667"/>
	<unicode hex="00DE"/>
	<note>
		Thorn
  </note>
	<outline>
		<contour>
			<point x="136" y="1" type="line"/>
			<point x="210" y="0" type="line"/>
			<point x="205" y="161" type="line"/>
			<point x="267" y="112"/>
			<point x="323" y="114"/>
			<point x="384" y="114" type="curve"/>
			<point x="429" y="114"/>
			<point x="475" y="127"/>
			<point x="514" y="155" type="curve"/>
			<point x="576" y="199"/>
			<point x="611" y="272"/>
			<point x="611" y="345" type="curve"/>
			<point x="611" y="391"/>
			<point x="598" y="437"/>
			<point x="569" y="477" type="curve"/>
			<point x="525" y="539"/>
			<point x="453" y="574"/>
			<point x="380" y="574" type="curve"/>
			<point x="334" y="574"/>
			<point x="288" y="561"/>
			<point x="247" y="532" type="curve"/>
			<point x="231" y="521"/>
			<point x="217" y="508"/>
			<point x="205" y="493" type="curve"/>
			<point x="205" y="623" type="line" smooth="yes"/>
			<point x="205" y="640"/>
			<point x="205" y="722"/>
			<point x="215" y="760" type="curve"/>
			<point x="186" y="760" type="line"/>
			<point x="141" y="726"/>
			<point x="93" y="708"/>
			<point x="26" y="708" type="curve"/>
			<point x="26" y="696" type="line"/>
			<point x="135" y="679"/>
			<point x="137" y="665"/>
			<point x="137" y="539" type="curve"/>
			<point x="137" y="349" type="line"/>
		</contour>
		<contour>
			<point x="419" y="154" type="curve"/>
			<point x="419" y="154" type="line"/>
			<point x="341" y="154"/>
			<point x="244" y="199"/>
			<point x="206" y="255" type="curve"/>
			<point x="206" y="391" type="line"/>
			<point x="204" y="441"/>
			<point x="218" y="488"/>
			<point x="256" y="517" type="curve"/>
			<point x="276" y="532"/>
			<point x="300" y="538"/>
			<point x="324" y="538" type="curve"/>
			<point x="390" y="538"/>
			<point x="463" y="492"/>
			<point x="502" y="436" type="curve"/>
			<point x="529" y="395"/>
			<point x="547" y="342"/>
			<point x="547" y="292" type="curve"/>
			<point x="547" y="245"/>
			<point x="532" y="202"/>
			<point x="495" y="175" type="curve"/>
			<point x="475" y="160"/>
			<point x="448" y="154"/>
		</contour>
	</outline>
</glyph>
<glyph name="atilde" format="2">
	<advance width="538"/>
	<unicode hex="00E3"/>
	<note>
		atilde
  </note>
	<outline>
		<contour>
			<point x="162" y="-7" type="curve"/>
			<point x="162" y="-7" type="line"/>
			<point x="221" y="-7"/>
			<point x="325" y="67"/>
			<point x="330" y="81" type="curve"/>
			<point x="330" y="59"/>
			<point x="330" y="0"/>
			<point x="387" y="0" type="curve"/>
			<point x="480" y="0"/>
			<point x="524" y="65"/>
			<point x="527" y="65" type="curve"/>
			<point x="511" y="83" type="line"/>
			<point x="503" y="74"/>
			<point x="453" y="49"/>
			<point x="435" y="49" type="curve"/>
			<point x="411" y="49"/>
			<point x="395" y="72"/>
			<point x="395" y="175" type="curve"/>
			<point x="395" y="325" type="line" smooth="yes"/>
			<point x="395" y="429"/>
			<point x="326" y="460"/>
			<point x="247" y="460" type="curve"/>
			<point x="140" y="460"/>
			<point x="55" y="410"/>
			<point x="55" y="351" type="curve"/>
			<point x="123" y="306" type="line"/>
			<point x="123" y="392"/>
			<point x="171" y="441"/>
			<point x="216" y="441" type="curve"/>
			<point x="275" y="441"/>
			<point x="330" y="390"/>
			<point x="330" y="298" type="curve"/>
			<point x="242" y="273" type="line" smooth="yes"/>
			<point x="95" y="231"/>
			<point x="52" y="183"/>
			<point x="52" y="104" type="curve"/>
			<point x="52" y="24"/>
			<point x="102" y="-7"/>
		</contour>
		<contour>
			<point x="219" y="49" type="curve"/>
			<point x="219" y="49" type="line"/>
			<point x="158" y="47"/>
			<point x="111" y="70"/>
			<point x="111" y="147" type="curve"/>
			<point x="111" y="207"/>
			<point x="167" y="233"/>
			<point x="229" y="250" type="curve"/>
			<point x="330" y="278" type="line"/>
			<point x="330" y="278"/>
			<point x="330" y="260"/>
			<point x="330" y="236" type="curve"/>
			<point x="330" y="187"/>
			<point x="330" y="115"/>
			<point x="330" y="115" type="curve"/>
			<point x="330" y="97"/>
			<point x="255" y="50"/>
		</contour>
		<contour>
			<point x="24" y="547" type="curve"/>
			<point x="41" y="545" type="line"/>
			<point x="41" y="572"/>
			<point x="95" y="627"/>
			<point x="145" y="627" type="curve"/>
			<point x="196" y="627"/>
			<point x="237" y="545"/>
			<point x="314" y="545" type="curve"/>
			<point x="382" y="545"/>
			<point x="441" y="657"/>
			<point x="441" y="657" type="curve"/>
			<point x="430" y="671" type="line"/>
			<point x="430" y="671"/>
			<point x="366" y="586"/>
			<point x="311" y="586" type="curve"/>
			<point x="255" y="586"/>
			<point x="228" y="675"/>
			<point x="146" y="675" type="curve"/>
			<point x="48" y="675"/>
			<point x="24" y="547"/>
		</contour>
	</outline>
</glyph>
<glyph name="aring" format="2">
	<advance width="534"/>
	<unicode hex="00E5"/>
	<note>
		aring
  </note>
	<outline>
		<contour>
			<point x="158" y="-7" type="curve"/>
			<point x="158" y="-7" type="line"/>
			<point x="217" y="-7"/>
			<point x="321" y="67"/>
			<point x="326" y="81" type="curve"/>
			<point x="326" y="59"/>
			<point x="326" y="0"/>
			<point x="383" y="0" type="curve"/>
			<point x="476" y="0"/>
			<point x="520" y="65"/>
			<point x="523" y="65" type="curve"/>
			<point x="507" y="83" type="line"/>
			<point x="499" y="74"/>
			<point x="449" y="49"/>
			<point x="431" y="49" type="curve"/>
			<point x="407" y="49"/>
			<point x="391" y="72"/>
			<point x="391" y="175" type="curve"/>
			<point x="391" y="325" type="line" smooth="yes"/>
			<point x="391" y="429"/>
			<point x="322" y="460"/>
			<point x="243" y="460" type="curve"/>
			<point x="136" y="460"/>
			<point x="51" y="410"/>
			<point x="51" y="351" type="curve"/>
			<point x="119" y="306" type="line"/>
			<point x="119" y="392"/>
			<point x="167" y="441"/>
			<point x="212" y="441" type="curve"/>
			<point x="271" y="441"/>
			<point x="326" y="390"/>
			<point x="326" y="298" type="curve"/>
			<point x="238" y="273" type="line" smooth="yes"/>
			<point x="91" y="231"/>
			<point x="48" y="183"/>
			<point x="48" y="104" type="curve"/>
			<point x="48" y="24"/>
			<point x="98" y="-7"/>
		</contour>
		<contour>
			<point x="215" y="49" type="curve"/>
			<point x="215" y="49" type="line"/>
			<point x="154" y="47"/>
			<point x="107" y="70"/>
			<point x="107" y="147" type="curve"/>
			<point x="107" y="207"/>
			<point x="163" y="233"/>
			<point x="225" y="250" type="curve"/>
			<point x="326" y="278" type="line"/>
			<point x="326" y="278"/>
			<point x="326" y="260"/>
			<point x="326" y="236" type="curve"/>
			<point x="326" y="187"/>
			<point x="326" y="115"/>
			<point x="326" y="115" type="curve"/>
			<point x="326" y="97"/>
			<point x="251" y="50"/>
		</contour>
		<contour>
			<point x="238" y="555" type="curve"/>
			<point x="238" y="555" type="line"/>
			<point x="277" y="555"/>
			<point x="310" y="586"/>
			<point x="310" y="625" type="curve"/>
			<point x="310" y="664"/>
			<point x="277" y="697"/>
			<point x="238" y="697" type="curve"/>
			<point x="199" y="697"/>
			<point x="168" y="664"/>
			<point x="168" y="625" type="curve"/>
			<point x="168" y="586"/>
			<point x="199" y="555"/>
		</contour>
		<contour>
			<point x="238" y="575" type="curve"/>
			<point x="238" y="575" type="line"/>
			<point x="210" y="575"/>
			<point x="188" y="597"/>
			<point x="188" y="625" type="curve"/>
			<point x="188" y="653"/>
			<point x="210" y="676"/>
			<point x="238" y="676" type="curve"/>
			<point x="266" y="676"/>
			<point x="289" y="653"/>
			<point x="289" y="625" type="curve"/>
			<point x="289" y="597"/>
			<point x="266" y="575"/>
		</contour>
	</outline>
</glyph>
<glyph name="ccedilla" format="2">
	<advance width="536"/>
	<unicode hex="00E7"/>
	<note>
		ccedilla
  </note>
	<outline>
		<contour>
			<point x="198" y="-266" type="curve"/>
			<point x="198" y="-266" type="line"/>
			<point x="223" y="-266" type="line" smooth="yes"/>
			<point x="309" y="-266"/>
			<point x="412" y="-157"/>
			<point x="412" y="-78" type="curve"/>
			<point x="412" y="-62"/>
			<point x="387" y="-49"/>
			<point x="353" y="-49" type="curve"/>
			<point x="261" y="-49"/>
			<point x="252" y="-61"/>
			<point x="252" y="-61" type="curve"/>
			<point x="293" y="-7" type="line"/>
			<point x="340" y="-7"/>
			<point x="387" y="6"/>
			<point x="428" y="35" type="curve"/>
			<point x="464" y="65"/>
			<point x="468" y="72"/>
			<point x="477" y="90" type="curve"/>
			<point x="456" y="103" type="line"/>
			<point x="445" y="87"/>
			<point x="437" y="73"/>
			<point x="409" y="55" type="curve"/>
			<point x="389" y="41"/>
			<point x="366" y="35"/>
			<point x="341" y="35" type="curve"/>
			<point x="276" y="35"/>
			<point x="203" y="80"/>
			<point x="165" y="136" type="curve"/>
			<point x="137" y="175"/>
			<point x="119" y="229"/>
			<point x="119" y="280" type="curve"/>
			<point x="119" y="326"/>
			<point x="134" y="370"/>
			<point x="170" y="397" type="curve"/>
			<point x="190" y="412"/>
			<point x="214" y="418"/>
			<point x="238" y="418" type="curve"/>
			<point x="304" y="418"/>
			<point x="377" y="372"/>
			<point x="416" y="316" type="curve"/>
			<point x="475" y="355" type="line"/>
			<point x="439" y="428"/>
			<point x="373" y="459"/>
			<point x="305" y="459" type="curve"/>
			<point x="255" y="459"/>
			<point x="203" y="442"/>
			<point x="161" y="412" type="curve"/>
			<point x="99" y="368"/>
			<point x="63" y="296"/>
			<point x="63" y="222" type="curve"/>
			<point x="63" y="176"/>
			<point x="77" y="130"/>
			<point x="106" y="90" type="curve"/>
			<point x="136" y="47"/>
			<point x="179" y="17"/>
			<point x="227" y="3" type="curve"/>
			<point x="177" y="-90" type="line"/>
			<point x="207" y="-79"/>
			<point x="262" y="-68"/>
			<point x="298" y="-68" type="curve"/>
			<point x="320" y="-68"/>
			<point x="336" y="-72"/>
			<point x="336" y="-83" type="curve"/>
			<point x="336" y="-190"/>
			<point x="238" y="-262"/>
		</contour>
	</outline>
</glyph>
<glyph name="idieresis" format="2">
	<advance width="387"/>
	<unicode hex="00EF"/>
	<note>
		idieresis
  </note>
	<outline>
		<contour>
			<point x="47" y="15" type="curve"/>
			<point x="47" y="3" type="line"/>
			<point x="126" y="21"/>
			<point x="148" y="21"/>
			<point x="190" y="21" type="curve"/>
			<point x="227" y="21"/>
			<point x="336" y="3"/>
			<point x="339" y="3" type="curve"/>
			<point x="339" y="15" type="line"/>
			<point x="231" y="31"/>
			<point x="227" y="101"/>
			<point x="227" y="225" type="curve"/>
			<point x="226" y="442" type="line"/>
			<point x="207" y="442" type="line"/>
			<point x="162" y="408"/>
			<point x="114" y="388"/>
			<point x="47" y="388" type="curve"/>
			<point x="47" y="376" type="line"/>
			<point x="156" y="359"/>
			<point x="159" y="360"/>
			<point x="159" y="234" type="curve"/>
			<point x="159" y="103"/>
			<point x="158" y="32"/>
		</contour>
		<contour>
			<point x="96" y="574" type="curve"/>
			<point x="96" y="574" type="line"/>
			<point x="124" y="574"/>
			<point x="147" y="596"/>
			<point x="147" y="624" type="curve"/>
			<point x="147" y="652"/>
			<point x="124" y="675"/>
			<point x="96" y="675" type="curve"/>
			<point x="68" y="675"/>
			<point x="46" y="652"/>
			<point x="46" y="624" type="curve"/>
			<point x="46" y="596"/>
			<point x="68" y="574"/>
		</contour>
		<contour>
			<point x="296" y="574" type="curve"/>
			<point x="296" y="574" type="line"/>
			<point x="324" y="574"/>
			<point x="347" y="596"/>
			<point x="347" y="624" type="curve"/>
			<point x="347" y="652"/>
			<point x="324" y="675"/>
			<point x="296" y="675" type="curve"/>
			<point x="268" y="675"/>
			<point x="246" y="652"/>
			<point x="246" y="624" type="curve"/>
			<point x="246" y="596"/>
			<point x="268" y="574"/>
		</contour>
	</outline>
</glyph>
<glyph name="eth" format="2">
	<advance width="579"/>
	<unicode hex="00F0"/>
	<note>
		eth
  </note>
	<outline>
		<contour>
			<point x="290" y="-7" type="curve"/>
			<point x="290" y="-7" type="line"/>
			<point x="336" y="-7"/>
			<point x="381" y="7"/>
			<point x="421" y="35" type="curve"/>
			<point x="467" y="68"/>
			<point x="498" y="118"/>
			<point x="511" y="167" type="curve"/>
			<point x="526" y="212"/>
			<point x="533" y="262"/>
			<point x="533" y="310" type="curve"/>
			<point x="533" y="427"/>
			<point x="481" y="563"/>
			<point x="392" y="658" type="curve"/>
			<point x="472" y="715" type="line"/>
			<point x="464" y="726" type="line"/>
			<point x="382" y="668" type="line"/>
			<point x="316" y="735"/>
			<point x="231" y="780"/>
			<point x="132" y="780" type="curve"/>
			<point x="106" y="740" type="line"/>
			<point x="113" y="747"/>
			<point x="128" y="752"/>
			<point x="147" y="752" type="curve"/>
			<point x="227" y="752"/>
			<point x="300" y="711"/>
			<point x="357" y="651" type="curve"/>
			<point x="200" y="540" type="line"/>
			<point x="208" y="528" type="line"/>
			<point x="367" y="640" type="line"/>
			<point x="434" y="564"/>
			<point x="476" y="439"/>
			<point x="476" y="342" type="curve"/>
			<point x="451" y="404"/>
			<point x="359" y="459"/>
			<point x="286" y="459" type="curve"/>
			<point x="240" y="459"/>
			<point x="194" y="446"/>
			<point x="154" y="417" type="curve"/>
			<point x="92" y="373"/>
			<point x="56" y="299"/>
			<point x="56" y="224" type="curve"/>
			<point x="56" y="177"/>
			<point x="70" y="130"/>
			<point x="99" y="90" type="curve"/>
			<point x="144" y="29"/>
			<point x="216" y="-7"/>
		</contour>
		<contour>
			<point x="335" y="34" type="curve"/>
			<point x="335" y="34" type="line"/>
			<point x="269" y="34"/>
			<point x="196" y="80"/>
			<point x="158" y="136" type="curve"/>
			<point x="131" y="176"/>
			<point x="113" y="232"/>
			<point x="113" y="284" type="curve"/>
			<point x="113" y="331"/>
			<point x="128" y="375"/>
			<point x="163" y="402" type="curve"/>
			<point x="183" y="417"/>
			<point x="206" y="424"/>
			<point x="231" y="424" type="curve"/>
			<point x="296" y="424"/>
			<point x="370" y="377"/>
			<point x="409" y="321" type="curve"/>
			<point x="436" y="281"/>
			<point x="454" y="226"/>
			<point x="454" y="175" type="curve"/>
			<point x="454" y="127"/>
			<point x="439" y="82"/>
			<point x="402" y="55" type="curve"/>
			<point x="382" y="40"/>
			<point x="359" y="34"/>
		</contour>
	</outline>
</glyph>
<glyph name="oslash" format="2">
	<advance width="574"/>
	<unicode hex="00F8"/>
	<note>
		oslash
  </note>
	<outline>
		<contour>
			<point x="149" y="-32" type="line"/>
			<point x="161" y="-39" type="line"/>
			<point x="188" y="15" type="line"/>
			<point x="219" y="1"/>
			<point x="254" y="-7"/>
			<point x="288" y="-7" type="curve"/>
			<point x="334" y="-7"/>
			<point x="381" y="7"/>
			<point x="421" y="35" type="curve"/>
			<point x="483" y="79"/>
			<point x="518" y="153"/>
			<point x="518" y="229" type="curve"/>
			<point x="518" y="275"/>
			<point x="505" y="322"/>
			<point x="476" y="362" type="curve"/>
			<point x="456" y="390"/>
			<point x="429" y="413"/>
			<point x="400" y="430" type="curve"/>
			<point x="437" y="502" type="line"/>
			<point x="424" y="509" type="line"/>
			<point x="387" y="436" type="line"/>
			<point x="355" y="451"/>
			<point x="321" y="459"/>
			<point x="286" y="459" type="curve"/>
			<point x="240" y="459"/>
			<point x="194" y="445"/>
			<point x="154" y="417" type="curve"/>
			<point x="92" y="373"/>
			<point x="56" y="299"/>
			<point x="56" y="224" type="curve"/>
			<point x="56" y="177"/>
			<point x="70" y="130"/>
			<point x="99" y="90" type="curve"/>
			<point x="119" y="61"/>
			<point x="146" y="38"/>
			<point x="176" y="21" type="curve"/>
		</contour>
		<contour>
			<point x="356" y="375" type="curve"/>
			<point x="208" y="83" type="line"/>
			<point x="188" y="99"/>
			<point x="171" y="117"/>
			<point x="158" y="136" type="curve"/>
			<point x="130" y="175"/>
			<point x="112" y="231"/>
			<point x="112" y="282" type="curve"/>
			<point x="112" y="330"/>
			<point x="127" y="375"/>
			<point x="163" y="402" type="curve"/>
			<point x="183" y="417"/>
			<point x="206" y="423"/>
			<point x="231" y="423" type="curve"/>
			<point x="273" y="423"/>
			<point x="318" y="404"/>
		</contour>
		<contour>
			<point x="334" y="34" type="curve"/>
			<point x="334" y="34" type="line"/>
			<point x="295" y="34"/>
			<point x="254" y="50"/>
			<point x="219" y="75" type="curve"/>
			<point x="367" y="366" type="line"/>
			<point x="383" y="352"/>
			<point x="398" y="337"/>
			<point x="409" y="321" type="curve"/>
			<point x="436" y="280"/>
			<point x="454" y="225"/>
			<point x="454" y="174" type="curve"/>
			<point x="454" y="126"/>
			<point x="439" y="82"/>
			<point x="402" y="55" type="curve"/>
			<point x="382" y="40"/>
			<point x="358" y="34"/>
		</contour>
	</outline>
</glyph>
<glyph name="ucircumflex" format="2">
	<advance width="698"/>
	<unicode hex="00FB"/>
	<note>
		ucircumflex
  </note>
	<outline>
		<contour>
			<point x="466" y="153" type="curve"/>
			<point x="466" y="-3" type="line"/>
			<point x="485" y="-3" type="line"/>
			<point x="530" y="31"/>
			<point x="578" y="49"/>
			<point x="645" y="49" type="curve"/>
			<point x="645" y="61" type="line"/>
			<point x="536" y="78"/>
			<point x="533" y="77"/>
			<point x="533" y="203" type="curve"/>
			<point x="533" y="454" type="line"/>
			<point x="393" y="414" type="line"/>
			<point x="393" y="402" type="line"/>
			<point x="464" y="388"/>
			<point x="465" y="376"/>
			<point x="465" y="247" type="curve"/>
			<point x="465" y="214"/>
			<point x="458" y="31"/>
			<point x="282" y="31" type="curve"/>
			<point x="249" y="31"/>
			<point x="203" y="80"/>
			<point x="203" y="164" type="curve"/>
			<point x="203" y="454" type="line"/>
			<point x="135" y="436"/>
			<point x="56" y="424"/>
			<point x="53" y="424" type="curve"/>
			<point x="53" y="412" type="line"/>
			<point x="135" y="399"/>
			<point x="135" y="356"/>
			<point x="135" y="232" type="curve"/>
			<point x="135" y="146" type="line" smooth="yes"/>
			<point x="135" y="29"/>
			<point x="210" y="3"/>
			<point x="278" y="3" type="curve"/>
			<point x="391" y="3"/>
			<point x="443" y="83"/>
		</contour>
		<contour>
			<point x="124" y="570" type="line"/>
			<point x="135" y="558" type="line"/>
			<point x="324" y="633" type="line"/>
			<point x="508" y="558" type="line"/>
			<point x="519" y="570" type="line"/>
			<point x="322" y="694" type="line"/>
		</contour>
	</outline>
</glyph>
<glyph name="yacute" format="2">
	<advance width="622"/>
	<unicode hex="00FD"/>
	<note>
		yacute
  </note>
	<outline>
		<contour>
			<point x="-212" y="-802" type="curve"/>
			<point x="-212" y="-814" type="line"/>
			<point x="-133" y="-796"/>
			<point x="-89" y="-784"/>
			<point x="103" y="-442" type="curve"/>
			<point x="557" y="441" type="line"/>
			<point x="64" y="441" type="line"/>
			<point x="314" y="23" type="line"/>
			<point x="67" y="-450" type="line"/>
			<point x="9" y="-575"/>
			<point x="-101" y="-785"/>
		</contour>
		<contour>
			<point x="529" y="427" type="line"/>
			<point x="354" y="99" type="line"/>
			<point x="155" y="428" type="line"/>
		</contour>
		<contour>
			<point x="197" y="563" type="line"/>
			<point x="208" y="551" type="line"/>
			<point x="392" y="626" type="line"/>
			<point x="392" y="626"/>
			<point x="422" y="633"/>
			<point x="422" y="655" type="curve"/>
			<point x="422" y="659"/>
			<point x="421" y="663"/>
			<point x="419" y="667" type="curve"/>
			<point x="414" y="678"/>
			<point x="406" y="682"/>
			<point x="399" y="682" type="curve"/>
			<point x="387" y="682"/>
			<point x="375" y="673"/>
			<point x="376" y="674" type="curve"/>
		</contour>
	</outline>
</glyph>
<glyph name="ydieresis" format="2">
	<advance width="576"/>
	<unicode hex="00FF"/>
	<note>
		ydieresis
  </note>
	<outline>
		<contour>
			<point x="-254" y="-802" type="curve"/>
			<point x="-254" y="-814" type="line"/>
			<point x="-175" y="-796"/>
			<point x="-131" y="-784"/>
			<point x="61" y="-442" type="curve"/>
			<point x="515" y="441" type="line"/>
			<point x="22" y="441" type="line"/>
			<point x="272" y="23" type="line"/>
			<point x="25" y="-450" type="line"/>
			<point x="-33" y="-575"/>
			<point x="-143" y="-785"/>
		</contour>
		<contour>
			<point x="487" y="427" type="line"/>
			<point x="312" y="99" type="line"/>
			<point x="113" y="428" type="line"/>
		</contour>
		<contour>
			<point x="169" y="574" type="curve"/>
			<point x="169" y="574" type="line"/>
			<point x="197" y="574"/>
			<point x="220" y="596"/>
			<point x="220" y="624" type="curve"/>
			<point x="220" y="652"/>
			<point x="197" y="675"/>
			<point x="169" y="675" type="curve"/>
			<point x="141" y="675"/>
			<point x="119" y="652"/>
			<point x="119" y="624" type="curve"/>
			<point x="119" y="596"/>
			<point x="141" y="574"/>
		</contour>
		<contour>
			<point x="369" y="574" type="curve"/>
			<point x="369" y="574" type="line"/>
			<point x="397" y="574"/>
			<point x="420" y="596"/>
			<point x="420" y="624" type="curve"/>
			<point x="420" y="652"/>
			<point x="397" y="675"/>
			<point x="369" y="675" type="curve"/>
			<point x="341" y="675"/>
			<point x="319" y="652"/>
			<point x="319" y="624" type="curve"/>
			<point x="319" y="596"/>
			<point x="341" y="574"/>
		</contour>
	</outline>
</glyph>
<glyph name="Emacron" format="2">
	<advance width="898"/>
	<unicode hex="0112"/>
	<note>
		Emacron
  </note>
	<outline>
		<contour>
			<point x="479" y="-6" type="curve"/>
			<point x="479" y="-6" type="line"/>
			<point x="558" y="-6"/>
			<point x="638" y="17"/>
			<point x="707" y="66" type="curve"/>
			<point x="696" y="82" type="line"/>
			<point x="648" y="48"/>
			<point x="590" y="33"/>
			<point x="531" y="33" type="curve"/>
			<point x="407" y="33"/>
			<point x="276" y="99"/>
			<point x="204" y="200" type="curve"/>
			<point x="165" y="254"/>
			<point x="141" y="335"/>
			<point x="134" y="404" type="curve"/>
			<point x="926" y="404" type="line"/>
			<point x="926" y="418" type="line"/>
			<point x="133" y="418" type="line"/>
			<point x="132" y="429"/>
			<point x="132" y="440"/>
			<point x="132" y="452" type="curve"/>
			<point x="132" y="556"/>
			<point x="170" y="658"/>
			<point x="254" y="719" type="curve"/>
			<point x="304" y="754"/>
			<point x="361" y="770"/>
			<point x="421" y="770" type="curve"/>
			<point x="585" y="770"/>
			<point x="760" y="649"/>
			<point x="809" y="488" type="curve"/>
			<point x="821" y="488" type="line"/>
			<point x="821" y="491"/>
			<point x="803" y="600"/>
			<point x="803" y="637" type="curve"/>
			<point x="803" y="679"/>
			<point x="803" y="701"/>
			<point x="821" y="780" type="curve"/>
			<point x="809" y="780" type="line"/>
			<point x="802" y="737"/>
			<point x="788" y="705"/>
			<point x="764" y="683" type="curve"/>
			<point x="688" y="762"/>
			<point x="582" y="805"/>
			<point x="473" y="805" type="curve"/>
			<point x="395" y="805"/>
			<point x="315" y="782"/>
			<point x="245" y="733" type="curve"/>
			<point x="138" y="658"/>
			<point x="77" y="527"/>
			<point x="77" y="394" type="curve"/>
			<point x="77" y="313"/>
			<point x="100" y="231"/>
			<point x="150" y="161" type="curve"/>
			<point x="225" y="54"/>
			<point x="351" y="-6"/>
		</contour>
		<contour>
			<point x="287" y="886" type="line"/>
			<point x="287" y="872" type="line"/>
			<point x="610" y="872" type="line"/>
			<point x="610" y="886" type="line"/>
		</contour>
	</outline>
</glyph>
<glyph name="Eogonek" format="2">
	<advance width="898"/>
	<unicode hex="0118"/>
	<note>
		Eogonek
  </note>
	<outline>
		<contour>
			<point x="673" y="-159" type="curve"/>
			<point x="673" y="-159" type="line"/>
			<point x="700" y="-159"/>
			<point x="734" y="-139"/>
			<point x="734" y="-106" type="curve"/>
			<point x="734" y="-85"/>
			<point x="722" y="-72"/>
			<point x="706" y="-72" type="curve"/>
			<point x="693" y="-72"/>
			<point x="688" y="-77"/>
			<point x="678" y="-77" type="curve"/>
			<point x="670" y="-77"/>
			<point x="661" y="-72"/>
			<point x="655" y="-63" type="curve"/>
			<point x="649" y="-54"/>
			<point x="647" y="-44"/>
			<point x="647" y="-33" type="curve"/>
			<point x="647" y="1"/>
			<point x="670" y="41"/>
			<point x="688" y="51" type="curve"/>
			<point x="686" y="52" type="line"/>
			<point x="707" y="66" type="line"/>
			<point x="696" y="82" type="line"/>
			<point x="648" y="48"/>
			<point x="590" y="33"/>
			<point x="531" y="33" type="curve"/>
			<point x="407" y="33"/>
			<point x="276" y="99"/>
			<point x="204" y="200" type="curve"/>
			<point x="165" y="254"/>
			<point x="141" y="335"/>
			<point x="134" y="404" type="curve"/>
			<point x="926" y="404" type="line"/>
			<point x="926" y="418" type="line"/>
			<point x="133" y="418" type="line"/>
			<point x="132" y="429"/>
			<point x="132" y="440"/>
			<point x="132" y="452" type="curve"/>
			<point x="132" y="556"/>
			<point x="170" y="658"/>
			<point x="254" y="719" type="curve"/>
			<point x="304" y="754"/>
			<point x="361" y="770"/>
			<point x="421" y="770" type="curve"/>
			<point x="585" y="770"/>
			<point x="760" y="649"/>
			<point x="809" y="488" type="curve"/>
			<point x="821" y="488" type="line"/>
			<point x="821" y="491"/>
			<point x="803" y="600"/>
			<point x="803" y="637" type="curve"/>
			<point x="803" y="679"/>
			<point x="803" y="701"/>
			<point x="821" y="780" type="curve"/>
			<point x="809" y="780" type="line"/>
			<point x="802" y="737"/>
			<point x="788" y="705"/>
			<point x="764" y="683" type="curve"/>
			<point x="688" y="762"/>
			<point x="582" y="805"/>
			<point x="473" y="805" type="curve"/>
			<point x="395" y="805"/>
			<point x="315" y="782"/>
			<point x="245" y="733" type="curve"/>
			<point x="138" y="658"/>
			<point x="77" y="527"/>
			<point x="77" y="394" type="curve"/>
			<point x="77" y="313"/>
			<point x="100" y="231"/>
			<point x="150" y="161" type="curve"/>
			<point x="225" y="55"/>
			<point x="351" y="-6"/>
			<point x="479" y="-6" type="curve"/>
			<point x="533" y="-6"/>
			<point x="587" y="5"/>
			<point x="638" y="27" type="curve"/>
			<point x="606" y="-5"/>
			<point x="592" y="-41"/>
			<point x="592" y="-73" type="curve"/>
			<point x="592" y="-121"/>
			<point x="624" y="-159"/>
		</contour>
	</outline>
</glyph>
<glyph name="Gbreve" format="2">
	<advance width="962"/>
	<unicode hex="011E"/>
	<note>
		Gbreve
  </note>
	<outline>
		<contour>
			<point x="484" y="-8" type="curve"/>
			<point x="484" y="-8" type="line"/>
			<point x="563" y="-8"/>
			<point x="643" y="15"/>
			<point x="712" y="64" type="curve"/>
			<point x="819" y="140"/>
			<point x="880" y="272"/>
			<point x="880" y="404" type="curve"/>
			<point x="880" y="486"/>
			<point x="857" y="568"/>
			<point x="807" y="638" type="curve"/>
			<point x="732" y="745"/>
			<point x="606" y="805"/>
			<point x="479" y="805" type="curve"/>
			<point x="400" y="805"/>
			<point x="320" y="782"/>
			<point x="250" y="733" type="curve"/>
			<point x="143" y="658"/>
			<point x="82" y="526"/>
			<point x="82" y="393" type="curve"/>
			<point x="82" y="311"/>
			<point x="105" y="229"/>
			<point x="155" y="159" type="curve"/>
			<point x="230" y="52"/>
			<point x="356" y="-8"/>
		</contour>
		<contour>
			<point x="482" y="-805" type="curve"/>
			<point x="482" y="-805" type="line"/>
			<point x="560" y="-805"/>
			<point x="640" y="-782"/>
			<point x="710" y="-733" type="curve"/>
			<point x="817" y="-658"/>
			<point x="878" y="-532"/>
			<point x="878" y="-404" type="curve"/>
			<point x="878" y="-325"/>
			<point x="855" y="-245"/>
			<point x="805" y="-175" type="curve"/>
			<point x="730" y="-68"/>
			<point x="604" y="-8"/>
			<point x="476" y="-8" type="curve"/>
			<point x="397" y="-8"/>
			<point x="317" y="-31"/>
			<point x="248" y="-80" type="curve"/>
			<point x="259" y="-96" type="line"/>
			<point x="307" y="-62"/>
			<point x="365" y="-47"/>
			<point x="424" y="-47" type="curve"/>
			<point x="548" y="-47"/>
			<point x="679" y="-113"/>
			<point x="751" y="-214" type="curve"/>
			<point x="798" y="-280"/>
			<point x="823" y="-367"/>
			<point x="823" y="-452" type="curve"/>
			<point x="823" y="-556"/>
			<point x="785" y="-659"/>
			<point x="701" y="-719" type="curve"/>
			<point x="651" y="-754"/>
			<point x="594" y="-770"/>
			<point x="534" y="-770" type="curve"/>
			<point x="370" y="-770"/>
			<point x="195" y="-649"/>
			<point x="146" y="-488" type="curve"/>
			<point x="134" y="-488" type="line"/>
			<point x="134" y="-491"/>
			<point x="152" y="-600"/>
			<point x="152" y="-637" type="curve"/>
			<point x="152" y="-679"/>
			<point x="152" y="-701"/>
			<point x="134" y="-780" type="curve"/>
			<point x="146" y="-780" type="line"/>
			<point x="153" y="-737"/>
			<point x="167" y="-705"/>
			<point x="191" y="-683" type="curve"/>
			<point x="267" y="-762"/>
			<point x="373" y="-805"/>
		</contour>
		<contour>
			<point x="536" y="31" type="curve"/>
			<point x="536" y="31" type="line"/>
			<point x="412" y="31"/>
			<point x="281" y="97"/>
			<point x="209" y="198" type="curve"/>
			<point x="162" y="264"/>
			<point x="137" y="353"/>
			<point x="137" y="441" type="curve"/>
			<point x="137" y="552"/>
			<point x="176" y="660"/>
			<point x="259" y="719" type="curve"/>
			<point x="307" y="753"/>
			<point x="365" y="768"/>
			<point x="424" y="768" type="curve"/>
			<point x="549" y="768"/>
			<point x="682" y="701"/>
			<point x="753" y="600" type="curve"/>
			<point x="800" y="534"/>
			<point x="824" y="446"/>
			<point x="824" y="359" type="curve"/>
			<point x="824" y="248"/>
			<point x="785" y="140"/>
			<point x="701" y="80" type="curve"/>
			<point x="653" y="46"/>
			<point x="595" y="31"/>
		</contour>
		<contour>
			<point x="479" y="841" type="curve"/>
			<point x="479" y="841" type="line"/>
			<point x="538" y="841"/>
			<point x="587" y="888"/>
			<point x="587" y="946" type="curve"/>
			<point x="550" y="946" type="line"/>
			<point x="550" y="908"/>
			<point x="518" y="878"/>
			<point x="480" y="878" type="curve"/>
			<point x="442" y="878"/>
			<point x="412" y="908"/>
			<point x="412" y="946" type="curve"/>
			<point x="374" y="946" type="line"/>
			<point x="374" y="888"/>
			<point x="421" y="841"/>
		</contour>
	</outline>
</glyph>
<glyph name="gbreve" format="2">
	<advance width="582"/>
	<unicode hex="011F"/>
	<note>
		gbreve
  </note>
	<outline>
		<contour>
			<point x="304" y="-466" type="curve"/>
			<point x="304" y="-466" type="line"/>
			<point x="354" y="-466"/>
			<point x="406" y="-449"/>
			<point x="448" y="-419" type="curve"/>
			<point x="510" y="-375"/>
			<point x="546" y="-303"/>
			<point x="546" y="-229" type="curve"/>
			<point x="546" y="-183"/>
			<point x="532" y="-137"/>
			<point x="503" y="-97" type="curve"/>
			<point x="465" y="-42"/>
			<point x="404" y="-9"/>
			<point x="339" y="-2" type="curve"/>
			<point x="368" y="5"/>
			<point x="396" y="17"/>
			<point x="421" y="35" type="curve"/>
			<point x="483" y="79"/>
			<point x="518" y="153"/>
			<point x="518" y="229" type="curve"/>
			<point x="518" y="275"/>
			<point x="505" y="322"/>
			<point x="476" y="362" type="curve"/>
			<point x="432" y="424"/>
			<point x="360" y="459"/>
			<point x="287" y="459" type="curve"/>
			<point x="241" y="459"/>
			<point x="195" y="446"/>
			<point x="154" y="417" type="curve"/>
			<point x="92" y="373"/>
			<point x="56" y="299"/>
			<point x="56" y="224" type="curve"/>
			<point x="56" y="177"/>
			<point x="70" y="130"/>
			<point x="99" y="90" type="curve"/>
			<point x="137" y="35"/>
			<point x="198" y="2"/>
			<point x="263" y="-5" type="curve"/>
			<point x="234" y="-12"/>
			<point x="206" y="-24"/>
			<point x="181" y="-42" type="curve"/>
			<point x="145" y="-72"/>
			<point x="141" y="-79"/>
			<point x="132" y="-97" type="curve"/>
			<point x="153" y="-110" type="line"/>
			<point x="164" y="-94"/>
			<point x="172" y="-80"/>
			<point x="200" y="-62" type="curve"/>
			<point x="220" y="-48"/>
			<point x="243" y="-42"/>
			<point x="268" y="-42" type="curve"/>
			<point x="333" y="-42"/>
			<point x="406" y="-87"/>
			<point x="444" y="-143" type="curve"/>
			<point x="472" y="-182"/>
			<point x="490" y="-236"/>
			<point x="490" y="-287" type="curve"/>
			<point x="490" y="-333"/>
			<point x="475" y="-377"/>
			<point x="439" y="-404" type="curve"/>
			<point x="419" y="-419"/>
			<point x="395" y="-425"/>
			<point x="371" y="-425" type="curve"/>
			<point x="305" y="-425"/>
			<point x="232" y="-379"/>
			<point x="193" y="-323" type="curve"/>
			<point x="134" y="-362" type="line"/>
			<point x="170" y="-435"/>
			<point x="236" y="-466"/>
		</contour>
		<contour>
			<point x="335" y="34" type="curve"/>
			<point x="335" y="34" type="line"/>
			<point x="269" y="34"/>
			<point x="196" y="80"/>
			<point x="158" y="136" type="curve"/>
			<point x="130" y="175"/>
			<point x="112" y="231"/>
			<point x="112" y="282" type="curve"/>
			<point x="112" y="330"/>
			<point x="127" y="375"/>
			<point x="163" y="402" type="curve"/>
			<point x="183" y="417"/>
			<point x="207" y="423"/>
			<point x="231" y="423" type="curve"/>
			<point x="297" y="423"/>
			<point x="370" y="377"/>
			<point x="409" y="321" type="curve"/>
			<point x="436" y="280"/>
			<point x="454" y="225"/>
			<point x="454" y="174" type="curve"/>
			<point x="454" y="126"/>
			<point x="439" y="82"/>
			<point x="402" y="55" type="curve"/>
			<point x="382" y="40"/>
			<point x="359" y="34"/>
		</contour>
		<contour>
			<point x="289" y="530" type="curve"/>
			<point x="289" y="530" type="line"/>
			<point x="348" y="530"/>
			<point x="397" y="577"/>
			<point x="397" y="635" type="curve"/>
			<point x="360" y="635" type="line"/>
			<point x="360" y="597"/>
			<point x="328" y="567"/>
			<point x="290" y="567" type="curve"/>
			<point x="252" y="567"/>
			<point x="222" y="597"/>
			<point x="222" y="635" type="curve"/>
			<point x="184" y="635" type="line"/>
			<point x="184" y="577"/>
			<point x="231" y="530"/>
		</contour>
		<contour>
			<point x="495" y="398" type="curve"/>
			<point x="495" y="398" type="line"/>
			<point x="523" y="398"/>
			<point x="546" y="420"/>
			<point x="546" y="448" type="curve"/>
			<point x="546" y="476"/>
			<point x="523" y="499"/>
			<point x="495" y="499" type="curve"/>
			<point x="467" y="499"/>
			<point x="445" y="476"/>
			<point x="445" y="448" type="curve"/>
			<point x="445" y="420"/>
			<point x="467" y="398"/>
		</contour>
	</outline>
</glyph>
<glyph name="Hbar" format="2">
	<advance width="1016"/>
	<unicode hex="0126"/>
	<note>
		Hbar
  </note>
	<outline>
		<contour>
			<point x="52" y="15" type="curve"/>
			<point x="52" y="3" type="line"/>
			<point x="131" y="21"/>
			<point x="153" y="21"/>
			<point x="195" y="21" type="curve"/>
			<point x="232" y="21"/>
			<point x="331" y="3"/>
			<point x="334" y="3" type="curve"/>
			<point x="334" y="15" type="line"/>
			<point x="238" y="30"/>
			<point x="232" y="86"/>
			<point x="232" y="185" type="curve"/>
			<point x="232" y="201"/>
			<point x="232" y="218"/>
			<point x="232" y="236" type="curve"/>
			<point x="232" y="404" type="line"/>
			<point x="784" y="404" type="line"/>
			<point x="784" y="234" type="line" smooth="yes"/>
			<point x="784" y="216"/>
			<point x="784" y="199"/>
			<point x="784" y="183" type="curve"/>
			<point x="784" y="84"/>
			<point x="778" y="30"/>
			<point x="682" y="15" type="curve"/>
			<point x="682" y="3" type="line"/>
			<point x="761" y="21"/>
			<point x="773" y="21"/>
			<point x="815" y="21" type="curve"/>
			<point x="852" y="21"/>
			<point x="961" y="3"/>
			<point x="964" y="3" type="curve"/>
			<point x="964" y="15" type="line"/>
			<point x="853" y="32"/>
			<point x="852" y="105"/>
			<point x="852" y="236" type="curve"/>
			<point x="852" y="532" type="line"/>
			<point x="852" y="564" type="line"/>
			<point x="920" y="564" type="line"/>
			<point x="920" y="578" type="line"/>
			<point x="852" y="578" type="line"/>
			<point x="854" y="680"/>
			<point x="867" y="738"/>
			<point x="964" y="753" type="curve"/>
			<point x="964" y="765" type="line"/>
			<point x="961" y="765"/>
			<point x="852" y="747"/>
			<point x="815" y="747" type="curve"/>
			<point x="773" y="747"/>
			<point x="761" y="747"/>
			<point x="682" y="765" type="curve"/>
			<point x="682" y="753" type="line"/>
			<point x="780" y="738"/>
			<point x="784" y="681"/>
			<point x="784" y="578" type="curve"/>
			<point x="232" y="578" type="line"/>
			<point x="232" y="680"/>
			<point x="237" y="738"/>
			<point x="334" y="753" type="curve"/>
			<point x="334" y="765" type="line"/>
			<point x="331" y="765"/>
			<point x="232" y="747"/>
			<point x="195" y="747" type="curve"/>
			<point x="153" y="747"/>
			<point x="131" y="747"/>
			<point x="52" y="765" type="curve"/>
			<point x="52" y="753" type="line"/>
			<point x="150" y="738"/>
			<point x="162" y="681"/>
			<point x="164" y="578" type="curve"/>
			<point x="97" y="578" type="line"/>
			<point x="97" y="564" type="line"/>
			<point x="164" y="564" type="line"/>
			<point x="164" y="534" type="line"/>
			<point x="164" y="234" type="line" smooth="yes"/>
			<point x="164" y="103"/>
			<point x="163" y="32"/>
		</contour>
		<contour>
			<point x="784" y="418" type="line"/>
			<point x="232" y="418" type="line"/>
			<point x="232" y="532" type="line"/>
			<point x="232" y="564" type="line"/>
			<point x="784" y="564" type="line"/>
			<point x="784" y="534" type="line"/>
		</contour>
	</outline>
</glyph>
<glyph name="hbar" format="2">
	<advance width="712"/>
	<unicode hex="0127"/>
	<note>
		hbar
  </note>
	<outline>
		<contour>
			<point x="46" y="15" type="curve"/>
			<point x="46" y="3" type="line"/>
			<point x="92" y="16"/>
			<point x="130" y="21"/>
			<point x="165" y="21" type="curve"/>
			<point x="211" y="21"/>
			<point x="252" y="13"/>
			<point x="298" y="3" type="curve"/>
			<point x="298" y="15" type="line"/>
			<point x="228" y="29"/>
			<point x="226" y="81"/>
			<point x="226" y="204" type="curve"/>
			<point x="488" y="204" type="line"/>
			<point x="488" y="92"/>
			<point x="484" y="28"/>
			<point x="416" y="15" type="curve"/>
			<point x="416" y="3" type="line"/>
			<point x="459" y="18"/>
			<point x="495" y="23"/>
			<point x="526" y="23" type="curve"/>
			<point x="584" y="23"/>
			<point x="626" y="6"/>
			<point x="668" y="3" type="curve"/>
			<point x="668" y="15" type="line"/>
			<point x="566" y="30"/>
			<point x="557" y="93"/>
			<point x="556" y="204" type="curve"/>
			<point x="614" y="204" type="line"/>
			<point x="614" y="218" type="line"/>
			<point x="556" y="218" type="line"/>
			<point x="556" y="225" type="line"/>
			<point x="556" y="311" type="line" smooth="yes"/>
			<point x="556" y="428"/>
			<point x="481" y="460"/>
			<point x="413" y="460" type="curve"/>
			<point x="300" y="460"/>
			<point x="248" y="374"/>
			<point x="225" y="304" type="curve"/>
			<point x="225" y="750" type="line"/>
			<point x="206" y="750" type="line"/>
			<point x="161" y="716"/>
			<point x="113" y="698"/>
			<point x="46" y="698" type="curve"/>
			<point x="46" y="686" type="line"/>
			<point x="149" y="670"/>
			<point x="156" y="665"/>
			<point x="157" y="528" type="curve"/>
			<point x="157" y="520"/>
			<point x="158" y="241"/>
			<point x="158" y="234" type="curve"/>
			<point x="158" y="218" type="line"/>
			<point x="100" y="218" type="line"/>
			<point x="100" y="204" type="line"/>
			<point x="158" y="204" type="line"/>
			<point x="157" y="92"/>
			<point x="148" y="31"/>
		</contour>
		<contour>
			<point x="488" y="218" type="line"/>
			<point x="226" y="218" type="line"/>
			<point x="228" y="266"/>
			<point x="243" y="432"/>
			<point x="388" y="432" type="curve"/>
			<point x="445" y="432"/>
			<point x="488" y="377"/>
			<point x="488" y="293" type="curve"/>
			<point x="488" y="234" type="line"/>
		</contour>
	</outline>
</glyph>
<glyph name="Iogonek" format="2">
	<advance width="396"/>
	<unicode hex="012E"/>
	<note>
		Iogonek
  </note>
	<outline>
		<contour>
			<point x="328" y="-205" type="curve"/>
			<point x="328" y="-205" type="line"/>
			<point x="355" y="-205"/>
			<point x="389" y="-185"/>
			<point x="389" y="-152" type="curve"/>
			<point x="389" y="-131"/>
			<point x="377" y="-118"/>
			<point x="361" y="-118" type="curve"/>
			<point x="348" y="-118"/>
			<point x="343" y="-123"/>
			<point x="333" y="-123" type="curve"/>
			<point x="325" y="-123"/>
			<point x="316" y="-118"/>
			<point x="310" y="-109" type="curve"/>
			<point x="304" y="-100"/>
			<point x="302" y="-90"/>
			<point x="302" y="-79" type="curve"/>
			<point x="302" y="-47"/>
			<point x="323" y="-9"/>
			<point x="340" y="3" type="curve"/>
			<point x="344" y="3" type="line"/>
			<point x="344" y="15" type="line"/>
			<point x="233" y="32"/>
			<point x="232" y="105"/>
			<point x="232" y="236" type="curve"/>
			<point x="232" y="532" type="line" smooth="yes"/>
			<point x="232" y="663"/>
			<point x="233" y="736"/>
			<point x="344" y="753" type="curve"/>
			<point x="344" y="765" type="line"/>
			<point x="341" y="765"/>
			<point x="232" y="747"/>
			<point x="195" y="747" type="curve"/>
			<point x="153" y="747"/>
			<point x="131" y="747"/>
			<point x="52" y="765" type="curve"/>
			<point x="52" y="753" type="line"/>
			<point x="163" y="736"/>
			<point x="164" y="665"/>
			<point x="164" y="534" type="curve"/>
			<point x="164" y="234" type="line" smooth="yes"/>
			<point x="164" y="103"/>
			<point x="163" y="32"/>
			<point x="52" y="15" type="curve"/>
			<point x="52" y="3" type="line"/>
			<point x="131" y="21"/>
			<point x="153" y="21"/>
			<point x="195" y="21" type="curve"/>
			<point x="222" y="21"/>
			<point x="288" y="11"/>
			<point x="323" y="6" type="curve"/>
			<point x="270" y="-31"/>
			<point x="248" y="-79"/>
			<point x="248" y="-119" type="curve"/>
			<point x="248" y="-167"/>
			<point x="279" y="-205"/>
		</contour>
	</outline>
</glyph>
<glyph name="iogonek" format="2">
	<advance width="382"/>
	<unicode hex="012F"/>
	<note>
		iogonek
  </note>
	<outline>
		<contour>
			<point x="309" y="-203" type="curve"/>
			<point x="309" y="-203" type="line"/>
			<point x="336" y="-203"/>
			<point x="370" y="-183"/>
			<point x="370" y="-150" type="curve"/>
			<point x="370" y="-129"/>
			<point x="358" y="-116"/>
			<point x="342" y="-116" type="curve"/>
			<point x="329" y="-116"/>
			<point x="324" y="-121"/>
			<point x="314" y="-121" type="curve"/>
			<point x="306" y="-121"/>
			<point x="297" y="-116"/>
			<point x="291" y="-107" type="curve"/>
			<point x="285" y="-98"/>
			<point x="283" y="-88"/>
			<point x="283" y="-77" type="curve"/>
			<point x="283" y="-45"/>
			<point x="304" y="-7"/>
			<point x="321" y="5" type="curve"/>
			<point x="338" y="3" type="line"/>
			<point x="338" y="15" type="line"/>
			<point x="230" y="31"/>
			<point x="226" y="101"/>
			<point x="226" y="225" type="curve"/>
			<point x="225" y="442" type="line"/>
			<point x="206" y="442" type="line"/>
			<point x="161" y="408"/>
			<point x="113" y="388"/>
			<point x="46" y="388" type="curve"/>
			<point x="46" y="376" type="line"/>
			<point x="155" y="359"/>
			<point x="158" y="360"/>
			<point x="158" y="234" type="curve"/>
			<point x="158" y="103"/>
			<point x="157" y="32"/>
			<point x="46" y="15" type="curve"/>
			<point x="46" y="3" type="line"/>
			<point x="125" y="21"/>
			<point x="147" y="21"/>
			<point x="189" y="21" type="curve"/>
			<point x="213" y="21"/>
			<point x="268" y="13"/>
			<point x="304" y="8" type="curve"/>
			<point x="251" y="-29"/>
			<point x="229" y="-77"/>
			<point x="229" y="-117" type="curve"/>
			<point x="229" y="-165"/>
			<point x="260" y="-203"/>
		</contour>
		<contour>
			<point x="190" y="517" type="curve"/>
			<point x="190" y="517" type="line"/>
			<point x="218" y="517"/>
			<point x="241" y="539"/>
			<point x="241" y="567" type="curve"/>
			<point x="241" y="595"/>
			<point x="218" y="618"/>
			<point x="190" y="618" type="curve"/>
			<point x="162" y="618"/>
			<point x="140" y="595"/>
			<point x="140" y="567" type="curve"/>
			<point x="140" y="539"/>
			<point x="162" y="517"/>
		</contour>
	</outline>
</glyph>
<glyph name="Idotaccent" format="2">
	<advance width="396"/>
	<unicode hex="0130"/>
	<note>
		Idotaccent
  </note>
	<outline>
		<contour>
			<point x="52" y="15" type="curve"/>
			<point x="52" y="3" type="line"/>
			<point x="131" y="21"/>
			<point x="153" y="21"/>
			<point x="195" y="21" type="curve"/>
			<point x="232" y="21"/>
			<point x="341" y="3"/>
			<point x="344" y="3" type="curve"/>
			<point x="344" y="15" type="line"/>
			<point x="233" y="32"/>
			<point x="232" y="105"/>
			<point x="232" y="236" type="curve"/>
			<point x="232" y="532" type="line" smooth="yes"/>
			<point x="232" y="663"/>
			<point x="233" y="736"/>
			<point x="344" y="753" type="curve"/>
			<point x="344" y="765" type="line"/>
			<point x="341" y="765"/>
			<point x="232" y="747"/>
			<point x="195" y="747" type="curve"/>
			<point x="153" y="747"/>
			<point x="131" y="747"/>
			<point x="52" y="765" type="curve"/>
			<point x="52" y="753" type="line"/>
			<point x="163" y="736"/>
			<point x="164" y="665"/>
			<point x="164" y="534" type="curve"/>
			<point x="164" y="234" type="line" smooth="yes"/>
			<point x="164" y="103"/>
			<point x="163" y="32"/>
		</contour>
		<contour>
			<point x="194" y="825" type="curve"/>
			<point x="194" y="825" type="line"/>
			<point x="222" y="825"/>
			<point x="245" y="847"/>
			<point x="245" y="875" type="curve"/>
			<point x="245" y="903"/>
			<point x="222" y="926"/>
			<point x="194" y="926" type="curve"/>
			<point x="166" y="926"/>
			<point x="144" y="903"/>
			<point x="144" y="875" type="curve"/>
			<point x="144" y="847"/>
			<point x="166" y="825"/>
		</contour>
	</outline>
</glyph>
<glyph name="uni0136" format="2">
	<advance width="1058"/>
	<unicode hex="0136"/>
	<note>
		Kcommaaccent
  </note>
	<outline>
		<contour>
			<point x="669" y="12" type="curve"/>
			<point x="669" y="0" type="line"/>
			<point x="748" y="18"/>
			<point x="760" y="18"/>
			<point x="802" y="18" type="curve"/>
			<point x="839" y="18"/>
			<point x="958" y="0"/>
			<point x="961" y="0" type="curve"/>
			<point x="961" y="12" type="line"/>
			<point x="850" y="29"/>
			<point x="763" y="100"/>
			<point x="653" y="203" type="curve"/>
			<point x="448" y="393" type="line"/>
			<point x="624" y="534" type="line"/>
			<point x="711" y="598"/>
			<point x="829" y="728"/>
			<point x="940" y="745" type="curve"/>
			<point x="940" y="757" type="line"/>
			<point x="937" y="757"/>
			<point x="858" y="739"/>
			<point x="821" y="739" type="curve"/>
			<point x="779" y="739"/>
			<point x="787" y="739"/>
			<point x="708" y="757" type="curve"/>
			<point x="708" y="745" type="line"/>
			<point x="741" y="740"/>
			<point x="754" y="728"/>
			<point x="754" y="712" type="curve"/>
			<point x="754" y="673"/>
			<point x="679" y="611"/>
			<point x="613" y="558" type="curve"/>
			<point x="232" y="255" type="line"/>
			<point x="232" y="532" type="line" smooth="yes"/>
			<point x="232" y="550"/>
			<point x="232" y="567"/>
			<point x="232" y="583" type="curve"/>
			<point x="232" y="682"/>
			<point x="238" y="738"/>
			<point x="334" y="753" type="curve"/>
			<point x="334" y="765" type="line"/>
			<point x="331" y="765"/>
			<point x="232" y="747"/>
			<point x="195" y="747" type="curve"/>
			<point x="153" y="747"/>
			<point x="131" y="747"/>
			<point x="52" y="765" type="curve"/>
			<point x="52" y="753" type="line"/>
			<point x="163" y="736"/>
			<point x="164" y="665"/>
			<point x="164" y="534" type="curve"/>
			<point x="164" y="234" type="line" smooth="yes"/>
			<point x="164" y="103"/>
			<point x="163" y="32"/>
			<point x="52" y="15" type="curve"/>
			<point x="52" y="3" type="line"/>
			<point x="131" y="21"/>
			<point x="153" y="21"/>
			<point x="195" y="21" type="curve"/>
			<point x="232" y="21"/>
			<point x="331" y="3"/>
			<point x="334" y="3" type="curve"/>
			<point x="334" y="15" type="line"/>
			<point x="227" y="31"/>
			<point x="232" y="99"/>
			<point x="232" y="220" type="curve"/>
			<point x="408" y="361" type="line"/>
			<point x="574" y="197" type="line" smooth="yes"/>
			<point x="647" y="130"/>
			<point x="717" y="75"/>
			<point x="717" y="42" type="curve"/>
			<point x="717" y="28"/>
			<point x="703" y="17"/>
		</contour>
		<contour>
			<point x="100" y="-237" type="curve"/>
			<point x="105" y="-250" type="line"/>
			<point x="161" y="-250"/>
			<point x="240" y="-198"/>
			<point x="240" y="-113" type="curve"/>
			<point x="240" y="-99"/>
			<point x="239" y="-84"/>
			<point x="229" y="-72" type="curve"/>
			<point x="219" y="-61"/>
			<point x="205" y="-55"/>
			<point x="191" y="-55" type="curve"/>
			<point x="179" y="-55"/>
			<point x="167" y="-59"/>
			<point x="157" y="-67" type="curve"/>
			<point x="148" y="-75"/>
			<point x="139" y="-86"/>
			<point x="139" y="-106" type="curve"/>
			<point x="139" y="-140"/>
			<point x="172" y="-140"/>
			<point x="172" y="-175" type="curve"/>
			<point x="172" y="-202"/>
			<point x="127" y="-237"/>
		</contour>
	</outline>
</glyph>
<glyph name="uni013B" format="2">
	<advance width="981"/>
	<unicode hex="013B"/>
	<note>
		Lcommaaccent
  </note>
	<outline>
		<contour>
			<point x="907" y="-92" type="curve"/>
			<point x="907" y="-92" type="line"/>
			<point x="919" y="-92" type="line"/>
			<point x="901" y="-13"/>
			<point x="901" y="9"/>
			<point x="901" y="51" type="curve"/>
			<point x="901" y="88"/>
			<point x="919" y="197"/>
			<point x="919" y="200" type="curve"/>
			<point x="907" y="200" type="line"/>
			<point x="899" y="78"/>
			<point x="778" y="15"/>
			<point x="702" y="15" type="curve"/>
			<point x="256" y="15" type="line"/>
			<point x="257" y="532" type="line" smooth="yes"/>
			<point x="257" y="663"/>
			<point x="258" y="736"/>
			<point x="369" y="753" type="curve"/>
			<point x="369" y="765" type="line"/>
			<point x="366" y="765"/>
			<point x="257" y="747"/>
			<point x="220" y="747" type="curve"/>
			<point x="178" y="747"/>
			<point x="156" y="747"/>
			<point x="77" y="765" type="curve"/>
			<point x="77" y="753" type="line"/>
			<point x="188" y="736"/>
			<point x="189" y="665"/>
			<point x="189" y="534" type="curve"/>
			<point x="189" y="234" type="line" smooth="yes"/>
			<point x="189" y="103"/>
			<point x="188" y="32"/>
			<point x="77" y="15" type="curve"/>
			<point x="77" y="3" type="line"/>
			<point x="858" y="2" type="line" smooth="yes"/>
			<point x="883" y="2"/>
			<point x="895" y="-42"/>
		</contour>
		<contour>
			<point x="398" y="-237" type="curve"/>
			<point x="403" y="-250" type="line"/>
			<point x="459" y="-250"/>
			<point x="538" y="-198"/>
			<point x="538" y="-113" type="curve"/>
			<point x="538" y="-99"/>
			<point x="537" y="-84"/>
			<point x="527" y="-72" type="curve"/>
			<point x="517" y="-61"/>
			<point x="503" y="-55"/>
			<point x="489" y="-55" type="curve"/>
			<point x="477" y="-55"/>
			<point x="465" y="-59"/>
			<point x="455" y="-67" type="curve"/>
			<point x="446" y="-75"/>
			<point x="437" y="-86"/>
			<point x="437" y="-106" type="curve"/>
			<point x="437" y="-140"/>
			<point x="470" y="-140"/>
			<point x="470" y="-175" type="curve"/>
			<point x="470" y="-202"/>
			<point x="425" y="-237"/>
		</contour>
	</outline>
</glyph>
<glyph name="lcaron" format="2">
	<advance width="384"/>
	<unicode hex="013E"/>
	<anchor x="192" y="375" name="center"/>
	<anchor x="192" y="0" name="bottom"/>
	<anchor x="192" y="750" name="top"/>
	<outline>
		<contour>
			<point x="46" y="15" type="curve"/>
			<point x="46" y="3" type="line"/>
			<point x="103" y="17"/>
			<point x="147" y="22"/>
			<point x="183" y="22" type="curve"/>
			<point x="241" y="22"/>
			<point x="283" y="10"/>
			<point x="338" y="3" type="curve"/>
			<point x="338" y="15" type="line"/>
			<point x="230" y="31"/>
			<point x="225" y="92"/>
			<point x="225" y="232" type="curve"/>
			<point x="225" y="613" type="line" smooth="yes"/>
			<point x="225" y="630"/>
			<point x="225" y="712"/>
			<point x="235" y="750" type="curve"/>
			<point x="206" y="750" type="line"/>
			<point x="161" y="716"/>
			<point x="113" y="698"/>
			<point x="46" y="698" type="curve"/>
			<point x="46" y="686" type="line"/>
			<point x="155" y="669"/>
			<point x="157" y="655"/>
			<point x="157" y="529" type="curve"/>
			<point x="157" y="229" type="line" smooth="yes"/>
			<point x="157" y="98"/>
			<point x="157" y="32"/>
		</contour>
		<contour>
			<point x="312" y="699" type="curve"/>
			<point x="312" y="699" type="line"/>
			<point x="326" y="489" type="line"/>
			<point x="346" y="489" type="line"/>
			<point x="360" y="699" type="line" smooth="yes"/>
			<point x="361" y="713"/>
			<point x="362" y="733"/>
			<point x="336" y="733" type="curve"/>
			<point x="310" y="733"/>
			<point x="311" y="713"/>
		</contour>
	</outline>
</glyph>
<glyph name="Lslash" format="2">
	<advance width="981"/>
	<unicode hex="0141"/>
	<note>
		Lslash
  </note>
	<outline>
		<contour>
			<point x="907" y="-92" type="curve"/>
			<point x="907" y="-92" type="line"/>
			<point x="919" y="-92" type="line"/>
			<point x="901" y="-13"/>
			<point x="901" y="9"/>
			<point x="901" y="51" type="curve"/>
			<point x="901" y="88"/>
			<point x="919" y="197"/>
			<point x="919" y="200" type="curve"/>
			<point x="907" y="200" type="line"/>
			<point x="899" y="78"/>
			<point x="778" y="15"/>
			<point x="702" y="15" type="curve"/>
			<point x="256" y="15" type="line"/>
			<point x="256" y="341" type="line"/>
			<point x="361" y="415" type="line"/>
			<point x="353" y="426" type="line"/>
			<point x="256" y="358" type="line"/>
			<point x="257" y="532" type="line" smooth="yes"/>
			<point x="257" y="663"/>
			<point x="258" y="736"/>
			<point x="369" y="753" type="curve"/>
			<point x="369" y="765" type="line"/>
			<point x="366" y="765"/>
			<point x="257" y="747"/>
			<point x="220" y="747" type="curve"/>
			<point x="178" y="747"/>
			<point x="156" y="747"/>
			<point x="77" y="765" type="curve"/>
			<point x="77" y="753" type="line"/>
			<point x="188" y="736"/>
			<point x="189" y="665"/>
			<point x="189" y="534" type="curve"/>
			<point x="189" y="310" type="line"/>
			<point x="89" y="240" type="line"/>
			<point x="97" y="228" type="line"/>
			<point x="189" y="293" type="line"/>
			<point x="189" y="234" type="line" smooth="yes"/>
			<point x="189" y="103"/>
			<point x="188" y="32"/>
			<point x="77" y="15" type="curve"/>
			<point x="77" y="3" type="line"/>
			<point x="858" y="2" type="line" smooth="yes"/>
			<point x="883" y="2"/>
			<point x="895" y="-42"/>
		</contour>
	</outline>
</glyph>
<glyph name="Ncaron" format="2">
	<advance width="1595"/>
	<unicode hex="0147"/>
	<note>
		Ncaron
  </note>
	<outline>
		<contour>
			<point x="72" y="12" type="curve"/>
			<point x="72" y="0" type="line"/>
			<point x="75" y="0"/>
			<point x="154" y="18"/>
			<point x="191" y="18" type="curve"/>
			<point x="233" y="18"/>
			<point x="225" y="18"/>
			<point x="304" y="0" type="curve"/>
			<point x="304" y="12" type="line"/>
			<point x="255" y="19"/>
			<point x="237" y="34"/>
			<point x="237" y="57" type="curve"/>
			<point x="237" y="87"/>
			<point x="267" y="131"/>
			<point x="299" y="191" type="curve"/>
			<point x="566" y="724" type="line"/>
			<point x="972" y="0" type="line"/>
			<point x="1022" y="0" type="line"/>
			<point x="1315" y="554" type="line" smooth="yes"/>
			<point x="1369" y="652"/>
			<point x="1412" y="738"/>
			<point x="1523" y="755" type="curve"/>
			<point x="1523" y="767" type="line"/>
			<point x="1520" y="767"/>
			<point x="1441" y="749"/>
			<point x="1404" y="749" type="curve"/>
			<point x="1362" y="749"/>
			<point x="1370" y="749"/>
			<point x="1291" y="767" type="curve"/>
			<point x="1291" y="755" type="line"/>
			<point x="1340" y="748"/>
			<point x="1358" y="730"/>
			<point x="1358" y="703" type="curve"/>
			<point x="1358" y="669"/>
			<point x="1328" y="620"/>
			<point x="1296" y="560" type="curve"/>
			<point x="1017" y="31" type="line"/>
			<point x="586" y="806" type="line"/>
			<point x="280" y="197" type="line"/>
			<point x="226" y="99"/>
			<point x="183" y="29"/>
		</contour>
		<contour>
			<point x="790" y="946" type="line"/>
			<point x="987" y="822" type="line"/>
			<point x="1185" y="946" type="line"/>
			<point x="1174" y="958" type="line"/>
			<point x="985" y="883" type="line"/>
			<point x="801" y="958" type="line"/>
		</contour>
	</outline>
</glyph>
<glyph name="Racute" format="2">
	<advance width="973"/>
	<unicode hex="0154"/>
	<note>
		Racute
  </note>
	<outline>
		<contour>
			<point x="52" y="-804" type="curve"/>
			<point x="52" y="-816" type="line"/>
			<point x="131" y="-798"/>
			<point x="153" y="-798"/>
			<point x="195" y="-798" type="curve"/>
			<point x="232" y="-798"/>
			<point x="341" y="-816"/>
			<point x="344" y="-816" type="curve"/>
			<point x="344" y="-804" type="line"/>
			<point x="233" y="-787"/>
			<point x="232" y="-714"/>
			<point x="232" y="-583" type="curve"/>
			<point x="232" y="532" type="line" smooth="yes"/>
			<point x="232" y="621"/>
			<point x="232" y="683"/>
			<point x="268" y="719" type="curve"/>
			<point x="313" y="749"/>
			<point x="367" y="762"/>
			<point x="423" y="762" type="curve"/>
			<point x="554" y="762"/>
			<point x="696" y="692"/>
			<point x="762" y="600" type="curve"/>
			<point x="809" y="534"/>
			<point x="833" y="449"/>
			<point x="833" y="365" type="curve"/>
			<point x="833" y="259"/>
			<point x="794" y="156"/>
			<point x="710" y="96" type="curve"/>
			<point x="666" y="64"/>
			<point x="605" y="44"/>
			<point x="540" y="35" type="curve"/>
			<point x="944" y="-607" type="line" smooth="yes"/>
			<point x="987" y="-679"/>
			<point x="1029" y="-740"/>
			<point x="1029" y="-774" type="curve"/>
			<point x="1029" y="-789"/>
			<point x="1020" y="-799"/>
			<point x="999" y="-802" type="curve"/>
			<point x="999" y="-814" type="line"/>
			<point x="1078" y="-796"/>
			<point x="1090" y="-796"/>
			<point x="1132" y="-796" type="curve"/>
			<point x="1169" y="-796"/>
			<point x="1288" y="-814"/>
			<point x="1291" y="-814" type="curve"/>
			<point x="1291" y="-802" type="line"/>
			<point x="1180" y="-785"/>
			<point x="1088" y="-696"/>
			<point x="1023" y="-601" type="curve"/>
			<point x="627" y="31" type="line"/>
			<point x="661" y="44"/>
			<point x="693" y="60"/>
			<point x="721" y="80" type="curve"/>
			<point x="828" y="156"/>
			<point x="889" y="281"/>
			<point x="889" y="409" type="curve"/>
			<point x="889" y="488"/>
			<point x="866" y="568"/>
			<point x="816" y="638" type="curve"/>
			<point x="742" y="742"/>
			<point x="621" y="805"/>
			<point x="496" y="805" type="curve"/>
			<point x="344" y="805"/>
			<point x="295" y="747"/>
			<point x="195" y="747" type="curve"/>
			<point x="153" y="747"/>
			<point x="131" y="747"/>
			<point x="52" y="765" type="curve"/>
			<point x="52" y="753" type="line"/>
			<point x="163" y="736"/>
			<point x="164" y="665"/>
			<point x="164" y="534" type="curve"/>
			<point x="164" y="-585" type="line" smooth="yes"/>
			<point x="164" y="-716"/>
			<point x="163" y="-787"/>
		</contour>
		<contour>
			<point x="375" y="834" type="line"/>
			<point x="386" y="822" type="line"/>
			<point x="570" y="897" type="line"/>
			<point x="570" y="897"/>
			<point x="600" y="904"/>
			<point x="600" y="926" type="curve"/>
			<point x="600" y="930"/>
			<point x="599" y="934"/>
			<point x="597" y="938" type="curve"/>
			<point x="592" y="949"/>
			<point x="584" y="953"/>
			<point x="577" y="953" type="curve"/>
			<point x="565" y="953"/>
			<point x="553" y="944"/>
			<point x="554" y="945" type="curve"/>
		</contour>
	</outline>
</glyph>
<glyph name="Sacute" format="2">
	<advance width="820"/>
	<unicode hex="015A"/>
	<note>
		Sacute
  </note>
	<outline>
		<contour>
			<point x="377" y="-814" type="curve"/>
			<point x="377" y="-814" type="line"/>
			<point x="709" y="-814"/>
			<point x="804" y="-544"/>
			<point x="803" y="-366" type="curve"/>
			<point x="803" y="61"/>
			<point x="128" y="240"/>
			<point x="128" y="538" type="curve"/>
			<point x="135" y="654"/>
			<point x="191" y="760"/>
			<point x="310" y="769" type="curve"/>
			<point x="481" y="782"/>
			<point x="671" y="657"/>
			<point x="723" y="488" type="curve"/>
			<point x="735" y="488" type="line"/>
			<point x="735" y="491"/>
			<point x="717" y="600"/>
			<point x="717" y="637" type="curve"/>
			<point x="717" y="679"/>
			<point x="717" y="701"/>
			<point x="735" y="780" type="curve"/>
			<point x="723" y="780" type="line"/>
			<point x="716" y="737"/>
			<point x="702" y="705"/>
			<point x="678" y="683" type="curve"/>
			<point x="602" y="762"/>
			<point x="496" y="805"/>
			<point x="387" y="805" type="curve"/>
			<point x="206" y="805"/>
			<point x="71" y="707"/>
			<point x="71" y="500" type="curve"/>
			<point x="71" y="170"/>
			<point x="758" y="-46"/>
			<point x="758" y="-443" type="curve"/>
			<point x="758" y="-687"/>
			<point x="591" y="-765"/>
			<point x="369" y="-772" type="curve"/>
			<point x="244" y="-772"/>
			<point x="91" y="-636"/>
			<point x="49" y="-497" type="curve"/>
			<point x="37" y="-497" type="line"/>
			<point x="37" y="-500"/>
			<point x="55" y="-609"/>
			<point x="55" y="-646" type="curve"/>
			<point x="55" y="-688"/>
			<point x="55" y="-710"/>
			<point x="37" y="-789" type="curve"/>
			<point x="49" y="-789" type="line"/>
			<point x="56" y="-746"/>
			<point x="70" y="-714"/>
			<point x="94" y="-692" type="curve"/>
			<point x="168" y="-769"/>
			<point x="271" y="-812"/>
		</contour>
		<contour>
			<point x="298" y="834" type="line"/>
			<point x="309" y="822" type="line"/>
			<point x="493" y="897" type="line"/>
			<point x="493" y="897"/>
			<point x="523" y="904"/>
			<point x="523" y="926" type="curve"/>
			<point x="523" y="930"/>
			<point x="522" y="934"/>
			<point x="520" y="938" type="curve"/>
			<point x="515" y="949"/>
			<point x="507" y="953"/>
			<point x="500" y="953" type="curve"/>
			<point x="488" y="953"/>
			<point x="476" y="944"/>
			<point x="477" y="945" type="curve"/>
		</contour>
	</outline>
</glyph>
<glyph name="sacute" format="2">
	<advance width="493"/>
	<unicode hex="015B"/>
	<note>
		sacute
  </note>
	<outline>
		<contour>
			<point x="216" y="-8" type="curve"/>
			<point x="216" y="-8" type="line"/>
			<point x="319" y="-8"/>
			<point x="427" y="42"/>
			<point x="427" y="140" type="curve"/>
			<point x="427" y="249"/>
			<point x="327" y="257"/>
			<point x="255" y="285" type="curve"/>
			<point x="155" y="322"/>
			<point x="136" y="336"/>
			<point x="136" y="373" type="curve"/>
			<point x="136" y="399"/>
			<point x="163" y="443"/>
			<point x="240" y="443" type="curve"/>
			<point x="285" y="443"/>
			<point x="346" y="404"/>
			<point x="346" y="318" type="curve"/>
			<point x="414" y="363" type="line"/>
			<point x="388" y="431"/>
			<point x="310" y="460"/>
			<point x="242" y="460" type="curve"/>
			<point x="168" y="460"/>
			<point x="86" y="416"/>
			<point x="86" y="334" type="curve"/>
			<point x="86" y="258"/>
			<point x="171" y="222"/>
			<point x="234" y="202" type="curve"/>
			<point x="254" y="196"/>
			<point x="363" y="179"/>
			<point x="363" y="114" type="curve"/>
			<point x="363" y="38"/>
			<point x="284" y="9"/>
			<point x="239" y="9" type="curve"/>
			<point x="172" y="9"/>
			<point x="72" y="74"/>
			<point x="66" y="109" type="curve"/>
			<point x="66" y="12" type="line"/>
			<point x="106" y="12"/>
			<point x="168" y="-8"/>
		</contour>
		<contour>
			<point x="131" y="524" type="line"/>
			<point x="142" y="512" type="line"/>
			<point x="326" y="587" type="line"/>
			<point x="326" y="587"/>
			<point x="356" y="594"/>
			<point x="356" y="616" type="curve"/>
			<point x="356" y="620"/>
			<point x="355" y="624"/>
			<point x="353" y="628" type="curve"/>
			<point x="348" y="639"/>
			<point x="340" y="643"/>
			<point x="333" y="643" type="curve"/>
			<point x="321" y="643"/>
			<point x="309" y="634"/>
			<point x="310" y="635" type="curve"/>
		</contour>
	</outline>
</glyph>
<glyph name="uni0163" format="2">
	<advance width="394"/>
	<unicode hex="0163"/>
	<note>
		uni0163
  </note>
	<outline>
		<contour>
			<point x="182" y="-256" type="curve"/>
			<point x="182" y="-256" type="line"/>
			<point x="210" y="-256" type="line" smooth="yes"/>
			<point x="296" y="-256"/>
			<point x="399" y="-147"/>
			<point x="399" y="-68" type="curve"/>
			<point x="399" y="-52"/>
			<point x="374" y="-39"/>
			<point x="340" y="-39" type="curve"/>
			<point x="249" y="-39"/>
			<point x="239" y="-51"/>
			<point x="239" y="-51" type="curve"/>
			<point x="281" y="3" type="line"/>
			<point x="326" y="19"/>
			<point x="348" y="72"/>
			<point x="348" y="109" type="curve"/>
			<point x="338" y="109" type="line"/>
			<point x="338" y="53"/>
			<point x="295" y="27"/>
			<point x="253" y="27" type="curve"/>
			<point x="183" y="27"/>
			<point x="185" y="108"/>
			<point x="185" y="147" type="curve"/>
			<point x="185" y="425" type="line"/>
			<point x="323" y="425" type="line"/>
			<point x="323" y="459" type="line"/>
			<point x="185" y="459" type="line"/>
			<point x="185" y="488"/>
			<point x="186" y="548"/>
			<point x="195" y="580" type="curve"/>
			<point x="166" y="580" type="line"/>
			<point x="166" y="465"/>
			<point x="73" y="437"/>
			<point x="6" y="437" type="curve"/>
			<point x="6" y="425" type="line"/>
			<point x="117" y="425" type="line"/>
			<point x="117" y="144" type="line" smooth="yes"/>
			<point x="117" y="66"/>
			<point x="145" y="17"/>
			<point x="209" y="2" type="curve"/>
			<point x="164" y="-80" type="line"/>
			<point x="194" y="-69"/>
			<point x="249" y="-58"/>
			<point x="285" y="-58" type="curve"/>
			<point x="307" y="-58"/>
			<point x="323" y="-62"/>
			<point x="323" y="-73" type="curve"/>
			<point x="323" y="-183"/>
			<point x="220" y="-256"/>
		</contour>
	</outline>
</glyph>
<glyph name="tbar" format="2">
	<advance width="394"/>
	<unicode hex="0167"/>
	<note>
		tbar
  </note>
	<outline>
		<contour>
			<point x="252" y="-2" type="curve"/>
			<point x="252" y="-2" type="line"/>
			<point x="316" y="-2"/>
			<point x="348" y="65"/>
			<point x="348" y="109" type="curve"/>
			<point x="338" y="109" type="line"/>
			<point x="338" y="53"/>
			<point x="295" y="27"/>
			<point x="253" y="27" type="curve"/>
			<point x="183" y="27"/>
			<point x="185" y="108"/>
			<point x="185" y="147" type="curve"/>
			<point x="185" y="243" type="line"/>
			<point x="318" y="243" type="line"/>
			<point x="318" y="257" type="line"/>
			<point x="185" y="257" type="line"/>
			<point x="185" y="425" type="line"/>
			<point x="323" y="425" type="line"/>
			<point x="323" y="459" type="line"/>
			<point x="185" y="459" type="line"/>
			<point x="185" y="488"/>
			<point x="186" y="548"/>
			<point x="195" y="580" type="curve"/>
			<point x="166" y="580" type="line"/>
			<point x="166" y="465"/>
			<point x="73" y="437"/>
			<point x="6" y="437" type="curve"/>
			<point x="6" y="425" type="line"/>
			<point x="117" y="425" type="line"/>
			<point x="117" y="257" type="line"/>
			<point x="-5" y="257" type="line"/>
			<point x="-5" y="243" type="line"/>
			<point x="117" y="243" type="line"/>
			<point x="117" y="144" type="line" smooth="yes"/>
			<point x="117" y="50"/>
			<point x="157" y="-2"/>
		</contour>
	</outline>
</glyph>
<glyph name="Uhungarumlaut" format="2">
	<advance width="1149"/>
	<unicode hex="0170"/>
	<note>
		Uhungarumlaut
  </note>
	<outline>
		<contour>
			<point x="562" y="-12" type="curve"/>
			<point x="562" y="-12" type="line"/>
			<point x="796" y="-12"/>
			<point x="949" y="123"/>
			<point x="949" y="400" type="curve"/>
			<point x="949" y="536" type="line" smooth="yes"/>
			<point x="949" y="667"/>
			<point x="961" y="736"/>
			<point x="1072" y="753" type="curve"/>
			<point x="1072" y="765" type="line"/>
			<point x="1069" y="765"/>
			<point x="977" y="747"/>
			<point x="940" y="747" type="curve"/>
			<point x="898" y="747"/>
			<point x="896" y="747"/>
			<point x="817" y="765" type="curve"/>
			<point x="817" y="753" type="line"/>
			<point x="928" y="736"/>
			<point x="936" y="666"/>
			<point x="935" y="535" type="curve"/>
			<point x="935" y="400" type="line" smooth="yes"/>
			<point x="935" y="157"/>
			<point x="813" y="0"/>
			<point x="561" y="0" type="curve"/>
			<point x="379" y="0"/>
			<point x="257" y="127"/>
			<point x="257" y="396" type="curve"/>
			<point x="257" y="532" type="line" smooth="yes"/>
			<point x="257" y="663"/>
			<point x="258" y="736"/>
			<point x="369" y="753" type="curve"/>
			<point x="369" y="765" type="line"/>
			<point x="366" y="765"/>
			<point x="257" y="747"/>
			<point x="220" y="747" type="curve"/>
			<point x="178" y="747"/>
			<point x="156" y="747"/>
			<point x="77" y="765" type="curve"/>
			<point x="77" y="753" type="line"/>
			<point x="188" y="736"/>
			<point x="190" y="665"/>
			<point x="189" y="534" type="curve"/>
			<point x="188" y="395" type="line" smooth="yes"/>
			<point x="188" y="103"/>
			<point x="351" y="-12"/>
		</contour>
		<contour>
			<point x="334" y="812" type="curve"/>
			<point x="334" y="812" type="line"/>
			<point x="398" y="812"/>
			<point x="483" y="830"/>
			<point x="503" y="847" type="curve"/>
			<point x="514" y="856"/>
			<point x="521" y="870"/>
			<point x="521" y="885" type="curve"/>
			<point x="521" y="913"/>
			<point x="498" y="936"/>
			<point x="470" y="936" type="curve"/>
			<point x="429" y="936"/>
			<point x="404" y="830"/>
			<point x="340" y="830" type="curve"/>
			<point x="334" y="830"/>
			<point x="336" y="818"/>
		</contour>
		<contour>
			<point x="669" y="812" type="curve"/>
			<point x="669" y="812" type="line"/>
			<point x="733" y="812"/>
			<point x="818" y="830"/>
			<point x="838" y="847" type="curve"/>
			<point x="849" y="856"/>
			<point x="856" y="870"/>
			<point x="856" y="885" type="curve"/>
			<point x="856" y="913"/>
			<point x="833" y="936"/>
			<point x="805" y="936" type="curve"/>
			<point x="764" y="936"/>
			<point x="739" y="830"/>
			<point x="675" y="830" type="curve"/>
			<point x="669" y="830"/>
			<point x="671" y="818"/>
		</contour>
	</outline>
</glyph>
<glyph name="uhungarumlaut" format="2">
	<advance width="696"/>
	<unicode hex="0171"/>
	<note>
		uhungarumlaut
  </note>
	<outline>
		<contour>
			<point x="464" y="153" type="curve"/>
			<point x="464" y="-3" type="line"/>
			<point x="483" y="-3" type="line"/>
			<point x="528" y="31"/>
			<point x="576" y="49"/>
			<point x="643" y="49" type="curve"/>
			<point x="643" y="61" type="line"/>
			<point x="534" y="78"/>
			<point x="531" y="77"/>
			<point x="531" y="203" type="curve"/>
			<point x="531" y="454" type="line"/>
			<point x="391" y="414" type="line"/>
			<point x="391" y="402" type="line"/>
			<point x="462" y="388"/>
			<point x="463" y="376"/>
			<point x="463" y="247" type="curve"/>
			<point x="463" y="214"/>
			<point x="456" y="31"/>
			<point x="280" y="31" type="curve"/>
			<point x="247" y="31"/>
			<point x="201" y="80"/>
			<point x="201" y="164" type="curve"/>
			<point x="201" y="454" type="line"/>
			<point x="133" y="436"/>
			<point x="54" y="424"/>
			<point x="51" y="424" type="curve"/>
			<point x="51" y="412" type="line"/>
			<point x="133" y="399"/>
			<point x="133" y="356"/>
			<point x="133" y="232" type="curve"/>
			<point x="133" y="146" type="line" smooth="yes"/>
			<point x="133" y="29"/>
			<point x="208" y="3"/>
			<point x="276" y="3" type="curve"/>
			<point x="389" y="3"/>
			<point x="441" y="83"/>
		</contour>
		<contour>
			<point x="104" y="526" type="curve"/>
			<point x="104" y="526" type="line"/>
			<point x="168" y="526"/>
			<point x="253" y="544"/>
			<point x="273" y="561" type="curve"/>
			<point x="284" y="570"/>
			<point x="291" y="584"/>
			<point x="291" y="599" type="curve"/>
			<point x="291" y="627"/>
			<point x="268" y="650"/>
			<point x="240" y="650" type="curve"/>
			<point x="199" y="650"/>
			<point x="174" y="544"/>
			<point x="110" y="544" type="curve"/>
			<point x="104" y="544"/>
			<point x="106" y="532"/>
		</contour>
		<contour>
			<point x="359" y="526" type="curve"/>
			<point x="359" y="526" type="line"/>
			<point x="423" y="526"/>
			<point x="508" y="544"/>
			<point x="528" y="561" type="curve"/>
			<point x="539" y="570"/>
			<point x="546" y="584"/>
			<point x="546" y="599" type="curve"/>
			<point x="546" y="627"/>
			<point x="523" y="650"/>
			<point x="495" y="650" type="curve"/>
			<point x="454" y="650"/>
			<point x="429" y="544"/>
			<point x="365" y="544" type="curve"/>
			<point x="359" y="544"/>
			<point x="361" y="532"/>
		</contour>
	</outline>
</glyph>
<glyph name="Uogonek" format="2">
	<advance width="1149"/>
	<unicode hex="0172"/>
	<note>
		Uogonek
  </note>
	<outline>
		<contour>
			<point x="696" y="-200" type="curve"/>
			<point x="696" y="-200" type="line"/>
			<point x="723" y="-200"/>
			<point x="757" y="-180"/>
			<point x="757" y="-147" type="curve"/>
			<point x="757" y="-126"/>
			<point x="745" y="-113"/>
			<point x="729" y="-113" type="curve"/>
			<point x="716" y="-113"/>
			<point x="711" y="-118"/>
			<point x="701" y="-118" type="curve"/>
			<point x="693" y="-118"/>
			<point x="684" y="-113"/>
			<point x="678" y="-104" type="curve"/>
			<point x="672" y="-95"/>
			<point x="670" y="-85"/>
			<point x="670" y="-74" type="curve"/>
			<point x="670" y="-40"/>
			<point x="693" y="-1"/>
			<point x="711" y="10" type="curve"/>
			<point x="859" y="58"/>
			<point x="949" y="187"/>
			<point x="949" y="400" type="curve"/>
			<point x="949" y="536" type="line" smooth="yes"/>
			<point x="949" y="667"/>
			<point x="961" y="736"/>
			<point x="1072" y="753" type="curve"/>
			<point x="1072" y="765" type="line"/>
			<point x="1069" y="765"/>
			<point x="977" y="747"/>
			<point x="940" y="747" type="curve"/>
			<point x="898" y="747"/>
			<point x="896" y="747"/>
			<point x="817" y="765" type="curve"/>
			<point x="817" y="753" type="line"/>
			<point x="928" y="736"/>
			<point x="936" y="666"/>
			<point x="935" y="535" type="curve"/>
			<point x="935" y="400" type="line" smooth="yes"/>
			<point x="935" y="157"/>
			<point x="813" y="0"/>
			<point x="561" y="0" type="curve"/>
			<point x="379" y="0"/>
			<point x="257" y="127"/>
			<point x="257" y="396" type="curve"/>
			<point x="257" y="532" type="line" smooth="yes"/>
			<point x="257" y="663"/>
			<point x="258" y="736"/>
			<point x="369" y="753" type="curve"/>
			<point x="369" y="765" type="line"/>
			<point x="366" y="765"/>
			<point x="257" y="747"/>
			<point x="220" y="747" type="curve"/>
			<point x="178" y="747"/>
			<point x="156" y="747"/>
			<point x="77" y="765" type="curve"/>
			<point x="77" y="753" type="line"/>
			<point x="188" y="736"/>
			<point x="190" y="665"/>
			<point x="189" y="534" type="curve"/>
			<point x="188" y="395" type="line" smooth="yes"/>
			<point x="188" y="103"/>
			<point x="351" y="-12"/>
			<point x="562" y="-12" type="curve"/>
			<point x="603" y="-12"/>
			<point x="641" y="-8"/>
			<point x="677" y="0" type="curve"/>
			<point x="634" y="-35"/>
			<point x="615" y="-77"/>
			<point x="615" y="-114" type="curve"/>
			<point x="615" y="-162"/>
			<point x="647" y="-200"/>
		</contour>
	</outline>
</glyph>
<glyph name="ycircumflex" format="2">
	<advance width="576"/>
	<unicode hex="0177"/>
	<note>
		ycircumflex
  </note>
	<outline>
		<contour>
			<point x="-254" y="-802" type="curve"/>
			<point x="-254" y="-814" type="line"/>
			<point x="-175" y="-796"/>
			<point x="-131" y="-784"/>
			<point x="61" y="-442" type="curve"/>
			<point x="515" y="441" type="line"/>
			<point x="22" y="441" type="line"/>
			<point x="272" y="23" type="line"/>
			<point x="25" y="-450" type="line"/>
			<point x="-33" y="-575"/>
			<point x="-143" y="-785"/>
		</contour>
		<contour>
			<point x="487" y="427" type="line"/>
			<point x="312" y="99" type="line"/>
			<point x="113" y="428" type="line"/>
		</contour>
		<contour>
			<point x="90" y="572" type="line"/>
			<point x="101" y="560" type="line"/>
			<point x="290" y="635" type="line"/>
			<point x="474" y="560" type="line"/>
			<point x="485" y="572" type="line"/>
			<point x="288" y="696" type="line"/>
		</contour>
	</outline>
</glyph>
<glyph name="Zacute" format="2">
	<advance width="1134"/>
	<unicode hex="0179"/>
	<note>
		Zacute
  </note>
	<outline>
		<contour>
			<point x="977" y="-92" type="curve"/>
			<point x="977" y="-92" type="line"/>
			<point x="989" y="-92" type="line"/>
			<point x="971" y="-13"/>
			<point x="971" y="9"/>
			<point x="971" y="51" type="curve"/>
			<point x="971" y="88"/>
			<point x="989" y="197"/>
			<point x="989" y="200" type="curve"/>
			<point x="977" y="200" type="line"/>
			<point x="969" y="78"/>
			<point x="838" y="14"/>
			<point x="762" y="14" type="curve"/>
			<point x="369" y="13" type="line" smooth="yes"/>
			<point x="328" y="13"/>
			<point x="310" y="24"/>
			<point x="310" y="45" type="curve"/>
			<point x="310" y="81"/>
			<point x="368" y="148"/>
			<point x="457" y="233" type="curve"/>
			<point x="745" y="534" type="line"/>
			<point x="748" y="538"/>
			<point x="946" y="736"/>
			<point x="1057" y="753" type="curve"/>
			<point x="1057" y="765" type="line"/>
			<point x="1009" y="754"/>
			<point x="1000" y="748"/>
			<point x="943" y="748" type="curve"/>
			<point x="293" y="748" type="line" smooth="yes"/>
			<point x="256" y="749"/>
			<point x="244" y="793"/>
			<point x="232" y="843" type="curve"/>
			<point x="220" y="843" type="line"/>
			<point x="238" y="764"/>
			<point x="238" y="742"/>
			<point x="238" y="700" type="curve"/>
			<point x="238" y="663"/>
			<point x="220" y="554"/>
			<point x="220" y="551" type="curve"/>
			<point x="232" y="551" type="line"/>
			<point x="239" y="660"/>
			<point x="335" y="734"/>
			<point x="412" y="734" type="curve"/>
			<point x="775" y="734" type="line" smooth="yes"/>
			<point x="822" y="734"/>
			<point x="846" y="728"/>
			<point x="846" y="710" type="curve"/>
			<point x="846" y="665"/>
			<point x="693" y="540"/>
			<point x="389" y="231" type="curve"/>
			<point x="384" y="231"/>
			<point x="188" y="29"/>
			<point x="77" y="12" type="curve"/>
			<point x="77" y="0" type="line"/>
			<point x="911" y="0" type="line" smooth="yes"/>
			<point x="940" y="0"/>
			<point x="966" y="-45"/>
		</contour>
		<contour>
			<point x="455" y="813" type="line"/>
			<point x="466" y="801" type="line"/>
			<point x="650" y="876" type="line"/>
			<point x="650" y="876"/>
			<point x="680" y="883"/>
			<point x="680" y="905" type="curve"/>
			<point x="680" y="909"/>
			<point x="679" y="913"/>
			<point x="677" y="917" type="curve"/>
			<point x="672" y="928"/>
			<point x="664" y="932"/>
			<point x="657" y="932" type="curve"/>
			<point x="645" y="932"/>
			<point x="633" y="923"/>
			<point x="634" y="924" type="curve"/>
		</contour>
	</outline>
</glyph>
<glyph name="zacute" format="2">
	<advance width="579"/>
	<unicode hex="017A"/>
	<note>
		zacute
  </note>
	<outline>
		<contour>
			<point x="68" y="15" type="line"/>
			<point x="68" y="0" type="line"/>
			<point x="465" y="0" type="line"/>
			<point x="465" y="43"/>
			<point x="533" y="135"/>
			<point x="543" y="200" type="curve"/>
			<point x="522" y="200" type="line"/>
			<point x="522" y="76"/>
			<point x="392" y="14"/>
			<point x="316" y="14" type="curve"/>
			<point x="145" y="13" type="line"/>
			<point x="493" y="441" type="line"/>
			<point x="111" y="441" type="line"/>
			<point x="111" y="431"/>
			<point x="112" y="420"/>
			<point x="112" y="405" type="curve"/>
			<point x="112" y="368"/>
			<point x="106" y="315"/>
			<point x="66" y="240" type="curve"/>
			<point x="78" y="240" type="line"/>
			<point x="128" y="358"/>
			<point x="178" y="427"/>
			<point x="254" y="427" type="curve"/>
			<point x="402" y="428" type="line"/>
		</contour>
		<contour>
			<point x="178" y="505" type="line"/>
			<point x="189" y="493" type="line"/>
			<point x="373" y="568" type="line"/>
			<point x="373" y="568"/>
			<point x="403" y="575"/>
			<point x="403" y="597" type="curve"/>
			<point x="403" y="601"/>
			<point x="402" y="605"/>
			<point x="400" y="609" type="curve"/>
			<point x="395" y="620"/>
			<point x="387" y="624"/>
			<point x="380" y="624" type="curve"/>
			<point x="368" y="624"/>
			<point x="356" y="615"/>
			<point x="357" y="616" type="curve"/>
		</contour>
	</outline>
</glyph>
<glyph name="zcaron" format="2">
	<advance width="549"/>
	<unicode hex="017E"/>
	<note>
		zcaron
  </note>
	<outline>
		<contour>
			<point x="58" y="15" type="line"/>
			<point x="58" y="0" type="line"/>
			<point x="455" y="0" type="line"/>
			<point x="455" y="43"/>
			<point x="523" y="135"/>
			<point x="533" y="200" type="curve"/>
			<point x="512" y="200" type="line"/>
			<point x="512" y="76"/>
			<point x="382" y="14"/>
			<point x="306" y="14" type="curve"/>
			<point x="135" y="13" type="line"/>
			<point x="483" y="441" type="line"/>
			<point x="101" y="441" type="line"/>
			<point x="101" y="431"/>
			<point x="102" y="420"/>
			<point x="102" y="405" type="curve"/>
			<point x="102" y="368"/>
			<point x="96" y="315"/>
			<point x="56" y="240" type="curve"/>
			<point x="68" y="240" type="line"/>
			<point x="118" y="358"/>
			<point x="168" y="427"/>
			<point x="244" y="427" type="curve"/>
			<point x="392" y="428" type="line"/>
		</contour>
		<contour>
			<point x="129" y="682" type="line"/>
			<point x="327" y="558" type="line"/>
			<point x="524" y="682" type="line"/>
			<point x="513" y="694" type="line"/>
			<point x="329" y="619" type="line"/>
			<point x="140" y="694" type="line"/>
		</contour>
	</outline>
</glyph>
<glyph name="longs" format="2">
	<advance width="237"/>
	<unicode hex="017F"/>
	<note>
		_slong
  </note>
	<outline>
		<contour>
			<point x="-18" y="-802" type="curve"/>
			<point x="-18" y="-814" type="line"/>
			<point x="61" y="-796"/>
			<point x="125" y="-798"/>
			<point x="125" y="-436" type="curve"/>
			<point x="125" y="-394"/>
			<point x="161" y="224"/>
			<point x="161" y="364" type="curve"/>
			<point x="165" y="658"/>
			<point x="165" y="553"/>
			<point x="165" y="585" type="curve"/>
			<point x="165" y="647"/>
			<point x="173" y="692"/>
			<point x="195" y="718" type="curve"/>
			<point x="210" y="736"/>
			<point x="242" y="746"/>
			<point x="275" y="746" type="curve"/>
			<point x="327" y="746"/>
			<point x="383" y="721"/>
			<point x="383" y="666" type="curve"/>
			<point x="383" y="654"/>
			<point x="380" y="640"/>
			<point x="374" y="625" type="curve"/>
			<point x="374" y="625"/>
			<point x="430" y="646"/>
			<point x="430" y="681" type="curve"/>
			<point x="430" y="757"/>
			<point x="388" y="781"/>
			<point x="338" y="781" type="curve"/>
			<point x="281" y="781"/>
			<point x="213" y="749"/>
			<point x="184" y="726" type="curve"/>
			<point x="127" y="680"/>
			<point x="95" y="602"/>
			<point x="95" y="497" type="curve"/>
			<point x="93" y="416"/>
			<point x="93" y="-402"/>
			<point x="93" y="-588" type="curve"/>
			<point x="93" y="-719"/>
			<point x="93" y="-785"/>
		</contour>
	</outline>
</glyph>
<glyph name="florin" format="2">
	<advance width="371"/>
	<unicode hex="0192"/>
	<note>
		florin
  </note>
	<outline>
		<contour>
			<point x="23" y="-802" type="curve"/>
			<point x="23" y="-814" type="line"/>
			<point x="102" y="-796"/>
			<point x="166" y="-798"/>
			<point x="166" y="-436" type="curve"/>
			<point x="166" y="-394"/>
			<point x="202" y="224"/>
			<point x="202" y="364" type="curve"/>
			<point x="202" y="387"/>
			<point x="202" y="406"/>
			<point x="203" y="425" type="curve"/>
			<point x="363" y="425" type="line"/>
			<point x="363" y="459" type="line"/>
			<point x="203" y="459" type="line"/>
			<point x="205" y="562"/>
			<point x="205" y="578"/>
			<point x="206" y="579" type="curve"/>
			<point x="206" y="585" type="line" smooth="yes"/>
			<point x="206" y="647"/>
			<point x="214" y="692"/>
			<point x="236" y="718" type="curve"/>
			<point x="251" y="736"/>
			<point x="283" y="746"/>
			<point x="316" y="746" type="curve"/>
			<point x="368" y="746"/>
			<point x="424" y="721"/>
			<point x="424" y="666" type="curve"/>
			<point x="424" y="654"/>
			<point x="421" y="640"/>
			<point x="415" y="625" type="curve"/>
			<point x="415" y="625"/>
			<point x="471" y="646"/>
			<point x="471" y="681" type="curve"/>
			<point x="471" y="757"/>
			<point x="429" y="781"/>
			<point x="379" y="781" type="curve"/>
			<point x="322" y="781"/>
			<point x="254" y="749"/>
			<point x="225" y="726" type="curve"/>
			<point x="168" y="680"/>
			<point x="136" y="602"/>
			<point x="136" y="497" type="curve"/>
			<point x="136" y="490"/>
			<point x="135" y="475"/>
			<point x="135" y="459" type="curve"/>
			<point x="-10" y="459" type="line"/>
			<point x="-10" y="425" type="line"/>
			<point x="135" y="425" type="line"/>
			<point x="134" y="315"/>
			<point x="134" y="102"/>
			<point x="134" y="-104" type="curve"/>
			<point x="134" y="-310"/>
			<point x="134" y="-508"/>
			<point x="134" y="-588" type="curve"/>
			<point x="134" y="-719"/>
			<point x="134" y="-785"/>
		</contour>
	</outline>
</glyph>
<glyph name="uni0219" format="2">
	<advance width="493"/>
	<unicode hex="0219"/>
	<note>
		scommaaccent
  </note>
	<outline>
		<contour>
			<point x="216" y="-8" type="curve"/>
			<point x="216" y="-8" type="line"/>
			<point x="319" y="-8"/>
			<point x="427" y="42"/>
			<point x="427" y="140" type="curve"/>
			<point x="427" y="249"/>
			<point x="327" y="257"/>
			<point x="255" y="285" type="curve"/>
			<point x="155" y="322"/>
			<point x="136" y="336"/>
			<point x="136" y="373" type="curve"/>
			<point x="136" y="399"/>
			<point x="163" y="443"/>
			<point x="240" y="443" type="curve"/>
			<point x="285" y="443"/>
			<point x="346" y="404"/>
			<point x="346" y="318" type="curve"/>
			<point x="414" y="363" type="line"/>
			<point x="388" y="431"/>
			<point x="310" y="460"/>
			<point x="242" y="460" type="curve"/>
			<point x="168" y="460"/>
			<point x="86" y="416"/>
			<point x="86" y="334" type="curve"/>
			<point x="86" y="258"/>
			<point x="171" y="222"/>
			<point x="234" y="202" type="curve"/>
			<point x="254" y="196"/>
			<point x="363" y="179"/>
			<point x="363" y="114" type="curve"/>
			<point x="363" y="38"/>
			<point x="284" y="9"/>
			<point x="239" y="9" type="curve"/>
			<point x="172" y="9"/>
			<point x="72" y="74"/>
			<point x="66" y="109" type="curve"/>
			<point x="66" y="12" type="line"/>
			<point x="106" y="12"/>
			<point x="168" y="-8"/>
		</contour>
		<contour>
			<point x="154" y="-237" type="curve"/>
			<point x="159" y="-250" type="line"/>
			<point x="215" y="-250"/>
			<point x="294" y="-198"/>
			<point x="294" y="-113" type="curve"/>
			<point x="294" y="-99"/>
			<point x="293" y="-84"/>
			<point x="283" y="-72" type="curve"/>
			<point x="273" y="-61"/>
			<point x="259" y="-55"/>
			<point x="245" y="-55" type="curve"/>
			<point x="233" y="-55"/>
			<point x="221" y="-59"/>
			<point x="211" y="-67" type="curve"/>
			<point x="202" y="-75"/>
			<point x="193" y="-86"/>
			<point x="193" y="-106" type="curve"/>
			<point x="193" y="-140"/>
			<point x="226" y="-140"/>
			<point x="226" y="-175" type="curve"/>
			<point x="226" y="-202"/>
			<point x="181" y="-237"/>
		</contour>
	</outline>
</glyph>
<glyph name="uni021B" format="2">
	<advance width="394"/>
	<unicode hex="021B"/>
	<note>
		uni021B
  </note>
	<outline>
		<contour>
			<point x="252" y="-2" type="curve"/>
			<point x="252" y="-2" type="line"/>
			<point x="316" y="-2"/>
			<point x="348" y="65"/>
			<point x="348" y="109" type="curve"/>
			<point x="338" y="109" type="line"/>
			<point x="338" y="53"/>
			<point x="295" y="27"/>
			<point x="253" y="27" type="curve"/>
			<point x="183" y="27"/>
			<point x="185" y="108"/>
			<point x="185" y="147" type="curve"/>
			<point x="185" y="425" type="line"/>
			<point x="323" y="425" type="line"/>
			<point x="323" y="459" type="line"/>
			<point x="185" y="459" type="line"/>
			<point x="185" y="488"/>
			<point x="186" y="548"/>
			<point x="195" y="580" type="curve"/>
			<point x="166" y="580" type="line"/>
			<point x="166" y="465"/>
			<point x="73" y="437"/>
			<point x="6" y="437" type="curve"/>
			<point x="6" y="425" type="line"/>
			<point x="117" y="425" type="line"/>
			<point x="117" y="144" type="line" smooth="yes"/>
			<point x="117" y="50"/>
			<point x="157" y="-2"/>
		</contour>
		<contour>
			<point x="154" y="-227" type="curve"/>
			<point x="159" y="-240" type="line"/>
			<point x="215" y="-240"/>
			<point x="294" y="-188"/>
			<point x="294" y="-103" type="curve"/>
			<point x="294" y="-89"/>
			<point x="293" y="-74"/>
			<point x="283" y="-62" type="curve"/>
			<point x="273" y="-51"/>
			<point x="259" y="-45"/>
			<point x="245" y="-45" type="curve"/>
			<point x="233" y="-45"/>
			<point x="221" y="-49"/>
			<point x="211" y="-57" type="curve"/>
			<point x="202" y="-65"/>
			<point x="193" y="-76"/>
			<point x="193" y="-96" type="curve"/>
			<point x="193" y="-130"/>
			<point x="226" y="-130"/>
			<point x="226" y="-165" type="curve"/>
			<point x="226" y="-192"/>
			<point x="181" y="-227"/>
		</contour>
	</outline>
</glyph>
<glyph name="circumflex" format="2">
	<advance width="595"/>
	<unicode hex="02C6"/>
	<note>
		circumflex
  </note>
	<outline>
		<contour>
			<point x="100" y="570" type="line"/>
			<point x="111" y="558" type="line"/>
			<point x="300" y="633" type="line"/>
			<point x="484" y="558" type="line"/>
			<point x="495" y="570" type="line"/>
			<point x="298" y="694" type="line"/>
		</contour>
	</outline>
</glyph>
<glyph name="caron" format="2">
	<advance width="595"/>
	<unicode hex="02C7"/>
	<note>
		caron
  </note>
	<outline>
		<contour>
			<point x="100" y="682" type="line"/>
			<point x="298" y="558" type="line"/>
			<point x="495" y="682" type="line"/>
			<point x="484" y="694" type="line"/>
			<point x="300" y="619" type="line"/>
			<point x="111" y="694" type="line"/>
		</contour>
	</outline>
</glyph>
<glyph name="dotaccent" format="2">
	<advance width="301"/>
	<unicode hex="02D9"/>
	<note>
		dotaccent
  </note>
	<outline>
		<contour>
			<point x="150" y="504" type="curve"/>
			<point x="150" y="504" type="line"/>
			<point x="178" y="504"/>
			<point x="201" y="526"/>
			<point x="201" y="554" type="curve"/>
			<point x="201" y="582"/>
			<point x="178" y="605"/>
			<point x="150" y="605" type="curve"/>
			<point x="122" y="605"/>
			<point x="100" y="582"/>
			<point x="100" y="554" type="curve"/>
			<point x="100" y="526"/>
			<point x="122" y="504"/>
		</contour>
	</outline>
</glyph>
<glyph name="tilde" format="2">
	<advance width="617"/>
	<unicode hex="02DC"/>
	<note>
		tilde
  </note>
	<outline>
		<contour>
			<point x="100" y="564" type="curve"/>
			<point x="117" y="562" type="line"/>
			<point x="117" y="589"/>
			<point x="171" y="644"/>
			<point x="221" y="644" type="curve"/>
			<point x="272" y="644"/>
			<point x="313" y="562"/>
			<point x="390" y="562" type="curve"/>
			<point x="458" y="562"/>
			<point x="517" y="674"/>
			<point x="517" y="674" type="curve"/>
			<point x="506" y="688" type="line"/>
			<point x="506" y="688"/>
			<point x="442" y="603"/>
			<point x="387" y="603" type="curve"/>
			<point x="331" y="603"/>
			<point x="304" y="692"/>
			<point x="222" y="692" type="curve"/>
			<point x="124" y="692"/>
			<point x="100" y="564"/>
		</contour>
	</outline>
</glyph>
<glyph name="gravecomb" format="2">
	<advance width="0"/>
	<unicode hex="0300"/>
	<anchor x="-212" y="682" name="top"/>
	<anchor x="-212" y="499" name="_top"/>
	<note>
		gravecomb
  </note>
	<outline>
		<contour>
			<point x="-295" y="626" type="curve"/>
			<point x="-111" y="551" type="line"/>
			<point x="-100" y="563" type="line"/>
			<point x="-279" y="674" type="line"/>
			<point x="-278" y="673"/>
			<point x="-290" y="682"/>
			<point x="-302" y="682" type="curve"/>
			<point x="-309" y="682"/>
			<point x="-317" y="678"/>
			<point x="-322" y="667" type="curve"/>
			<point x="-324" y="663"/>
			<point x="-325" y="659"/>
			<point x="-325" y="655" type="curve"/>
			<point x="-325" y="633"/>
			<point x="-295" y="626"/>
		</contour>
	</outline>
</glyph>
<glyph name="uni0304" format="2">
	<advance width="0"/>
	<unicode hex="0304"/>
	<anchor x="-261" y="605" name="top"/>
	<anchor x="-261" y="499" name="_top"/>
	<note>
		uni0304
  </note>
	<outline>
		<contour>
			<point x="-423" y="605" type="line"/>
			<point x="-423" y="591" type="line"/>
			<point x="-100" y="591" type="line"/>
			<point x="-100" y="605" type="line"/>
		</contour>
	</outline>
</glyph>
<glyph name="uni0306" format="2">
	<advance width="0"/>
	<unicode hex="0306"/>
	<anchor x="-206" y="675" name="top"/>
	<anchor x="-206" y="499" name="_top"/>
	<note>
		uni0306
  </note>
	<outline>
		<contour>
			<point x="-208" y="570" type="curve"/>
			<point x="-208" y="570" type="line"/>
			<point x="-149" y="570"/>
			<point x="-100" y="617"/>
			<point x="-100" y="675" type="curve"/>
			<point x="-137" y="675" type="line"/>
			<point x="-137" y="637"/>
			<point x="-169" y="607"/>
			<point x="-207" y="607" type="curve"/>
			<point x="-245" y="607"/>
			<point x="-275" y="637"/>
			<point x="-275" y="675" type="curve"/>
			<point x="-313" y="675" type="line"/>
			<point x="-313" y="617"/>
			<point x="-266" y="570"/>
		</contour>
	</outline>
</glyph>
<glyph name="uni0307" format="2">
	<advance width="0"/>
	<unicode hex="0307"/>
	<anchor x="-150" y="675" name="top"/>
	<anchor x="-150" y="499" name="_top"/>
	<note>
		uni0307
  </note>
	<outline>
		<contour>
			<point x="-151" y="574" type="curve"/>
			<point x="-151" y="574" type="line"/>
			<point x="-123" y="574"/>
			<point x="-100" y="596"/>
			<point x="-100" y="624" type="curve"/>
			<point x="-100" y="652"/>
			<point x="-123" y="675"/>
			<point x="-151" y="675" type="curve"/>
			<point x="-179" y="675"/>
			<point x="-201" y="652"/>
			<point x="-201" y="624" type="curve"/>
			<point x="-201" y="596"/>
			<point x="-179" y="574"/>
		</contour>
	</outline>
</glyph>
<glyph name="hookabovecomb" format="2">
	<advance width="0"/>
	<unicode hex="0309"/>
	<anchor x="-204" y="722" name="top"/>
	<anchor x="-202" y="499" name="_top"/>
	<outline>
		<contour>
			<point x="-212" y="527" type="curve"/>
			<point x="-212" y="527" type="line"/>
			<point x="-194" y="527" type="line"/>
			<point x="-194" y="562"/>
			<point x="-95" y="569"/>
			<point x="-95" y="637" type="curve"/>
			<point x="-95" y="691"/>
			<point x="-144" y="721"/>
			<point x="-204" y="721" type="curve"/>
			<point x="-263" y="721"/>
			<point x="-305" y="691"/>
			<point x="-305" y="643" type="curve"/>
			<point x="-305" y="601"/>
			<point x="-264" y="585"/>
			<point x="-219" y="585" type="curve"/>
			<point x="-219" y="600" type="line"/>
			<point x="-247" y="600"/>
			<point x="-260" y="616"/>
			<point x="-260" y="634" type="curve"/>
			<point x="-260" y="656"/>
			<point x="-242" y="680"/>
			<point x="-204" y="680" type="curve"/>
			<point x="-167" y="680"/>
			<point x="-144" y="658"/>
			<point x="-144" y="632" type="curve"/>
			<point x="-144" y="576"/>
			<point x="-212" y="578"/>
		</contour>
	</outline>
</glyph>
<glyph name="uni030A" format="2">
	<advance width="0"/>
	<unicode hex="030A"/>
	<anchor x="-171" y="676" name="top"/>
	<anchor x="-171" y="499" name="_top"/>
	<note>
		uni030A
  </note>
	<outline>
		<contour>
			<point x="-172" y="534" type="curve"/>
			<point x="-172" y="534" type="line"/>
			<point x="-133" y="534"/>
			<point x="-100" y="565"/>
			<point x="-100" y="604" type="curve"/>
			<point x="-100" y="643"/>
			<point x="-133" y="676"/>
			<point x="-172" y="676" type="curve"/>
			<point x="-211" y="676"/>
			<point x="-242" y="643"/>
			<point x="-242" y="604" type="curve"/>
			<point x="-242" y="565"/>
			<point x="-211" y="534"/>
		</contour>
		<contour>
			<point x="-172" y="554" type="curve"/>
			<point x="-172" y="554" type="line"/>
			<point x="-200" y="554"/>
			<point x="-222" y="576"/>
			<point x="-222" y="604" type="curve"/>
			<point x="-222" y="632"/>
			<point x="-200" y="655"/>
			<point x="-172" y="655" type="curve"/>
			<point x="-144" y="655"/>
			<point x="-121" y="632"/>
			<point x="-121" y="604" type="curve"/>
			<point x="-121" y="576"/>
			<point x="-144" y="554"/>
		</contour>
	</outline>
</glyph>
<glyph name="uni030B" format="2">
	<advance width="0"/>
	<unicode hex="030B"/>
	<anchor x="-354" y="650" name="top"/>
	<anchor x="-354" y="499" name="_top"/>
	<note>
		uni030B
  </note>
	<outline>
		<contour>
			<point x="-320" y="526" type="curve"/>
			<point x="-320" y="526" type="line"/>
			<point x="-256" y="526"/>
			<point x="-171" y="544"/>
			<point x="-151" y="561" type="curve"/>
			<point x="-140" y="570"/>
			<point x="-133" y="584"/>
			<point x="-133" y="599" type="curve"/>
			<point x="-133" y="627"/>
			<point x="-156" y="650"/>
			<point x="-184" y="650" type="curve"/>
			<point x="-225" y="650"/>
			<point x="-250" y="544"/>
			<point x="-314" y="544" type="curve"/>
			<point x="-320" y="544"/>
			<point x="-318" y="532"/>
		</contour>
		<contour>
			<point x="-575" y="526" type="curve"/>
			<point x="-575" y="526" type="line"/>
			<point x="-511" y="526"/>
			<point x="-426" y="544"/>
			<point x="-406" y="561" type="curve"/>
			<point x="-395" y="570"/>
			<point x="-388" y="584"/>
			<point x="-388" y="599" type="curve"/>
			<point x="-388" y="627"/>
			<point x="-411" y="650"/>
			<point x="-439" y="650" type="curve"/>
			<point x="-480" y="650"/>
			<point x="-505" y="544"/>
			<point x="-569" y="544" type="curve"/>
			<point x="-575" y="544"/>
			<point x="-573" y="532"/>
		</contour>
	</outline>
</glyph>
<glyph name="uni031B" format="2">
	<advance width="0"/>
	<unicode hex="031B"/>
	<anchor x="-264" y="499" name="_topright"/>
	<anchor x="-264" y="499" name="topright"/>
	<outline>
		<contour>
			<point x="-232" y="488" type="curve"/>
			<point x="-232" y="488" type="line"/>
			<point x="-150" y="488"/>
			<point x="-100" y="539"/>
			<point x="-100" y="589" type="curve"/>
			<point x="-100" y="609"/>
			<point x="-108" y="629"/>
			<point x="-124" y="645" type="curve"/>
			<point x="-135" y="656"/>
			<point x="-152" y="664"/>
			<point x="-169" y="664" type="curve"/>
			<point x="-182" y="664"/>
			<point x="-194" y="660"/>
			<point x="-204" y="650" type="curve"/>
			<point x="-212" y="642"/>
			<point x="-216" y="633"/>
			<point x="-216" y="624" type="curve"/>
			<point x="-216" y="618"/>
			<point x="-214" y="611"/>
			<point x="-209" y="606" type="curve"/>
			<point x="-200" y="596"/>
			<point x="-192" y="597"/>
			<point x="-185" y="590" type="curve"/>
			<point x="-181" y="586"/>
			<point x="-178" y="579"/>
			<point x="-178" y="571" type="curve"/>
			<point x="-178" y="569"/>
			<point x="-179" y="566"/>
			<point x="-179" y="564" type="curve"/>
			<point x="-185" y="528"/>
			<point x="-240" y="505"/>
			<point x="-271" y="505" type="curve"/>
			<point x="-276" y="505"/>
			<point x="-280" y="506"/>
			<point x="-283" y="507" type="curve"/>
			<point x="-281" y="494" type="line"/>
			<point x="-263" y="490"/>
			<point x="-247" y="488"/>
		</contour>
	</outline>
</glyph>
<glyph name="uni0335" format="2">
	<advance width="0"/>
	<unicode hex="0335"/>
	<anchor x="-261" y="211" name="_center"/>
	<note>
		uni0335
  </note>
	<outline>
		<contour>
			<point x="-423" y="218" type="line"/>
			<point x="-423" y="204" type="line"/>
			<point x="-100" y="204" type="line"/>
			<point x="-100" y="218" type="line"/>
		</contour>
	</outline>
</glyph>
<glyph name="uni0337" format="2">
	<advance width="0"/>
	<unicode hex="0337"/>
	<anchor x="-236" y="327" name="_center"/>
	<note>
		uni0337
  </note>
	<outline>
		<contour>
			<point x="-372" y="240" type="line"/>
			<point x="-364" y="228" type="line"/>
			<point x="-100" y="415" type="line"/>
			<point x="-108" y="426" type="line"/>
		</contour>
	</outline>
</glyph>
<glyph name="uni0338" format="2">
	<advance width="0"/>
	<unicode hex="0338"/>
	<anchor x="-364" y="405" name="_center"/>
	<note>
		uni0338
  </note>
	<outline>
		<contour>
			<point x="-628" y="8" type="line"/>
			<point x="-616" y="0" type="line"/>
			<point x="-100" y="802" type="line"/>
			<point x="-112" y="809" type="line"/>
		</contour>
	</outline>
</glyph>
<glyph name="wacute" format="2">
	<advance width="873"/>
	<unicode hex="1E83"/>
	<note>
		wacute
  </note>
	<outline>
		<contour>
			<point x="60" y="441" type="line"/>
			<point x="321" y="-40" type="line"/>
			<point x="443" y="214" type="line"/>
			<point x="581" y="-40" type="line"/>
			<point x="813" y="441" type="line"/>
		</contour>
		<contour>
			<point x="433" y="233" type="line"/>
			<point x="350" y="59" type="line"/>
			<point x="151" y="428" type="line"/>
			<point x="327" y="427" type="line"/>
		</contour>
		<contour>
			<point x="525" y="427" type="line"/>
			<point x="472" y="315" type="line"/>
			<point x="411" y="427" type="line"/>
		</contour>
		<contour>
			<point x="785" y="427" type="line"/>
			<point x="610" y="59" type="line"/>
			<point x="483" y="295" type="line"/>
			<point x="546" y="427" type="line"/>
		</contour>
		<contour>
			<point x="325" y="575" type="line"/>
			<point x="336" y="563" type="line"/>
			<point x="520" y="638" type="line"/>
			<point x="520" y="638"/>
			<point x="550" y="645"/>
			<point x="550" y="667" type="curve"/>
			<point x="550" y="671"/>
			<point x="549" y="675"/>
			<point x="547" y="679" type="curve"/>
			<point x="542" y="690"/>
			<point x="534" y="694"/>
			<point x="527" y="694" type="curve"/>
			<point x="515" y="694"/>
			<point x="503" y="685"/>
			<point x="504" y="686" type="curve"/>
		</contour>
	</outline>
</glyph>
<glyph name="wdieresis" format="2">
	<advance width="875"/>
	<unicode hex="1E85"/>
	<note>
		wdieresis
  </note>
	<outline>
		<contour>
			<point x="61" y="441" type="line"/>
			<point x="322" y="-40" type="line"/>
			<point x="444" y="214" type="line"/>
			<point x="582" y="-40" type="line"/>
			<point x="814" y="441" type="line"/>
		</contour>
		<contour>
			<point x="434" y="233" type="line"/>
			<point x="351" y="59" type="line"/>
			<point x="152" y="428" type="line"/>
			<point x="328" y="427" type="line"/>
		</contour>
		<contour>
			<point x="526" y="427" type="line"/>
			<point x="473" y="315" type="line"/>
			<point x="412" y="427" type="line"/>
		</contour>
		<contour>
			<point x="786" y="427" type="line"/>
			<point x="611" y="59" type="line"/>
			<point x="484" y="295" type="line"/>
			<point x="547" y="427" type="line"/>
		</contour>
		<contour>
			<point x="337" y="576" type="curve"/>
			<point x="337" y="576" type="line"/>
			<point x="365" y="576"/>
			<point x="388" y="598"/>
			<point x="388" y="626" type="curve"/>
			<point x="388" y="654"/>
			<point x="365" y="677"/>
			<point x="337" y="677" type="curve"/>
			<point x="309" y="677"/>
			<point x="287" y="654"/>
			<point x="287" y="626" type="curve"/>
			<point x="287" y="598"/>
			<point x="309" y="576"/>
		</contour>
		<contour>
			<point x="537" y="576" type="curve"/>
			<point x="537" y="576" type="line"/>
			<point x="565" y="576"/>
			<point x="588" y="598"/>
			<point x="588" y="626" type="curve"/>
			<point x="588" y="654"/>
			<point x="565" y="677"/>
			<point x="537" y="677" type="curve"/>
			<point x="509" y="677"/>
			<point x="487" y="654"/>
			<point x="487" y="626" type="curve"/>
			<point x="487" y="598"/>
			<point x="509" y="576"/>
		</contour>
	</outline>
</glyph>
<glyph name="ygrave" format="2">
	<advance width="576"/>
	<unicode hex="1EF3"/>
	<note>
		ygrave
  </note>
	<outline>
		<contour>
			<point x="-254" y="-802" type="curve"/>
			<point x="-254" y="-814" type="line"/>
			<point x="-175" y="-796"/>
			<point x="-131" y="-784"/>
			<point x="61" y="-442" type="curve"/>
			<point x="515" y="441" type="line"/>
			<point x="22" y="441" type="line"/>
			<point x="272" y="23" type="line"/>
			<point x="25" y="-450" type="line"/>
			<point x="-33" y="-575"/>
			<point x="-143" y="-785"/>
		</contour>
		<contour>
			<point x="487" y="427" type="line"/>
			<point x="312" y="99" type="line"/>
			<point x="113" y="428" type="line"/>
		</contour>
		<contour>
			<point x="205" y="628" type="curve"/>
			<point x="389" y="553" type="line"/>
			<point x="400" y="565" type="line"/>
			<point x="221" y="676" type="line"/>
			<point x="222" y="675"/>
			<point x="210" y="684"/>
			<point x="198" y="684" type="curve"/>
			<point x="191" y="684"/>
			<point x="183" y="680"/>
			<point x="178" y="669" type="curve"/>
			<point x="176" y="665"/>
			<point x="175" y="661"/>
			<point x="175" y="657" type="curve"/>
			<point x="175" y="635"/>
			<point x="205" y="628"/>
		</contour>
	</outline>
</glyph>
<glyph name="endash" format="2">
	<advance width="473"/>
	<unicode hex="2013"/>
	<note>
		endash
  </note>
	<outline>
		<contour>
			<point x="75" y="278" type="line"/>
			<point x="75" y="264" type="line"/>
			<point x="398" y="264" type="line"/>
			<point x="398" y="278" type="line"/>
		</contour>
	</outline>
</glyph>
<glyph name="quoteright" format="2">
	<advance width="224"/>
	<unicode hex="2019"/>
	<note>
		quoteright
  </note>
	<outline>
		<contour>
			<point x="42" y="484" type="curve"/>
			<point x="47" y="471" type="line"/>
			<point x="103" y="471"/>
			<point x="182" y="523"/>
			<point x="182" y="608" type="curve"/>
			<point x="182" y="622"/>
			<point x="181" y="637"/>
			<point x="171" y="649" type="curve"/>
			<point x="161" y="660"/>
			<point x="147" y="666"/>
			<point x="133" y="666" type="curve"/>
			<point x="121" y="666"/>
			<point x="109" y="662"/>
			<point x="99" y="654" type="curve"/>
			<point x="90" y="646"/>
			<point x="81" y="635"/>
			<point x="81" y="615" type="curve"/>
			<point x="81" y="581"/>
			<point x="114" y="581"/>
			<point x="114" y="546" type="curve"/>
			<point x="114" y="519"/>
			<point x="69" y="484"/>
		</contour>
	</outline>
</glyph>
<glyph name="quotesinglbase" format="2">
	<advance width="379"/>
	<unicode hex="201A"/>
	<note>
		quotesinglbase
  </note>
	<outline>
		<contour>
			<point x="105" y="-157" type="curve"/>
			<point x="110" y="-170" type="line"/>
			<point x="166" y="-170"/>
			<point x="245" y="-118"/>
			<point x="245" y="-33" type="curve"/>
			<point x="245" y="-19"/>
			<point x="244" y="-4"/>
			<point x="234" y="8" type="curve"/>
			<point x="224" y="19"/>
			<point x="210" y="25"/>
			<point x="196" y="25" type="curve"/>
			<point x="184" y="25"/>
			<point x="172" y="21"/>
			<point x="162" y="13" type="curve"/>
			<point x="153" y="5"/>
			<point x="144" y="-6"/>
			<point x="144" y="-26" type="curve"/>
			<point x="144" y="-60"/>
			<point x="177" y="-60"/>
			<point x="177" y="-95" type="curve"/>
			<point x="177" y="-122"/>
			<point x="132" y="-157"/>
		</contour>
	</outline>
</glyph>
<glyph name="quotedblbase" format="2">
	<advance width="592"/>
	<unicode hex="201E"/>
	<note>
		quotedblbase
  </note>
	<outline>
		<contour>
			<point x="305" y="-157" type="curve"/>
			<point x="310" y="-170" type="line"/>
			<point x="366" y="-170"/>
			<point x="445" y="-118"/>
			<point x="445" y="-33" type="curve"/>
			<point x="445" y="-19"/>
			<point x="444" y="-4"/>
			<point x="434" y="8" type="curve"/>
			<point x="424" y="19"/>
			<point x="410" y="25"/>
			<point x="396" y="25" type="curve"/>
			<point x="384" y="25"/>
			<point x="372" y="21"/>
			<point x="362" y="13" type="curve"/>
			<point x="353" y="5"/>
			<point x="344" y="-6"/>
			<point x="344" y="-26" type="curve"/>
			<point x="344" y="-60"/>
			<point x="377" y="-60"/>
			<point x="377" y="-95" type="curve"/>
			<point x="377" y="-122"/>
			<point x="332" y="-157"/>
		</contour>
		<contour>
			<point x="105" y="-157" type="curve"/>
			<point x="110" y="-170" type="line"/>
			<point x="166" y="-170"/>
			<point x="245" y="-118"/>
			<point x="245" y="-33" type="curve"/>
			<point x="245" y="-19"/>
			<point x="244" y="-4"/>
			<point x="234" y="8" type="curve"/>
			<point x="224" y="19"/>
			<point x="210" y="25"/>
			<point x="196" y="25" type="curve"/>
			<point x="184" y="25"/>
			<point x="172" y="21"/>
			<point x="162" y="13" type="curve"/>
			<point x="153" y="5"/>
			<point x="144" y="-6"/>
			<point x="144" y="-26" type="curve"/>
			<point x="144" y="-60"/>
			<point x="177" y="-60"/>
			<point x="177" y="-95" type="curve"/>
			<point x="177" y="-122"/>
			<point x="132" y="-157"/>
		</contour>
	</outline>
</glyph>
<glyph name="dagger" format="2">
	<advance width="492"/>
	<unicode hex="2020"/>
	<note>
		dagger
  </note>
	<outline>
		<contour>
			<point x="240" y="-317" type="curve"/>
			<point x="240" y="-317" type="line"/>
			<point x="248" y="-317" type="line"/>
			<point x="248" y="-287"/>
			<point x="280" y="-153"/>
			<point x="280" y="257" type="curve"/>
			<point x="280" y="388"/>
			<point x="281" y="398"/>
			<point x="392" y="415" type="curve"/>
			<point x="392" y="427" type="line"/>
			<point x="389" y="427"/>
			<point x="326" y="412"/>
			<point x="280" y="407" type="curve"/>
			<point x="281" y="618" type="line"/>
			<point x="305" y="618" type="line"/>
			<point x="305" y="640" type="line"/>
			<point x="185" y="640" type="line"/>
			<point x="185" y="618" type="line"/>
			<point x="210" y="618" type="line"/>
			<point x="212" y="409" type="line"/>
			<point x="185" y="410"/>
			<point x="158" y="414"/>
			<point x="100" y="427" type="curve"/>
			<point x="100" y="415" type="line"/>
			<point x="211" y="398"/>
			<point x="212" y="387"/>
			<point x="212" y="256" type="curve"/>
			<point x="212" y="-194"/>
			<point x="240" y="-287"/>
		</contour>
	</outline>
</glyph>
<glyph name="bullet" format="2">
	<advance width="607"/>
	<unicode hex="2022"/>
	<note>
		bullet
  </note>
	<outline>
		<contour>
			<point x="142" y="190" type="curve"/>
			<point x="142" y="190" type="line"/>
			<point x="151" y="190"/>
			<point x="160" y="192"/>
			<point x="170" y="200" type="curve"/>
			<point x="198" y="220"/>
			<point x="178" y="247"/>
			<point x="206" y="267" type="curve"/>
			<point x="212" y="272"/>
			<point x="222" y="274"/>
			<point x="232" y="274" type="curve"/>
			<point x="257" y="274"/>
			<point x="288" y="262"/>
			<point x="299" y="246" type="curve"/>
			<point x="321" y="219"/>
			<point x="364" y="196"/>
			<point x="409" y="196" type="curve"/>
			<point x="435" y="196"/>
			<point x="462" y="204"/>
			<point x="486" y="221" type="curve"/>
			<point x="500" y="232"/>
			<point x="514" y="243"/>
			<point x="514" y="266" type="curve"/>
			<point x="514" y="288"/>
			<point x="498" y="309"/>
			<point x="475" y="316" type="curve"/>
			<point x="471" y="317"/>
			<point x="467" y="317"/>
			<point x="462" y="317" type="curve"/>
			<point x="453" y="317"/>
			<point x="443" y="315"/>
			<point x="432" y="307" type="curve"/>
			<point x="405" y="287"/>
			<point x="424" y="261"/>
			<point x="396" y="240" type="curve"/>
			<point x="390" y="235"/>
			<point x="380" y="233"/>
			<point x="370" y="233" type="curve"/>
			<point x="346" y="233"/>
			<point x="316" y="245"/>
			<point x="305" y="260" type="curve"/>
			<point x="304" y="261" type="line"/>
			<point x="304" y="262" type="line"/>
			<point x="281" y="289"/>
			<point x="239" y="311"/>
			<point x="194" y="311" type="curve"/>
			<point x="168" y="311"/>
			<point x="141" y="304"/>
			<point x="116" y="286" type="curve"/>
			<point x="105" y="278"/>
			<point x="93" y="268"/>
			<point x="90" y="253" type="curve"/>
			<point x="89" y="249"/>
			<point x="88" y="245"/>
			<point x="88" y="241" type="curve"/>
			<point x="88" y="213"/>
			<point x="112" y="190"/>
		</contour>
	</outline>
</glyph>
